<svg width="138" height="86" viewBox="0 0 138 86" fill="none" xmlns="http://www.w3.org/2000/svg">
<g id="autenticate icon" clip-path="url(#clip0_1081_602)">
<path id="Vector" d="M137.31 35.359H137.079V29.0605C137.079 28.5817 136.985 28.1077 136.801 27.6654C136.617 27.2231 136.348 26.8213 136.008 26.4828C135.668 26.1442 135.265 25.8757 134.821 25.6925C134.377 25.5093 133.901 25.415 133.421 25.415H120.029C119.549 25.415 119.073 25.5093 118.629 25.6925C118.186 25.8757 117.782 26.1442 117.443 26.4828C117.103 26.8213 116.833 27.2231 116.65 27.6654C116.466 28.1077 116.371 28.5817 116.371 29.0605V63.6146C116.371 64.0934 116.466 64.5674 116.65 65.0097C116.833 65.452 117.103 65.8538 117.443 66.1923C117.782 66.5308 118.186 66.7994 118.629 66.9826C119.073 67.1658 119.549 67.2601 120.029 67.26H133.421C133.901 67.2601 134.377 67.1658 134.821 66.9826C135.265 66.7994 135.668 66.5308 136.008 66.1923C136.348 65.8538 136.617 65.452 136.801 65.0097C136.985 64.5674 137.079 64.0934 137.079 63.6146V39.8424H137.31V35.359Z" fill="#585858"/>
<path id="Vector_2" d="M136.301 29.2752V63.7791C136.301 64.5013 136.013 65.1938 135.501 65.7044C134.988 66.215 134.293 66.5019 133.569 66.5019H120.113C119.754 66.5019 119.399 66.4314 119.067 66.2945C118.736 66.1577 118.435 65.9571 118.181 65.7043C117.927 65.4514 117.726 65.1513 117.589 64.821C117.452 64.4906 117.381 64.1366 117.381 63.7791V29.2752C117.381 28.5534 117.669 27.8612 118.181 27.3508C118.693 26.8405 119.388 26.5537 120.113 26.5537H121.745C121.665 26.7501 121.634 26.9631 121.656 27.1739C121.678 27.3848 121.752 27.587 121.87 27.763C121.989 27.9389 122.149 28.083 122.337 28.1828C122.525 28.2826 122.734 28.3349 122.947 28.3351H130.619C130.832 28.3355 131.042 28.2836 131.23 28.184C131.418 28.0844 131.578 27.9402 131.697 27.7641C131.816 27.588 131.889 27.3854 131.911 27.1743C131.932 26.9632 131.901 26.7501 131.821 26.5537H133.569C134.293 26.5537 134.988 26.8404 135.5 27.3507C136.013 27.8611 136.301 28.5533 136.301 29.2752Z" fill="#39A798"/>
<path id="Vector_3" d="M133.754 44.2188H118.111V48.4247H133.754V44.2188Z" fill="#EFEFEF"/>
<path id="Vector_4" d="M134.374 47.6829H119.229C119.13 47.6828 119.035 47.6436 118.966 47.5741C118.896 47.5045 118.857 47.4102 118.856 47.3118V43.6006C118.857 43.5022 118.896 43.4079 118.966 43.3383C119.035 43.2687 119.13 43.2296 119.229 43.2295H134.374C134.473 43.2296 134.568 43.2687 134.638 43.3383C134.708 43.4079 134.747 43.5022 134.747 43.6006V47.3118C134.747 47.4102 134.708 47.5045 134.638 47.5741C134.568 47.6436 134.473 47.6828 134.374 47.6829ZM119.229 43.4769C119.196 43.4769 119.164 43.49 119.141 43.5132C119.118 43.5364 119.105 43.5678 119.105 43.6006V47.3118C119.105 47.3446 119.118 47.376 119.141 47.3992C119.164 47.4224 119.196 47.4355 119.229 47.4355H134.374C134.407 47.4355 134.439 47.4224 134.462 47.3992C134.486 47.376 134.499 47.3446 134.499 47.3118V43.6006C134.499 43.5678 134.486 43.5364 134.462 43.5132C134.439 43.49 134.407 43.4769 134.374 43.4769H119.229Z" fill="#DCDCDC"/>
<path id="Vector_5" d="M121.836 46.5693H119.85V46.8167H121.836V46.5693Z" fill="#3F3D56"/>
<path id="Vector_6" d="M124.567 46.5693H122.581V46.8167H124.567V46.5693Z" fill="#3F3D56"/>
<path id="Vector_7" d="M127.298 46.5693H125.312V46.8167H127.298V46.5693Z" fill="#3F3D56"/>
<path id="Vector_8" d="M130.029 46.5693H128.043V46.8167H130.029V46.5693Z" fill="#3F3D56"/>
<path id="Vector_9" d="M132.761 46.5693H130.774V46.8167H132.761V46.5693Z" fill="#3F3D56"/>
<path id="Vector_10" opacity="0.1" d="M136.301 60.2709V63.7792C136.301 64.5013 136.013 65.1939 135.501 65.7045C134.988 66.2151 134.293 66.5019 133.569 66.502H120.113C119.754 66.5019 119.399 66.4315 119.067 66.2946C118.736 66.1578 118.435 65.9572 118.181 65.7043C117.927 65.4515 117.726 65.1514 117.589 64.821C117.452 64.4907 117.381 64.1367 117.381 63.7792V47.6406L136.301 60.2709Z" fill="#585858"/>
<path id="Vector_11" d="M71.8057 57.084H13.0854V85.7836H71.8057V57.084Z" fill="#D0CDE1"/>
<path id="Vector_12" opacity="0.1" d="M56.8774 85.7836H13.3337C13.2679 85.7834 13.2049 85.7573 13.1584 85.711C13.1119 85.6646 13.0856 85.6018 13.0854 85.5362V57.3314C13.0856 57.2658 13.1119 57.203 13.1584 57.1567C13.2049 57.1103 13.2679 57.0842 13.3337 57.084H13.8849L56.8774 85.7836Z" fill="black"/>
<path id="Vector_13" d="M131.271 60.9189H40.2729V61.1664H131.271V60.9189Z" fill="#585858"/>
<path id="Vector_14" d="M69.0425 0.74995H43.0356V0.21582H31.243V0.74995H5.1288C4.89779 0.74995 4.66903 0.795292 4.4556 0.883386C4.24216 0.97148 4.04823 1.1006 3.88488 1.26338C3.72152 1.42616 3.59194 1.6194 3.50354 1.83208C3.41513 2.04476 3.36963 2.2727 3.36963 2.50291V37.9885C3.36963 38.4534 3.55497 38.8993 3.88488 39.228C4.21479 39.5568 4.66224 39.7415 5.1288 39.7415H69.0425C69.5091 39.7415 69.9565 39.5568 70.2864 39.228C70.6164 38.8993 70.8017 38.4534 70.8017 37.9885V2.50291C70.8017 2.2727 70.7562 2.04476 70.6678 1.83208C70.5794 1.6194 70.4498 1.42616 70.2864 1.26338C70.1231 1.1006 69.9292 0.97148 69.7157 0.883386C69.5023 0.795292 69.2735 0.74995 69.0425 0.74995Z" fill="#585858"/>
<path id="Vector_15" d="M68.4425 3.84766H5.72852V39.1012H68.4425V3.84766Z" fill="#D0CDE1"/>
<path id="Vector_16" d="M37.0319 2.88641C37.3871 2.88641 37.6751 2.59944 37.6751 2.24545C37.6751 1.89146 37.3871 1.60449 37.0319 1.60449C36.6767 1.60449 36.3887 1.89146 36.3887 2.24545C36.3887 2.59944 36.6767 2.88641 37.0319 2.88641Z" fill="#39A798"/>
<path id="Vector_17" d="M24.3827 17.0031H22.8929C22.7942 17.003 22.6995 16.9638 22.6297 16.8942C22.5599 16.8247 22.5206 16.7303 22.5205 16.6319V15.1475C22.5206 15.0491 22.5599 14.9548 22.6297 14.8852C22.6995 14.8156 22.7942 14.7765 22.8929 14.7764H24.3827C24.4814 14.7765 24.5761 14.8156 24.6459 14.8852C24.7157 14.9548 24.755 15.0491 24.7551 15.1475V16.6319C24.755 16.7303 24.7157 16.8247 24.6459 16.8942C24.5761 16.9638 24.4814 17.003 24.3827 17.0031ZM22.8929 15.0238C22.86 15.0238 22.8285 15.0369 22.8052 15.0601C22.7819 15.0832 22.7688 15.1147 22.7688 15.1475V16.6319C22.7688 16.6647 22.7819 16.6962 22.8052 16.7194C22.8285 16.7426 22.86 16.7556 22.8929 16.7557H24.3827C24.4156 16.7556 24.4471 16.7426 24.4704 16.7194C24.4937 16.6962 24.5068 16.6647 24.5068 16.6319V15.1475C24.5068 15.1147 24.4937 15.0832 24.4704 15.0601C24.4471 15.0369 24.4156 15.0238 24.3827 15.0238H22.8929Z" fill="#3F3D56"/>
<path id="Vector_18" d="M50.9494 16.7559H22.6445V17.0033H50.9494V16.7559Z" fill="#3F3D56"/>
<path id="Vector_19" d="M50.2047 23.5596H43.625V25.5389H50.2047V23.5596Z" fill="#39A798"/>
<path id="Vector_20" d="M50.7011 25.0441H44.618C44.5193 25.044 44.4246 25.0048 44.3548 24.9353C44.285 24.8657 44.2457 24.7714 44.2456 24.673V23.1885C44.2457 23.0901 44.285 22.9958 44.3548 22.9262C44.4246 22.8566 44.5193 22.8175 44.618 22.8174H50.7011C50.7999 22.8175 50.8945 22.8566 50.9643 22.9262C51.0342 22.9958 51.0734 23.0901 51.0735 23.1885V24.673C51.0734 24.7714 51.0342 24.8657 50.9643 24.9353C50.8945 25.0048 50.7999 25.044 50.7011 25.0441ZM44.618 23.0648C44.5851 23.0648 44.5536 23.0779 44.5303 23.1011C44.507 23.1243 44.4939 23.1557 44.4939 23.1885V24.673C44.4939 24.7058 44.507 24.7372 44.5303 24.7604C44.5536 24.7836 44.5851 24.7966 44.618 24.7967H50.7011C50.734 24.7966 50.7656 24.7836 50.7888 24.7604C50.8121 24.7372 50.8252 24.7058 50.8253 24.673V23.1885C50.8252 23.1557 50.8121 23.1243 50.7888 23.1011C50.7656 23.0779 50.734 23.0648 50.7011 23.0648H44.618Z" fill="#3F3D56"/>
<path id="Vector_21" d="M100.483 25.7861H88.0684V34.4455H100.483V25.7861Z" fill="#39A798"/>
<path id="Vector_22" d="M101.724 33.7655H89.8066C89.675 33.7654 89.5487 33.7132 89.4557 33.6204C89.3626 33.5277 89.3102 33.4019 89.3101 33.2707V25.1061C89.3102 24.975 89.3626 24.8492 89.4557 24.7564C89.5487 24.6636 89.675 24.6115 89.8066 24.6113H101.724C101.856 24.6115 101.982 24.6636 102.075 24.7564C102.169 24.8492 102.221 24.975 102.221 25.1061V33.2707C102.221 33.4019 102.169 33.5277 102.075 33.6204C101.982 33.7132 101.856 33.7654 101.724 33.7655ZM89.8066 25.1061V33.2707H101.725L101.724 25.1061H89.8066Z" fill="#585858"/>
<path id="Vector_23" d="M100.359 24.7968H99.8625C99.8625 23.7141 99.4308 22.6758 98.6626 21.9102C97.8943 21.1446 96.8522 20.7145 95.7657 20.7145C94.6792 20.7145 93.6371 21.1446 92.8689 21.9102C92.1006 22.6758 91.6689 23.7141 91.6689 24.7968H91.1724C91.1724 23.5829 91.6563 22.4187 92.5177 21.5603C93.3791 20.702 94.5475 20.2197 95.7657 20.2197C96.9839 20.2197 98.1523 20.702 99.0137 21.5603C99.8751 22.4187 100.359 23.5829 100.359 24.7968Z" fill="#585858"/>
<path id="Vector_24" d="M97.0069 28.1985C97.0071 27.983 96.9509 27.7713 96.8438 27.5842C96.7367 27.3971 96.5824 27.241 96.3962 27.1316C96.21 27.0221 95.9984 26.963 95.7822 26.9601C95.5661 26.9572 95.3529 27.0105 95.1638 27.1149C94.9747 27.2193 94.8162 27.3711 94.7041 27.5552C94.5919 27.7394 94.53 27.9496 94.5243 28.1649C94.5187 28.3802 94.5696 28.5933 94.672 28.783C94.7744 28.9727 94.9248 29.1325 95.1082 29.2466V30.5743C95.1082 30.6603 95.1252 30.7455 95.1582 30.825C95.1913 30.9044 95.2397 30.9766 95.3007 31.0374C95.3617 31.0982 95.4342 31.1465 95.5139 31.1794C95.5936 31.2123 95.6791 31.2292 95.7654 31.2292C95.9397 31.2292 96.1069 31.1602 96.2302 31.0374C96.3534 30.9146 96.4227 30.748 96.4227 30.5743V29.2466C96.6013 29.1357 96.7487 28.9813 96.851 28.7979C96.9532 28.6145 97.0068 28.4082 97.0069 28.1985Z" fill="#585858"/>
<path id="Vector_25" d="M37.9765 69.8252H35.9902V70.0726H37.9765V69.8252Z" fill="#3F3D56"/>
<path id="Vector_26" d="M40.7075 69.8252H38.7212V70.0726H40.7075V69.8252Z" fill="#3F3D56"/>
<path id="Vector_27" d="M43.4389 69.8252H41.4526V70.0726H43.4389V69.8252Z" fill="#3F3D56"/>
<path id="Vector_28" d="M46.1699 69.8252H44.1836V70.0726H46.1699V69.8252Z" fill="#3F3D56"/>
<path id="Vector_29" d="M48.9013 69.8252H46.915V70.0726H48.9013V69.8252Z" fill="#3F3D56"/>
<path id="Vector_30" d="M74.4126 83.6808H16.189C16.0573 83.6807 15.9311 83.6285 15.838 83.5357C15.7449 83.443 15.6925 83.3172 15.6924 83.186V54.9811C15.6925 54.85 15.7449 54.7242 15.838 54.6314C15.9311 54.5386 16.0573 54.4865 16.189 54.4863H74.4126C74.5443 54.4865 74.6705 54.5386 74.7636 54.6314C74.8567 54.7242 74.909 54.85 74.9092 54.9811V83.186C74.909 83.3172 74.8567 83.443 74.7636 83.5357C74.6705 83.6285 74.5443 83.6807 74.4126 83.6808ZM16.189 54.9811V83.186H74.413L74.4126 54.9811H16.189Z" fill="#585858"/>
<path id="Vector_31" d="M18.7961 59.1866C19.2075 59.1866 19.541 58.8543 19.541 58.4444C19.541 58.0345 19.2075 57.7021 18.7961 57.7021C18.3848 57.7021 18.0513 58.0345 18.0513 58.4444C18.0513 58.8543 18.3848 59.1866 18.7961 59.1866Z" fill="#3F3D56"/>
<path id="Vector_32" d="M21.4031 59.1866C21.8144 59.1866 22.1479 58.8543 22.1479 58.4444C22.1479 58.0345 21.8144 57.7021 21.4031 57.7021C20.9917 57.7021 20.6582 58.0345 20.6582 58.4444C20.6582 58.8543 20.9917 59.1866 21.4031 59.1866Z" fill="#3F3D56"/>
<path id="Vector_33" d="M24.01 59.1866C24.4214 59.1866 24.7549 58.8543 24.7549 58.4444C24.7549 58.0345 24.4214 57.7021 24.01 57.7021C23.5986 57.7021 23.2651 58.0345 23.2651 58.4444C23.2651 58.8543 23.5986 59.1866 24.01 59.1866Z" fill="#3F3D56"/>
<path id="Vector_34" d="M50.8253 71.5576H34.0658C33.9671 71.5575 33.8724 71.5183 33.8026 71.4488C33.7327 71.3792 33.6935 71.2849 33.6934 71.1865V66.9805C33.6935 66.8821 33.7327 66.7878 33.8026 66.7182C33.8724 66.6486 33.9671 66.6095 34.0658 66.6094H50.8253C50.924 66.6095 51.0187 66.6486 51.0885 66.7182C51.1583 66.7878 51.1976 66.8821 51.1977 66.9805V71.1865C51.1976 71.2849 51.1583 71.3792 51.0885 71.4488C51.0187 71.5183 50.924 71.5575 50.8253 71.5576ZM34.0658 66.8568C34.0329 66.8568 34.0013 66.8699 33.978 66.8931C33.9548 66.9163 33.9417 66.9477 33.9416 66.9805V71.1865C33.9417 71.2193 33.9548 71.2507 33.978 71.2739C34.0013 71.2971 34.0329 71.3101 34.0658 71.3102H50.8253C50.8582 71.3101 50.8898 71.2971 50.913 71.2739C50.9363 71.2507 50.9494 71.2193 50.9494 71.1865V66.9805C50.9494 66.9477 50.9363 66.9163 50.913 66.8931C50.8898 66.8699 50.8582 66.8568 50.8253 66.8568H34.0658Z" fill="#3F3D56"/>
<path id="Vector_35" d="M55.0461 71.6809C56.2803 71.6809 57.2807 70.684 57.2807 69.4542C57.2807 68.2245 56.2803 67.2275 55.0461 67.2275C53.812 67.2275 52.8115 68.2245 52.8115 69.4542C52.8115 70.684 53.812 71.6809 55.0461 71.6809Z" fill="#39A798"/>
<path id="Vector_36" d="M55.7909 71.4342C55.3244 71.4342 54.8683 71.2964 54.4804 71.0381C54.0925 70.7798 53.7902 70.4127 53.6117 69.9833C53.4332 69.5538 53.3864 69.0812 53.4775 68.6253C53.5685 68.1693 53.7931 67.7505 54.123 67.4218C54.4529 67.0931 54.8732 66.8693 55.3307 66.7786C55.7883 66.6879 56.2625 66.7344 56.6935 66.9123C57.1245 67.0902 57.4929 67.3915 57.7521 67.778C58.0113 68.1645 58.1496 68.6189 58.1496 69.0838C58.1489 69.7069 57.9002 70.3044 57.458 70.745C57.0158 71.1856 56.4162 71.4335 55.7909 71.4342ZM55.7909 66.9808C55.3735 66.9808 54.9654 67.1041 54.6184 67.3352C54.2713 67.5663 54.0008 67.8947 53.8411 68.279C53.6813 68.6633 53.6395 69.0861 53.721 69.4941C53.8024 69.902 54.0034 70.2767 54.2986 70.5708C54.5937 70.8649 54.9698 71.0652 55.3791 71.1464C55.7885 71.2275 56.2129 71.1859 56.5985 71.0267C56.9841 70.8675 57.3138 70.598 57.5457 70.2522C57.7776 69.9063 57.9013 69.4997 57.9013 69.0838C57.9007 68.5262 57.6782 67.9917 57.2825 67.5974C56.8869 67.2032 56.3504 66.9814 55.7909 66.9808Z" fill="#3F3D56"/>
<path id="Vector_37" d="M55.8239 69.9612L54.6221 68.7635L54.9732 68.4137L55.7576 69.1953L57.9465 66.0957L58.3526 66.3806L55.8239 69.9612Z" fill="#3F3D56"/>
<path id="Vector_38" opacity="0.1" d="M54.5384 39.1008H5.72852V6.51807L54.5384 39.1008Z" fill="black"/>
<path id="Vector_39" d="M72.5626 38.4592H66.442V38.0197C66.442 38.0083 66.4397 37.997 66.4353 37.9864C66.4309 37.9758 66.4245 37.9662 66.4164 37.9581C66.4082 37.95 66.3986 37.9436 66.388 37.9393C66.3774 37.9349 66.366 37.9326 66.3545 37.9326H64.2561C64.2446 37.9326 64.2332 37.9349 64.2226 37.9393C64.212 37.9436 64.2024 37.95 64.1942 37.9581C64.1861 37.9662 64.1797 37.9758 64.1753 37.9864C64.1709 37.997 64.1686 38.0083 64.1686 38.0197V38.4592H62.8571V38.0197C62.8571 38.0083 62.8548 37.997 62.8504 37.9864C62.846 37.9758 62.8396 37.9662 62.8315 37.9581C62.8233 37.95 62.8137 37.9436 62.8031 37.9393C62.7925 37.9349 62.7811 37.9326 62.7696 37.9326H60.6711C60.6597 37.9326 60.6483 37.9349 60.6377 37.9393C60.6271 37.9436 60.6174 37.95 60.6093 37.9581C60.6012 37.9662 60.5948 37.9758 60.5904 37.9864C60.586 37.997 60.5837 38.0083 60.5837 38.0197V38.4592H59.2722V38.0197C59.2722 38.0083 59.2699 37.997 59.2655 37.9864C59.2611 37.9758 59.2547 37.9662 59.2465 37.9581C59.2384 37.95 59.2288 37.9436 59.2182 37.9393C59.2076 37.9349 59.1962 37.9326 59.1847 37.9326H57.0862C57.0748 37.9326 57.0634 37.9349 57.0528 37.9393C57.0422 37.9436 57.0325 37.95 57.0244 37.9581C57.0163 37.9662 57.0098 37.9758 57.0055 37.9864C57.0011 37.997 56.9988 38.0083 56.9988 38.0197V38.4592H55.6872V38.0197C55.6872 38.0083 55.685 37.997 55.6806 37.9864C55.6762 37.9758 55.6698 37.9662 55.6616 37.9581C55.6535 37.95 55.6439 37.9436 55.6333 37.9393C55.6227 37.9349 55.6113 37.9326 55.5998 37.9326H53.5013C53.4898 37.9326 53.4785 37.9349 53.4679 37.9393C53.4573 37.9436 53.4476 37.95 53.4395 37.9581C53.4314 37.9662 53.4249 37.9758 53.4205 37.9864C53.4161 37.997 53.4139 38.0083 53.4139 38.0197V38.4592H52.1023V38.0197C52.1023 38.0083 52.1001 37.997 52.0957 37.9864C52.0913 37.9758 52.0848 37.9662 52.0767 37.9581C52.0686 37.95 52.059 37.9436 52.0484 37.9393C52.0378 37.9349 52.0264 37.9326 52.0149 37.9326H49.9164C49.9049 37.9326 49.8936 37.9349 49.883 37.9393C49.8723 37.9436 49.8627 37.95 49.8546 37.9581C49.8465 37.9662 49.84 37.9758 49.8356 37.9864C49.8312 37.997 49.829 38.0083 49.829 38.0197V38.4592H48.5174V38.0197C48.5174 38.0083 48.5152 37.997 48.5108 37.9864C48.5064 37.9758 48.4999 37.9662 48.4918 37.9581C48.4837 37.95 48.4741 37.9436 48.4634 37.9393C48.4528 37.9349 48.4415 37.9326 48.43 37.9326H46.3315C46.32 37.9326 46.3086 37.9349 46.298 37.9393C46.2874 37.9436 46.2778 37.95 46.2697 37.9581C46.2616 37.9662 46.2551 37.9758 46.2507 37.9864C46.2463 37.997 46.2441 38.0083 46.2441 38.0197V38.4592H44.9325V38.0197C44.9325 38.0083 44.9303 37.997 44.9259 37.9864C44.9215 37.9758 44.915 37.9662 44.9069 37.9581C44.8988 37.95 44.8891 37.9436 44.8785 37.9393C44.8679 37.9349 44.8566 37.9326 44.8451 37.9326H28.4069C28.3955 37.9326 28.3841 37.9349 28.3735 37.9393C28.3629 37.9436 28.3532 37.95 28.3451 37.9581C28.337 37.9662 28.3306 37.9758 28.3262 37.9864C28.3218 37.997 28.3195 38.0083 28.3195 38.0197V38.4592H27.0079V38.0197C27.008 38.0083 27.0057 37.997 27.0013 37.9864C26.9969 37.9758 26.9905 37.9662 26.9823 37.9581C26.9742 37.95 26.9646 37.9436 26.954 37.9393C26.9434 37.9349 26.932 37.9326 26.9205 37.9326H24.822C24.8105 37.9326 24.7992 37.9349 24.7886 37.9393C24.778 37.9436 24.7683 37.95 24.7602 37.9581C24.7521 37.9662 24.7456 37.9758 24.7412 37.9864C24.7369 37.997 24.7346 38.0083 24.7346 38.0197V38.4592H23.423V38.0197C23.423 38.0083 23.4208 37.997 23.4164 37.9864C23.412 37.9758 23.4056 37.9662 23.3974 37.9581C23.3893 37.95 23.3797 37.9436 23.3691 37.9393C23.3585 37.9349 23.3471 37.9326 23.3356 37.9326H21.2371C21.2256 37.9326 21.2143 37.9349 21.2037 37.9393C21.193 37.9436 21.1834 37.95 21.1753 37.9581C21.1672 37.9662 21.1607 37.9758 21.1563 37.9864C21.1519 37.997 21.1497 38.0083 21.1497 38.0197V38.4592H19.8381V38.0197C19.8381 38.0083 19.8359 37.997 19.8315 37.9864C19.8271 37.9758 19.8206 37.9662 19.8125 37.9581C19.8044 37.95 19.7948 37.9436 19.7842 37.9393C19.7735 37.9349 19.7622 37.9326 19.7507 37.9326H17.6522C17.6407 37.9326 17.6294 37.9349 17.6187 37.9393C17.6081 37.9436 17.5985 37.95 17.5904 37.9581C17.5823 37.9662 17.5758 37.9758 17.5714 37.9864C17.567 37.997 17.5648 38.0083 17.5648 38.0197V38.4592H16.2532V38.0197C16.2532 38.0083 16.251 37.997 16.2466 37.9864C16.2422 37.9758 16.2357 37.9662 16.2276 37.9581C16.2195 37.95 16.2098 37.9436 16.1992 37.9393C16.1886 37.9349 16.1773 37.9326 16.1658 37.9326H14.0673C14.0558 37.9326 14.0444 37.9349 14.0338 37.9393C14.0232 37.9436 14.0136 37.95 14.0055 37.9581C13.9973 37.9662 13.9909 37.9758 13.9865 37.9864C13.9821 37.997 13.9799 38.0083 13.9799 38.0197V38.4592H12.6683V38.0197C12.6683 38.0083 12.666 37.997 12.6617 37.9864C12.6573 37.9758 12.6508 37.9662 12.6427 37.9581C12.6346 37.95 12.6249 37.9436 12.6143 37.9393C12.6037 37.9349 12.5924 37.9326 12.5809 37.9326H10.4824C10.4709 37.9326 10.4595 37.9349 10.4489 37.9393C10.4383 37.9436 10.4287 37.95 10.4206 37.9581C10.4124 37.9662 10.406 37.9758 10.4016 37.9864C10.3972 37.997 10.3949 38.0083 10.3949 38.0197V38.4592H9.08339V38.0197C9.08339 38.0083 9.08113 37.997 9.07674 37.9864C9.07234 37.9758 9.0659 37.9662 9.05778 37.9581C9.04966 37.95 9.04002 37.9436 9.02942 37.9393C9.01881 37.9349 9.00744 37.9326 8.99596 37.9326H6.89747C6.88599 37.9326 6.87462 37.9349 6.86401 37.9393C6.8534 37.9436 6.84376 37.95 6.83564 37.9581C6.82752 37.9662 6.82108 37.9758 6.81669 37.9864C6.8123 37.997 6.81003 38.0083 6.81003 38.0197V38.4592H2.78794C2.51236 38.4592 2.23948 38.5133 1.98488 38.6183C1.73028 38.7234 1.49895 38.8775 1.30408 39.0716C1.10922 39.2658 0.954649 39.4963 0.84919 39.75C0.743732 40.0037 0.689453 40.2756 0.689453 40.5502V41.4958C0.689454 42.0503 0.910545 42.5822 1.30409 42.9744C1.69763 43.3665 2.23139 43.5868 2.78794 43.5868H72.5626C72.8381 43.5868 73.111 43.5327 73.3656 43.4277C73.6202 43.3226 73.8515 43.1685 74.0464 42.9744C74.2413 42.7802 74.3958 42.5497 74.5013 42.296C74.6068 42.0423 74.661 41.7704 74.661 41.4958V40.5502C74.661 40.2756 74.6068 40.0037 74.5013 39.75C74.3958 39.4963 74.2413 39.2658 74.0464 39.0716C73.8515 38.8775 73.6202 38.7234 73.3656 38.6183C73.111 38.5133 72.8381 38.4592 72.5626 38.4592Z" fill="#585858"/>
<path id="Vector_40" d="M53.4327 27.1477H20.6586C20.5598 27.1476 20.4652 27.1084 20.3953 27.0389C20.3255 26.9693 20.2862 26.875 20.2861 26.7766V13.169C20.2862 13.0706 20.3255 12.9762 20.3953 12.9067C20.4652 12.8371 20.5598 12.798 20.6586 12.7979H53.4327C53.5314 12.798 53.6261 12.8371 53.6959 12.9067C53.7657 12.9762 53.805 13.0706 53.8051 13.169V26.7766C53.805 26.875 53.7657 26.9693 53.6959 27.0389C53.6261 27.1084 53.5314 27.1476 53.4327 27.1477ZM20.6586 13.0453C20.6257 13.0453 20.5941 13.0584 20.5708 13.0815C20.5476 13.1047 20.5345 13.1362 20.5344 13.169V26.7766C20.5345 26.8094 20.5476 26.8408 20.5708 26.864C20.5941 26.8872 20.6257 26.9002 20.6586 26.9003H53.4327C53.4656 26.9002 53.4971 26.8872 53.5204 26.864C53.5437 26.8408 53.5568 26.8094 53.5568 26.7766V13.169C53.5568 13.1362 53.5437 13.1047 53.5204 13.0815C53.4971 13.0584 53.4656 13.0453 53.4327 13.0453H20.6586Z" fill="#3F3D56"/>
<path id="Vector_41" d="M24.3827 20.715H22.8929C22.7942 20.7149 22.6995 20.6757 22.6297 20.6062C22.5599 20.5366 22.5206 20.4423 22.5205 20.3439V18.8594C22.5206 18.761 22.5599 18.6667 22.6297 18.5971C22.6995 18.5275 22.7942 18.4884 22.8929 18.4883H24.3827C24.4814 18.4884 24.5761 18.5275 24.6459 18.5971C24.7157 18.6667 24.755 18.761 24.7551 18.8594V20.3439C24.755 20.4423 24.7157 20.5366 24.6459 20.6062C24.5761 20.6757 24.4814 20.7149 24.3827 20.715ZM22.8929 18.7357C22.86 18.7357 22.8285 18.7488 22.8052 18.772C22.7819 18.7952 22.7688 18.8266 22.7688 18.8594V20.3439C22.7688 20.3767 22.7819 20.4081 22.8052 20.4313C22.8285 20.4545 22.86 20.4675 22.8929 20.4676H24.3827C24.4156 20.4675 24.4471 20.4545 24.4704 20.4313C24.4937 20.4081 24.5068 20.3767 24.5068 20.3439V18.8594C24.5068 18.8266 24.4937 18.7952 24.4704 18.772C24.4471 18.7488 24.4156 18.7357 24.3827 18.7357H22.8929Z" fill="#3F3D56"/>
<path id="Vector_42" d="M50.9494 20.4668H22.6445V20.7142H50.9494V20.4668Z" fill="#3F3D56"/>
<path id="Vector_43" d="M124.567 33.5801H33.5693V33.8275H124.567V33.5801Z" fill="#585858"/>
<path id="Vector_44" d="M33.5691 35.3114C34.529 35.3114 35.3071 34.536 35.3071 33.5795C35.3071 32.623 34.529 31.8477 33.5691 31.8477C32.6092 31.8477 31.8311 32.623 31.8311 33.5795C31.8311 34.536 32.6092 35.3114 33.5691 35.3114Z" fill="#3F3D56"/>
<path id="Vector_45" d="M124.567 35.1883C125.321 35.1883 125.933 34.5791 125.933 33.8276C125.933 33.076 125.321 32.4668 124.567 32.4668C123.813 32.4668 123.202 33.076 123.202 33.8276C123.202 34.5791 123.813 35.1883 124.567 35.1883Z" fill="#DCDCDC"/>
<path id="Vector_46" d="M131.271 62.5272C132.025 62.5272 132.636 61.918 132.636 61.1664C132.636 60.4149 132.025 59.8057 131.271 59.8057C130.517 59.8057 129.905 60.4149 129.905 61.1664C129.905 61.918 130.517 62.5272 131.271 62.5272Z" fill="#DCDCDC"/>
<path id="Vector_47" d="M40.6454 62.5272C41.3996 62.5272 42.011 61.918 42.011 61.1664C42.011 60.4149 41.3996 59.8057 40.6454 59.8057C39.8912 59.8057 39.2798 60.4149 39.2798 61.1664C39.2798 61.918 39.8912 62.5272 40.6454 62.5272Z" fill="#3F3D56"/>
</g>
<defs>
<clipPath id="clip0_1081_602">
<rect width="136.621" height="85.5679" fill="white" transform="translate(0.689453 0.21582)"/>
</clipPath>
</defs>
</svg>
