<svg width="532" height="359" viewBox="0 0 532 359" fill="none" xmlns="http://www.w3.org/2000/svg">
<g clip-path="url(#clip0_1450_403)">
<path d="M343.988 81.3852C354.062 81.3852 362.229 73.2119 362.229 63.1296C362.229 53.0473 354.062 44.874 343.988 44.874C333.914 44.874 325.748 53.0473 325.748 63.1296C325.748 73.2119 333.914 81.3852 343.988 81.3852Z" fill="#F2F2F2"/>
<path d="M386.454 244.088C383.604 237.528 379.215 231.766 370.437 226.917C365.9 224.349 361.026 222.429 355.958 221.212C359.368 219.626 362.504 217.508 365.25 214.937C369.285 211.326 372.344 206.754 374.142 201.644C375.797 196.452 376.473 190.996 376.137 185.556C375.51 175.972 373.629 166.673 368.613 159.999C363.597 153.324 356.528 148.189 347.18 144.595C339.998 141.857 332.645 140.146 321.245 139.518V103.064L298.445 117.326V139.575H280.204V116.185L256.834 103.064V139.575H207.187L223.147 166.959C228.077 166.964 231.418 167.421 233.122 168.271C234.713 168.952 236.021 170.161 236.827 171.694C237.568 173.12 237.91 176.486 237.91 181.677V280.485C237.91 285.62 237.568 288.929 236.827 290.412C236.086 291.895 235.687 293.207 233.92 294.006C232.153 294.805 232.096 294.748 227.194 294.748H227.137L207.187 322.131H256.777V358.642H280.147V322.131H298.388V358.642H321.188V321.903C336.008 321.161 346.553 319.222 355.046 316.027C366.048 311.919 374.484 305.929 380.526 298.057C386.568 290.184 389.019 278.147 389.532 268.848C389.931 260.575 389.019 249.907 386.454 244.088ZM280.147 170.381H280.153V169.623H296.091C305.057 169.623 334.937 166.633 335.432 191.056C335.934 215.478 296.091 214.48 296.091 214.48H280.153V212.598H280.147V170.381ZM280.147 239.981H298.388C302.093 239.981 314.838 240.546 319.478 240.757C321.37 240.826 323.242 241.16 325.041 241.749C325.697 241.972 326.318 242.223 326.991 242.502C329.802 243.412 332.454 244.755 334.851 246.484C336.414 247.517 337.788 248.81 338.915 250.307C339.403 250.982 339.853 251.685 340.26 252.412C341.34 254.24 342.141 256.218 342.637 258.282C343.181 260.276 343.462 262.331 343.475 264.398C343.475 268.842 342.654 272.521 340.631 275.636C337.889 280.234 333.392 283.492 328.33 285.791C315.243 291.747 298.388 291.325 298.388 291.325H280.147V239.981Z" fill="white"/>
<path opacity="0.3" d="M348.926 63.8974C348.753 63.4698 348.435 63.117 348.028 62.9008C347.774 62.7522 347.501 62.6407 347.216 62.5697C347.408 62.4771 347.584 62.3541 347.737 62.2055C347.965 61.9938 348.136 61.7287 348.235 61.4341C348.328 61.1321 348.366 60.8158 348.347 60.5004C348.346 59.9766 348.2 59.4633 347.925 59.0172C347.619 58.6094 347.202 58.299 346.724 58.1232C346.26 57.9429 345.768 57.8433 345.27 57.8285V55.7129L343.992 56.5406V57.8318H342.969V56.4744L341.659 55.7129V57.8318H338.876L339.771 59.4211C339.96 59.408 340.151 59.434 340.33 59.4972C340.42 59.5376 340.493 59.6077 340.538 59.6959C340.592 59.8838 340.613 60.0801 340.598 60.2753V66.0097C340.612 66.2038 340.592 66.3988 340.538 66.5858C340.496 66.6718 340.474 66.748 340.375 66.7944C340.276 66.8407 340.272 66.8374 339.998 66.8374H339.994L338.876 68.4266H341.656V70.5456H342.966V68.4266H343.989V70.5456H345.267V68.4134C345.914 68.4019 346.555 68.2867 347.165 68.0723C347.732 67.8697 348.228 67.5076 348.593 67.0294C348.912 66.5207 349.087 65.9347 349.098 65.3343C349.132 64.8487 349.073 64.3611 348.926 63.8974V63.8974ZM342.966 59.6198H342.966V59.5757H343.86C344.363 59.5757 346.038 59.4022 346.065 60.8196C346.094 62.237 343.86 62.1791 343.86 62.1791H342.966V62.0698H342.966V59.6198ZM342.966 63.659H343.989C344.196 63.659 344.911 63.6918 345.171 63.704C345.277 63.7081 345.382 63.7275 345.483 63.7617C345.52 63.7746 345.554 63.7891 345.592 63.8054C345.75 63.8584 345.899 63.9365 346.033 64.0365C346.121 64.0968 346.198 64.1719 346.261 64.2583C346.357 64.3987 346.428 64.5555 346.469 64.7211C346.5 64.837 346.516 64.9563 346.516 65.0761C346.527 65.3043 346.471 65.5307 346.357 65.7283C346.193 65.9908 345.952 66.1966 345.667 66.3176C345.135 66.5359 344.564 66.6451 343.989 66.6388H342.966V63.659Z" fill="#828282"/>
<path d="M454.94 271.434C458.632 271.434 461.626 268.438 461.626 264.742C461.626 261.047 458.632 258.051 454.94 258.051C451.247 258.051 448.254 261.047 448.254 264.742C448.254 268.438 451.247 271.434 454.94 271.434Z" fill="#FF6584"/>
<path d="M507.646 337.582V261.394" stroke="#B9B9B9" stroke-width="0.633928" stroke-miterlimit="10"/>
<path d="M507.647 272.168C513.592 272.168 518.412 267.344 518.412 261.394C518.412 255.443 513.592 250.62 507.647 250.62C501.702 250.62 496.882 255.443 496.882 261.394C496.882 267.344 501.702 272.168 507.647 272.168Z" fill="white"/>
<path d="M486.445 304.052C470.895 327.918 475.156 358.273 475.156 358.273C475.156 358.273 504.627 349.933 520.177 326.067C535.727 302.201 531.466 271.846 531.466 271.846C531.466 271.846 501.995 280.186 486.445 304.052Z" fill="#F7F7F7"/>
<path d="M475.073 357.995C475.073 357.995 474.694 357.935 473.998 357.794C473.442 357.681 472.677 357.52 471.742 357.298C463.39 355.327 441.186 348.665 426.668 331.149C408.498 309.215 409.263 278.572 409.263 278.572C409.263 278.572 437.046 283.09 455.353 302.787C456.146 303.633 456.918 304.511 457.668 305.419C473.478 324.503 474.952 350.18 475.069 356.528C475.085 357.479 475.073 357.995 475.073 357.995Z" fill="#F8F8F8"/>
<path d="M463.867 304.052C479.417 327.918 475.156 358.273 475.156 358.273C475.156 358.273 445.685 349.933 430.135 326.067C414.586 302.201 418.846 271.846 418.846 271.846C418.846 271.846 448.318 280.186 463.867 304.052Z" fill="white" stroke="#B9B9B9" stroke-width="0.633928" stroke-miterlimit="10"/>
<path opacity="0.1" d="M475.069 356.528C474.658 357.024 474.296 357.447 473.998 357.794C473.337 358.548 472.963 358.943 472.963 358.943C472.963 358.943 472.508 358.37 471.743 357.298C467.542 351.438 454.032 330.601 455.075 306.531C455.131 305.27 455.224 304.022 455.353 302.787C456.146 303.633 456.918 304.511 457.668 305.419C473.478 324.503 474.952 350.181 475.069 356.528Z" fill="black"/>
<path d="M498.124 308.271C496.895 336.737 475.783 358.942 475.783 358.942C475.783 358.942 456.663 334.997 457.892 306.531C459.121 278.066 480.233 255.86 480.233 255.86C480.233 255.86 499.353 279.806 498.124 308.271Z" fill="#F8F8F8"/>
<path d="M475.784 358.137L480.426 257.022" stroke="#B9B9B9" stroke-width="0.633928" stroke-miterlimit="10"/>
<path d="M32.7588 358.248H514.997" stroke="#828282" stroke-width="0.633928" stroke-miterlimit="10"/>
<path d="M135.18 234.934C148.631 234.934 159.536 224.02 159.536 210.557C159.536 197.095 148.631 186.181 135.18 186.181C121.728 186.181 110.823 197.095 110.823 210.557C110.823 224.02 121.728 234.934 135.18 234.934Z" fill="#39A798"/>
<path d="M93.7801 292.305C107.232 292.305 118.136 281.391 118.136 267.929C118.136 254.466 107.232 243.552 93.7801 243.552C80.3285 243.552 69.4238 254.466 69.4238 267.929C69.4238 281.391 80.3285 292.305 93.7801 292.305Z" fill="#39A798"/>
<path d="M42.828 338.122C56.2796 338.122 67.1843 327.208 67.1843 313.745C67.1843 300.282 56.2796 289.368 42.828 289.368C29.3764 289.368 18.4717 300.282 18.4717 313.745C18.4717 327.208 29.3764 338.122 42.828 338.122Z" fill="#39A798"/>
<path d="M42.8066 357.829V313.611" stroke="#F3F3F3" stroke-width="0.633928" stroke-miterlimit="10"/>
<path d="M42.8065 319.864C46.2571 319.864 49.0543 317.065 49.0543 313.611C49.0543 310.158 46.2571 307.358 42.8065 307.358C39.3559 307.358 36.5586 310.158 36.5586 313.611C36.5586 317.065 39.3559 319.864 42.8065 319.864Z" fill="white"/>
<path d="M42.8071 340.864C42.8071 340.864 41.9145 321.65 23.6172 323.884Z" fill="white"/>
<path d="M135.196 358.14V210.647" stroke="#F3F3F3" stroke-width="0.633928" stroke-miterlimit="10"/>
<path d="M135.195 216.83C138.646 216.83 141.443 214.031 141.443 210.577C141.443 207.124 138.646 204.324 135.195 204.324C131.745 204.324 128.947 207.124 128.947 210.577C128.947 214.031 131.745 216.83 135.195 216.83Z" fill="white"/>
<path d="M116.006 323.542C119.456 323.542 122.254 320.742 122.254 317.289C122.254 313.835 119.456 311.036 116.006 311.036C112.555 311.036 109.758 313.835 109.758 317.289C109.758 320.742 112.555 323.542 116.006 323.542Z" fill="white"/>
<path d="M135.197 242.518C135.197 242.518 134.304 223.305 116.007 225.539Z" fill="#FEFEFE"/>
<path d="M135.197 296.986C135.197 296.986 134.304 277.773 116.007 280.006Z" fill="#FEFEFE"/>
<path d="M135.197 356.421C135.197 356.421 139.213 319.076 116.007 317.289" stroke="#E9E9E9" stroke-width="0.633928" stroke-miterlimit="10"/>
<path d="M154.388 323.542C157.838 323.542 160.635 320.742 160.635 317.289C160.635 313.835 157.838 311.036 154.388 311.036C150.937 311.036 148.14 313.835 148.14 317.289C148.14 320.742 150.937 323.542 154.388 323.542Z" fill="white"/>
<path d="M135.197 356.421C135.197 356.421 131.181 319.076 154.387 317.289" stroke="#E9E9E9" stroke-width="0.633928" stroke-miterlimit="10"/>
<path d="M154.77 264.886C158.221 264.886 161.018 262.086 161.018 258.633C161.018 255.179 158.221 252.379 154.77 252.379C151.32 252.379 148.522 255.179 148.522 258.633C148.522 262.086 151.32 264.886 154.77 264.886Z" fill="white"/>
<path d="M135.58 295.772C135.58 295.772 131.564 260.419 154.77 258.632" stroke="#F3F3F3" stroke-width="0.633928" stroke-miterlimit="10"/>
<path d="M93.8037 357.932V267.901" stroke="#F3F3F3" stroke-width="0.633928" stroke-miterlimit="10"/>
<path d="M93.8035 274.154C97.2541 274.154 100.051 271.355 100.051 267.901C100.051 264.448 97.2541 261.648 93.8035 261.648C90.3529 261.648 87.5557 264.448 87.5557 267.901C87.5557 271.355 90.3529 274.154 93.8035 274.154Z" fill="white"/>
<path d="M93.8041 293.367C93.8041 293.367 92.9116 274.154 74.6143 276.388Z" fill="#FEFEFE"/>
<path d="M93.8041 356.213C93.8041 356.213 97.8206 319.266 74.6143 317.479" stroke="#F3F3F3" stroke-width="0.633928" stroke-miterlimit="10"/>
<path d="M74.6131 323.733C78.0637 323.733 80.861 320.933 80.861 317.48C80.861 314.026 78.0637 311.227 74.6131 311.227C71.1625 311.227 68.3652 314.026 68.3652 317.48C68.3652 320.933 71.1625 323.733 74.6131 323.733Z" fill="white"/>
<path d="M436.899 221.154C442.565 221.154 447.159 216.557 447.159 210.885C447.159 205.214 442.565 200.617 436.899 200.617C431.232 200.617 426.639 205.214 426.639 210.885C426.639 216.557 431.232 221.154 436.899 221.154Z" fill="#F2F2F2"/>
<path opacity="0.1" d="M328.33 285.79C315.243 291.746 298.388 291.324 298.388 291.324H280.147V287.839C287.58 285.762 297.858 284.478 309.218 284.478C315.612 284.456 321.999 284.895 328.33 285.79V285.79Z" fill="black"/>
<path opacity="0.1" d="M350.259 295.889C350.259 302.193 331.882 307.298 309.218 307.298C286.555 307.298 268.178 302.193 268.178 295.889C268.178 292.745 272.749 289.899 280.148 287.839V291.325H298.388C298.388 291.325 315.243 291.747 328.331 285.791C341.367 287.696 350.259 291.502 350.259 295.889Z" fill="black"/>
<path d="M314.462 224.846H297V242.354H314.462V224.846Z" fill="#2F2E41"/>
<path d="M303.491 237.226C303.491 237.226 304.937 242.289 302.407 242.651C300.838 242.896 299.35 243.516 298.071 244.459L302.769 250.607H311.441L316.861 245.183C316.861 245.183 309.634 239.758 311.08 236.503C312.525 233.248 303.491 237.226 303.491 237.226Z" fill="#FFB9B9"/>
<path opacity="0.1" d="M303.491 237.226C303.491 237.226 304.937 242.289 302.407 242.651C300.838 242.896 299.35 243.516 298.071 244.459L302.769 250.607H311.441L316.861 245.183C316.861 245.183 309.634 239.758 311.08 236.503C312.525 233.248 303.491 237.226 303.491 237.226Z" fill="black"/>
<path d="M305.659 300.154L313.97 303.047L319.751 303.409L319.39 298.346L307.466 294.816L305.659 300.154Z" fill="#FFB9B9"/>
<path d="M316.319 299.068C316.319 299.068 316.319 304.131 317.042 304.131C317.765 304.131 327.521 303.047 330.412 304.131C333.303 305.216 337.639 301.238 335.471 299.068C333.303 296.899 329.766 293.644 327.56 294.367C325.353 295.09 316.319 296.899 316.319 296.899L316.319 299.068Z" fill="#2F2E41"/>
<path d="M289.761 294.367C289.761 294.367 285.425 303.047 288.316 303.77C291.207 304.493 294.459 303.408 294.82 303.047C295.182 302.685 300.24 301.239 300.963 301.962C301.686 302.685 301.686 299.069 301.686 299.069L289.761 294.367Z" fill="#2F2E41"/>
<path d="M293.373 282.433C293.373 282.433 286.508 291.836 291.567 294.368C296.626 296.899 320.836 296.899 322.642 294.368C324.449 291.836 325.172 283.88 322.642 283.156C320.113 282.433 293.373 282.433 293.373 282.433Z" fill="#2F2E41"/>
<path opacity="0.2" d="M293.373 282.433C293.373 282.433 286.508 291.836 291.567 294.368C296.626 296.899 320.836 296.899 322.642 294.368C324.449 291.836 325.172 283.88 322.642 283.156C320.113 282.433 293.373 282.433 293.373 282.433Z" fill="black"/>
<path d="M306.382 239.758C310.972 239.758 314.693 236.034 314.693 231.441C314.693 226.847 310.972 223.123 306.382 223.123C301.792 223.123 298.071 226.847 298.071 231.441C298.071 236.034 301.792 239.758 306.382 239.758Z" fill="#FFB9B9"/>
<path d="M293.375 244.46L300.602 243.013C300.602 243.013 302.409 248.8 308.19 247.715C313.972 246.63 315.417 243.013 315.417 243.013C315.417 243.013 319.753 244.821 320.115 244.821C320.476 244.821 325.173 246.63 325.173 247.715C325.173 248.8 319.753 259.649 319.753 259.649L320.476 279.178L293.736 278.455L295.543 259.287L293.375 244.46Z" fill="#828282"/>
<path d="M289.399 253.862C289.399 253.862 287.231 273.03 288.677 274.476C290.122 275.923 295.903 279.901 295.903 279.901V275.561L293.013 270.137L295.903 257.479L289.399 253.862Z" fill="#FFB9B9"/>
<path d="M326.799 253.32C326.799 253.32 325.534 273.03 325.534 273.754C325.534 274.477 322.282 277.008 321.198 277.008C320.114 277.008 319.392 275.2 319.392 275.2L321.921 272.307L320.114 257.479L326.799 253.32Z" fill="#FFB9B9"/>
<path d="M323.365 280.986C323.365 280.986 339.626 271.945 339.987 280.986C340.349 290.027 331.676 293.644 331.676 293.644C331.676 293.644 309.273 300.367 308.37 297.91C307.466 295.452 305.659 291.474 307.105 291.112C308.55 290.751 310.357 290.027 311.08 290.751C311.802 291.474 320.836 285.326 320.836 285.326L323.365 280.986Z" fill="#2F2E41"/>
<path opacity="0.2" d="M330.955 279.901C330.955 279.901 327.703 281.348 326.618 282.433C325.534 283.518 320.837 285.326 320.837 285.326" stroke="black" stroke-width="0.633928" stroke-miterlimit="10"/>
<path d="M295.542 245.183L293.374 244.46C293.374 244.46 285.425 252.778 287.954 254.948C290.483 257.118 291.929 257.841 292.651 258.564C293.374 259.288 296.988 259.649 296.988 259.649L295.542 245.183Z" fill="#828282"/>
<path d="M321.921 246.991L325.173 247.714C325.173 247.714 327.703 253.139 328.425 253.862C329.148 254.585 327.341 254.224 326.257 255.67C325.173 257.117 324.089 259.649 321.921 259.649C319.753 259.649 316.862 256.032 316.862 256.032L321.921 246.991Z" fill="#828282"/>
<path d="M294.098 284.241C294.098 284.241 280.366 274.477 275.669 281.71C270.971 288.943 295.904 298.707 299.518 300.154C303.131 301.6 306.383 303.047 306.383 303.047C306.383 303.047 309.636 295.091 309.636 293.644C309.636 292.197 307.106 292.197 306.383 292.197C305.661 292.197 302.409 291.474 301.686 290.389C300.963 289.304 294.098 284.241 294.098 284.241Z" fill="#2F2E41"/>
<path opacity="0.2" d="M286.51 281.709C286.51 281.709 290.123 284.603 293.375 285.326C296.627 286.049 297.712 287.858 297.712 287.858" stroke="black" stroke-width="0.633928" stroke-miterlimit="10"/>
<path d="M291.604 268.112L291.893 283.424C291.902 283.93 292.111 284.411 292.474 284.764C292.836 285.116 293.324 285.31 293.829 285.305L322.301 284.985C322.786 284.979 323.251 284.79 323.602 284.454C323.952 284.119 324.163 283.663 324.191 283.178L325.055 268.186C325.07 267.925 325.032 267.664 324.943 267.419C324.853 267.174 324.715 266.95 324.536 266.76C324.357 266.57 324.141 266.419 323.902 266.315C323.662 266.212 323.404 266.159 323.143 266.159H293.519C293.264 266.159 293.012 266.209 292.778 266.308C292.543 266.407 292.33 266.551 292.152 266.733C291.973 266.915 291.833 267.13 291.739 267.367C291.645 267.604 291.599 267.857 291.604 268.112V268.112Z" fill="#39A798"/>
<path d="M288.311 244.551C289.086 242.838 290.129 241.231 290.625 239.417C291.22 237.244 290.989 234.944 290.918 232.692C290.805 230.7 290.974 228.702 291.421 226.757C291.876 224.803 292.895 223.027 294.353 221.65C298.139 218.266 305.07 218.023 309.694 219.432C311.517 219.987 313.458 221.045 313.91 222.897C313.979 223.177 314.009 223.465 314.085 223.743C314.464 225.122 315.874 225.995 316.383 227.332C317.041 229.061 316.026 230.941 315.893 232.786C315.739 234.941 316.797 236.976 317.84 238.867C318.46 239.991 319.105 241.189 319.043 242.471C318.992 243.173 318.779 243.853 318.42 244.458C317.756 245.556 316.824 246.466 315.711 247.104C314.599 247.742 313.343 248.087 312.061 248.106C311.228 248.173 310.395 247.976 309.679 247.544C308.551 246.766 308.22 245.2 308.456 243.849C308.691 242.498 309.376 241.276 309.913 240.015C310.077 239.628 310.226 239.234 310.363 238.836C312.028 237.906 313.311 236.417 313.985 234.633C314.659 232.848 314.682 230.882 314.049 229.082C313.415 227.282 312.167 225.764 310.524 224.796C308.881 223.828 306.949 223.472 305.07 223.791C303.19 224.11 301.483 225.084 300.251 226.54C299.019 227.996 298.341 229.841 298.336 231.75C298.331 233.658 299 235.506 300.225 236.969C301.45 238.431 303.151 239.413 305.029 239.742C305.434 241.783 305.25 243.897 304.499 245.837C303.816 247.416 302.958 248.913 301.942 250.3C301.526 251.011 300.972 251.632 300.312 252.125C299.877 252.383 299.411 252.582 298.924 252.718C296.883 253.375 294.734 253.904 292.61 253.608C290.487 253.313 288.384 252.031 287.66 250.011C287.026 248.241 287.536 246.263 288.311 244.551Z" fill="#2F2E41"/>
<path d="M305.98 231.772C310.851 231.772 314.8 229.532 314.8 226.769C314.8 224.007 310.851 221.767 305.98 221.767C301.109 221.767 297.16 224.007 297.16 226.769C297.16 229.532 301.109 231.772 305.98 231.772Z" fill="#2F2E41"/>
<path opacity="0.3" d="M440.737 211.482C440.603 211.15 440.356 210.876 440.039 210.708C439.842 210.593 439.63 210.506 439.408 210.451C439.558 210.379 439.694 210.283 439.813 210.168C439.99 210.003 440.123 209.797 440.201 209.568C440.273 209.334 440.302 209.088 440.287 208.843C440.286 208.436 440.173 208.037 439.96 207.69C439.722 207.373 439.398 207.132 439.026 206.996C438.665 206.855 438.283 206.778 437.896 206.767V205.123L436.903 205.766V206.769H436.108V205.714L435.09 205.123V206.769H432.928L433.623 208.004C433.77 207.994 433.918 208.014 434.058 208.063C434.127 208.095 434.184 208.149 434.219 208.218C434.261 208.364 434.277 208.516 434.266 208.668V213.124C434.277 213.275 434.261 213.426 434.219 213.571C434.187 213.638 434.169 213.698 434.092 213.734C434.015 213.77 434.013 213.767 433.799 213.767H433.797L432.928 215.002H435.088V216.648H436.106V215.002H436.901V216.648H437.894V214.992C438.396 214.983 438.894 214.893 439.369 214.727C439.809 214.569 440.194 214.288 440.479 213.916C440.726 213.521 440.862 213.066 440.871 212.599C440.897 212.222 440.852 211.843 440.737 211.482V211.482ZM436.106 208.158H436.106V208.124H436.801C437.191 208.124 438.493 207.989 438.514 209.091C438.536 210.192 436.801 210.147 436.801 210.147H436.106V210.062H436.106V208.158ZM436.106 211.297H436.901C437.062 211.297 437.617 211.323 437.819 211.332C437.902 211.335 437.984 211.35 438.062 211.377C438.09 211.387 438.117 211.398 438.147 211.411C438.27 211.452 438.385 211.513 438.489 211.59C438.557 211.637 438.617 211.696 438.666 211.763C438.741 211.872 438.796 211.994 438.828 212.123C438.852 212.213 438.864 212.305 438.865 212.398C438.873 212.576 438.83 212.752 438.741 212.905C438.613 213.109 438.426 213.269 438.205 213.363C437.791 213.533 437.348 213.618 436.901 213.613H436.106V211.297Z" fill="#828282"/>
<path d="M36.7543 257.095C42.4208 257.095 47.0144 252.498 47.0144 246.826C47.0144 241.155 42.4208 236.558 36.7543 236.558C31.0878 236.558 26.4941 241.155 26.4941 246.826C26.4941 252.498 31.0878 257.095 36.7543 257.095Z" fill="#F2F2F2"/>
<path opacity="0.3" d="M40.5914 247.423C40.4571 247.091 40.21 246.816 39.8937 246.648C39.6968 246.533 39.4844 246.446 39.263 246.391C39.4122 246.319 39.5489 246.224 39.6677 246.108C39.8446 245.944 39.9777 245.738 40.0551 245.509C40.1272 245.274 40.1567 245.028 40.142 244.783C40.1407 244.376 40.0273 243.977 39.8142 243.631C39.5765 243.314 39.2522 243.073 38.8806 242.936C38.5198 242.796 38.1377 242.718 37.7508 242.707V241.063L36.7576 241.706V242.71H35.963V241.655L34.945 241.063V242.71H32.7822L33.4775 243.944C33.6248 243.934 33.7727 243.954 33.912 244.004C33.982 244.035 34.0389 244.089 34.0734 244.158C34.1158 244.304 34.1318 244.457 34.1206 244.608V249.064C34.1314 249.215 34.1154 249.367 34.0734 249.512C34.0411 249.579 34.0238 249.638 33.9468 249.674C33.8698 249.71 33.8673 249.707 33.6538 249.707H33.6513L32.7822 250.942H34.9425V252.589H35.9605V250.942H36.7551V252.589H37.7483V250.932C38.251 250.923 38.7489 250.834 39.2233 250.667C39.6636 250.51 40.049 250.228 40.3332 249.857C40.581 249.461 40.7166 249.006 40.7255 248.539C40.7517 248.162 40.7062 247.783 40.5914 247.423ZM35.9606 244.099H35.9608V244.065H36.6551C37.0457 244.065 38.3473 243.93 38.3689 245.031C38.3907 246.133 36.6551 246.088 36.6551 246.088H35.9608V246.003H35.9605L35.9606 244.099ZM35.9606 247.238H36.7551C36.9165 247.238 37.4718 247.263 37.6739 247.273C37.7564 247.276 37.838 247.291 37.9162 247.317C37.9448 247.327 37.9718 247.339 38.0011 247.351C38.1241 247.393 38.2397 247.453 38.3436 247.531C38.412 247.578 38.4719 247.636 38.5206 247.703C38.5959 247.812 38.6508 247.934 38.6827 248.063C38.7064 248.153 38.7187 248.246 38.7192 248.339C38.7274 248.516 38.6844 248.692 38.5953 248.846C38.4678 249.05 38.2808 249.209 38.0595 249.304C37.6457 249.473 37.2022 249.558 36.7551 249.553H35.9605L35.9606 247.238Z" fill="#828282"/>
</g>
<defs>
<clipPath id="clip0_1450_403">
<rect width="532" height="359" fill="white"/>
</clipPath>
</defs>
</svg>
