<svg width="60" height="60" viewBox="0 0 60 60" fill="none" xmlns="http://www.w3.org/2000/svg">
<path d="M56.4858 17.7523H3.51392C5.85221 12.692 9.58874 8.40728 14.2821 5.40429C18.9754 2.4013 24.4295 0.805542 29.9999 0.805542C35.5703 0.805542 41.0243 2.4013 45.7177 5.40429C50.411 8.40728 54.1476 12.692 56.4859 17.7523H56.4858Z" fill="#E6E6E6"/>
<path d="M30 59.3644C13.8232 59.3644 0.662443 46.192 0.662443 30.0011C0.651875 25.7466 1.57332 21.5415 3.36188 17.6819C5.71311 12.592 9.47093 8.28202 14.1913 5.26134C18.9117 2.24066 24.3973 0.635489 30 0.635498C35.6027 0.635507 41.0883 2.2407 45.8087 5.26139C50.5291 8.28208 54.2869 12.592 56.6381 17.682C58.4267 21.5415 59.3481 25.7466 59.3375 30.0011C59.3375 46.192 46.1768 59.3644 30 59.3644ZM30 0.973434C24.464 0.984851 19.0462 2.57609 14.3819 5.5605C9.71759 8.5449 6.00033 12.7987 3.66616 17.8229C1.8981 21.6383 0.987241 25.7953 0.99773 30.0011C0.99773 46.007 14.0081 59.0288 30 59.0288C45.9919 59.0288 59.0022 46.007 59.0022 30.0011C59.0127 25.7953 58.1019 21.6384 56.3338 17.823C53.9997 12.7988 50.2824 8.54495 45.6181 5.56052C40.9538 2.5761 35.5359 0.984852 30 0.973434Z" fill="#151515"/>
<path d="M40.7764 14.6019H19.0766C18.9434 14.6021 18.8114 14.5759 18.6883 14.525C18.5651 14.4741 18.4532 14.3994 18.3589 14.3052C18.2646 14.2109 18.1898 14.099 18.1388 13.9758C18.0878 13.8526 18.0615 13.7206 18.0615 13.5872C18.0615 13.4538 18.0878 13.3218 18.1388 13.1986C18.1898 13.0754 18.2646 12.9635 18.3589 12.8692C18.4532 12.775 18.5651 12.7003 18.6883 12.6494C18.8114 12.5985 18.9434 12.5723 19.0766 12.5725H40.7764C40.9096 12.5723 41.0416 12.5985 41.1648 12.6494C41.2879 12.7003 41.3998 12.775 41.4941 12.8692C41.5884 12.9635 41.6632 13.0754 41.7142 13.1986C41.7652 13.3218 41.7915 13.4538 41.7915 13.5872C41.7915 13.7206 41.7652 13.8526 41.7142 13.9758C41.6632 14.099 41.5884 14.2109 41.4941 14.3052C41.3998 14.3994 41.2879 14.4741 41.1648 14.525C41.0416 14.5759 40.9096 14.6021 40.7764 14.6019Z" fill="#151515"/>
<path d="M33.8193 10.2393H26.0339C25.9007 10.2395 25.7687 10.2134 25.6455 10.1625C25.5224 10.1116 25.4105 10.0368 25.3162 9.9426C25.2219 9.84836 25.1471 9.73645 25.0961 9.61325C25.0451 9.49006 25.0188 9.35801 25.0188 9.22465C25.0188 9.09129 25.0451 8.95924 25.0961 8.83604C25.1471 8.71285 25.2219 8.60093 25.3162 8.50669C25.4105 8.41246 25.5224 8.33774 25.6455 8.28683C25.7687 8.23591 25.9007 8.20979 26.0339 8.20996H33.8193C33.9525 8.20979 34.0845 8.23591 34.2077 8.28683C34.3308 8.33774 34.4427 8.41246 34.537 8.50669C34.6313 8.60093 34.7061 8.71285 34.7571 8.83604C34.8081 8.95924 34.8344 9.09129 34.8344 9.22465C34.8344 9.35801 34.8081 9.49006 34.7571 9.61325C34.7061 9.73645 34.6313 9.84836 34.537 9.9426C34.4427 10.0368 34.3308 10.1116 34.2077 10.1625C34.0845 10.2134 33.9525 10.2395 33.8193 10.2393Z" fill="#151515"/>
<path d="M19.0984 27.8856L18.4436 27.6711C16.1065 26.8824 14.5711 26.3788 14.0242 25.1449C13.918 24.9163 13.8579 24.6689 13.8472 24.4169C13.8365 24.165 13.8755 23.9134 13.962 23.6766C14.0484 23.4397 14.1807 23.2222 14.3511 23.0365C14.5216 22.8508 14.7269 22.7005 14.9554 22.5942C14.9722 22.5864 14.9891 22.5788 15.0062 22.5715C15.2837 22.45 15.5842 22.3905 15.887 22.397C16.1898 22.4035 16.4875 22.4758 16.7595 22.6091C16.8434 22.3178 16.9896 22.0483 17.188 21.8193C17.3864 21.5903 17.6322 21.4072 17.9084 21.2828C18.3711 21.0709 18.899 21.0517 19.3758 21.2294C19.8527 21.4071 20.2395 21.7671 20.4512 22.2302C20.4589 22.2471 20.4664 22.2641 20.4736 22.2812C21.0205 23.515 20.3632 24.9923 19.3789 27.2558L19.0984 27.8856Z" fill="#FF6584"/>
<path d="M39.2595 47.1909H20.427C19.8434 47.1902 19.2839 46.9579 18.8713 46.5448C18.4586 46.1318 18.2265 45.5718 18.2258 44.9877V32.9929C18.2265 32.4088 18.4586 31.8488 18.8713 31.4358C19.2839 31.0228 19.8434 30.7905 20.427 30.7898H39.2595C39.8431 30.7905 40.4026 31.0228 40.8153 31.4358C41.2279 31.8488 41.46 32.4088 41.4607 32.9929V44.9877C41.46 45.5718 41.2279 46.1318 40.8153 46.5448C40.4026 46.9579 39.8431 47.1902 39.2595 47.1909ZM20.427 31.2794C19.9731 31.2799 19.538 31.4606 19.217 31.7818C18.896 32.1031 18.7155 32.5386 18.715 32.9929V44.9877C18.7155 45.442 18.896 45.8776 19.217 46.1988C19.538 46.5201 19.9731 46.7008 20.427 46.7013H39.2595C39.7134 46.7008 40.1486 46.5201 40.4695 46.1988C40.7905 45.8776 40.971 45.442 40.9716 44.9877V32.9929C40.971 32.5386 40.7905 32.1031 40.4695 31.7818C40.1486 31.4606 39.7134 31.2799 39.2595 31.2794H20.427Z" fill="#151515"/>
<path d="M29.7422 38.8819C29.239 38.8829 28.7476 38.7291 28.3345 38.4412L18.8848 31.8286L19.165 31.4275L28.6148 38.0401C28.9416 38.2668 29.3289 38.3897 29.7265 38.3929C30.1241 38.396 30.5133 38.2791 30.8436 38.0576L40.5715 31.4749L40.8455 31.8806L31.1175 38.4632C30.7111 38.737 30.2321 38.8828 29.7422 38.8819Z" fill="#151515"/>
<path d="M29.7211 41.8057C31.342 41.8057 32.656 40.4905 32.656 38.8682C32.656 37.2458 31.342 35.9307 29.7211 35.9307C28.1001 35.9307 26.7861 37.2458 26.7861 38.8682C26.7861 40.4905 28.1001 41.8057 29.7211 41.8057Z" fill="#151515"/>
</svg>
