<svg width="537" height="458" viewBox="0 0 537 458" fill="none" xmlns="http://www.w3.org/2000/svg">
<path d="M121.885 358.451L127.629 325.421L94.5891 331.163L102.214 338.836L88.3369 352.708L100.333 364.701L114.21 350.828L121.885 358.451Z" fill="white"/>
<path d="M394.371 34.013L427.462 39.755L421.718 6.72541L414.043 14.3984L400.166 0.526001L388.17 12.5183L402.047 26.3908L394.371 34.013Z" fill="white"/>
<path d="M93.5525 31.0912H270.139C283.762 31.0912 294.792 42.1181 294.792 55.7873V262.045C294.792 275.663 283.762 286.69 270.139 286.69H93.5525C79.9297 286.69 68.8994 275.663 68.8994 262.045V55.7873C68.8994 42.1689 79.9297 31.0912 93.5525 31.0912Z" fill="#39A798"/>
<path opacity="0.2" d="M415.18 94.6353H524.721C531.05 94.6353 536.209 99.798 536.209 106.124V170.456C536.209 176.788 531.05 181.945 524.721 181.945H415.18C408.852 181.945 403.688 176.788 403.688 170.456V106.124C403.688 99.798 408.852 94.6353 415.18 94.6353Z" fill="#020202"/>
<path d="M405.254 84.7111H514.789C521.118 84.7111 526.282 89.8688 526.282 96.1952V160.527C526.282 166.858 521.118 172.016 514.789 172.016H405.254C398.92 172.016 393.761 166.858 393.761 160.527V96.1952C393.761 89.8688 398.92 84.7111 405.254 84.7111Z" fill="#BDBDBD"/>
<path d="M526.323 101.399H393.761V119.824H526.323V101.399Z" fill="#020202"/>
<path d="M417.305 144.317H434.39C438.207 144.317 441.287 147.396 441.287 151.253C441.287 155.069 438.207 158.189 434.39 158.189H417.305C413.488 158.189 410.413 155.11 410.413 151.253C410.367 147.396 413.488 144.317 417.305 144.317Z" fill="white"/>
<path d="M499.22 158.103C505.02 158.103 509.717 153.408 509.717 147.61C509.717 141.822 505.02 137.121 499.22 137.121C493.425 137.121 488.729 141.822 488.729 147.61C488.729 153.408 493.425 158.103 499.22 158.103Z" fill="#39A798"/>
<path d="M485.648 158.103C491.443 158.103 496.144 153.408 496.144 147.61C496.144 141.822 491.443 137.121 485.648 137.121C479.848 137.121 475.156 141.822 475.156 147.61C475.156 153.408 479.848 158.103 485.648 158.103Z" fill="#39A798"/>
<path d="M169.353 451.807V447.859C169.353 444.714 171.879 442.193 175.02 442.193C178.167 442.193 180.688 444.714 180.688 447.859V451.807C180.688 454.953 178.167 457.473 175.02 457.473C171.879 457.524 169.353 454.953 169.353 451.807Z" fill="black"/>
<path d="M235.794 451.807V447.859C235.794 444.714 238.32 442.193 241.462 442.193C244.608 442.193 247.129 444.714 247.129 447.859V451.807C247.129 454.953 244.608 457.473 241.462 457.473C238.366 457.524 235.794 454.953 235.794 451.807Z" fill="black"/>
<path d="M168.829 331.823H247.277C257.992 331.823 266.659 340.487 266.659 351.204V429.622C266.659 440.333 257.992 449.002 247.277 449.002H168.829C158.114 449.002 149.447 440.333 149.447 429.622V351.204C149.447 340.487 158.114 331.823 168.829 331.823Z" fill="#BDBDBD"/>
<path opacity="0.2" d="M208.03 418.91C220.6 418.91 230.792 408.722 230.792 396.15C230.792 383.579 220.6 373.39 208.03 373.39C195.454 373.39 185.263 383.579 185.263 396.15C185.263 408.722 195.454 418.91 208.03 418.91Z" fill="black"/>
<path d="M172.21 351.489H243.795C245.513 351.489 246.896 352.871 246.896 354.583V426.146C246.896 427.858 245.513 429.24 243.795 429.24H172.21C170.497 429.24 169.114 427.858 169.114 426.146V354.583C169.114 352.871 170.497 351.489 172.21 351.489Z" stroke="black" stroke-width="1.77107"/>
<path d="M208.03 413.148C220.6 413.148 230.792 402.959 230.792 390.388C230.792 377.816 220.6 367.628 208.03 367.628C195.454 367.628 185.263 377.816 185.263 390.388C185.263 402.959 195.454 413.148 208.03 413.148Z" fill="#EBEBEB"/>
<path d="M208.03 398.147C212.315 398.147 215.792 394.671 215.792 390.387C215.792 386.104 212.315 382.628 208.03 382.628C203.74 382.628 200.263 386.104 200.263 390.387C200.263 394.671 203.74 398.147 208.03 398.147Z" fill="black"/>
<path d="M167.162 366.103H171.117C174.258 366.103 176.785 368.629 176.785 371.769C176.785 374.914 174.258 377.44 171.117 377.44H167.162C164.021 377.44 161.495 374.914 161.495 371.769C161.449 368.674 164.021 366.103 167.162 366.103Z" fill="black"/>
<path d="M167.162 403.289H171.117C174.258 403.289 176.785 405.815 176.785 408.955C176.785 412.101 174.258 414.621 171.117 414.621H167.162C164.021 414.621 161.495 412.101 161.495 408.955C161.449 405.815 164.021 403.289 167.162 403.289Z" fill="black"/>
<path d="M103.522 88.3952H263.639C265.317 88.3952 266.689 89.7672 266.689 91.4441C266.689 93.121 265.317 94.493 263.639 94.493H103.522C101.844 94.493 100.472 93.121 100.472 91.4441C100.472 89.7672 101.844 88.3952 103.522 88.3952Z" fill="white"/>
<path d="M225.16 105.317C232.881 105.317 239.139 99.0612 239.139 91.3424C239.139 83.6237 232.881 77.3683 225.16 77.3683C217.439 77.3683 211.182 83.6237 211.182 91.3424C211.182 99.0612 217.439 105.317 225.16 105.317Z" fill="#231F20"/>
<path d="M103.317 151.659H263.435C265.113 151.659 266.485 153.031 266.485 154.708C266.485 156.385 265.113 157.757 263.435 157.757H103.317C101.64 157.757 100.268 156.385 100.268 154.708C100.268 153.031 101.64 151.659 103.317 151.659Z" fill="white"/>
<path opacity="0.2" d="M179.869 173.815C187.59 173.815 193.848 167.56 193.848 159.841C193.848 152.122 187.59 145.867 179.869 145.867C172.148 145.867 165.891 152.122 165.891 159.841C165.891 167.56 172.148 173.815 179.869 173.815Z" fill="#423615"/>
<path d="M179.869 168.835C187.59 168.835 193.848 162.58 193.848 154.861C193.848 147.142 187.59 140.887 179.869 140.887C172.148 140.887 165.891 147.142 165.891 154.861C165.891 162.58 172.148 168.835 179.869 168.835Z" fill="#BDBDBD"/>
<path d="M132.306 248.65C140.21 240.743 140.21 227.933 132.306 220.031C124.402 212.13 111.587 212.13 103.678 220.031C95.7739 227.933 95.7739 240.743 103.678 248.65C111.587 256.552 124.402 256.552 132.306 248.65Z" fill="white"/>
<path d="M118.073 222.13V225.854" stroke="#231F20" stroke-width="1.77107" stroke-linecap="round" stroke-linejoin="round"/>
<path d="M118.073 242.837V246.556" stroke="#231F20" stroke-width="1.77107" stroke-linecap="round" stroke-linejoin="round"/>
<path d="M121.926 225.93H116.472C114.347 225.93 112.619 227.658 112.619 229.782C112.619 231.49 113.748 232.983 115.369 233.481L120.508 235.001C122.216 235.499 123.37 237.069 123.37 238.827C123.37 241.027 121.586 242.811 119.385 242.811H113.534" stroke="#231F20" stroke-width="1.77107" stroke-linecap="round" stroke-linejoin="round"/>
<path d="M183.885 255.972C195.449 255.972 204.827 246.602 204.827 235.036C204.827 223.476 195.449 214.101 183.885 214.101C172.321 214.101 162.942 223.476 162.942 235.036C162.942 246.602 172.321 255.972 183.885 255.972Z" fill="white"/>
<path d="M176.617 227.109L183.734 234.223L190.85 227.109" stroke="black" stroke-width="1.77107" stroke-linecap="round" stroke-linejoin="round"/>
<path d="M183.731 234.223V243.929" stroke="black" stroke-width="1.77107" stroke-linecap="round" stroke-linejoin="round"/>
<path d="M179.665 235.798H187.798" stroke="black" stroke-width="1.77107" stroke-linecap="round" stroke-linejoin="round"/>
<path d="M247.016 255.972C258.58 255.972 267.958 246.602 267.958 235.036C267.958 223.476 258.58 214.101 247.016 214.101C235.452 214.101 226.073 223.476 226.073 235.036C226.073 246.602 235.452 255.972 247.016 255.972Z" fill="#BDBDBD"/>
<path d="M245.186 243.929V227.16H250.523C252.912 227.16 254.843 229.091 254.843 231.479C254.843 233.868 252.912 235.799 250.523 235.799H242.136" stroke="#1D1A11" stroke-width="1.77107" stroke-linecap="round" stroke-linejoin="round"/>
<path d="M242.136 240.067H248.744" stroke="#1D1A11" stroke-width="1.77107" stroke-linecap="round" stroke-linejoin="round"/>
<path opacity="0.2" d="M47.8098 121.567C30.5273 138.336 7.65332 136.303 7.65332 136.303V179.496C7.65332 211.001 41.2018 223.705 47.8098 223.705C54.4179 223.705 87.9663 211.001 87.9663 179.496V136.303C87.9663 136.303 65.0924 138.336 47.8098 121.567Z" fill="#939393"/>
<path d="M40.9475 115.317C23.665 132.086 0.791016 130.053 0.791016 130.053V173.246C0.791016 204.751 34.3395 217.455 40.9475 217.455C47.5556 217.455 81.104 204.751 81.104 173.246V130.053C81.104 130.053 58.2301 132.086 40.9475 115.317Z" fill="white"/>
<path d="M40.9482 187.322C52.5174 187.322 61.8906 177.951 61.8906 166.386C61.8906 154.826 52.5174 145.45 40.9482 145.45C29.3842 145.45 20.0059 154.826 20.0059 166.386C20.0059 177.951 29.3842 187.322 40.9482 187.322Z" fill="#BDBDBD"/>
<path d="M34.0859 165.624L39.6773 171.213L47.8103 161.558" stroke="#020202" stroke-width="1.77107" stroke-linecap="round" stroke-linejoin="round"/>
<path d="M490.833 431.415L429.587 457.234C429.536 457.234 429.536 457.234 429.536 457.184C428.672 454.851 428.265 452.366 428.316 449.932L428.519 449.272L489.613 423.605C489.664 423.605 489.765 424.062 489.765 424.062C490.68 428.626 490.884 431.06 490.833 431.415C490.884 431.415 490.884 431.415 490.833 431.415Z" fill="#BDBDBD"/>
<path d="M489.764 424.012C488.295 416.044 486.262 408.081 484.03 400.271C483.624 398.95 483.171 397.431 482.714 396.008L482.663 395.957L458.254 396.313L438.415 403.869C438.364 403.869 438.364 403.92 438.364 403.92C440.036 407.218 441.459 410.871 442.369 414.423C443.132 417.569 443.233 420.206 442.471 422.386C438.516 433.494 428.772 439.632 428.314 449.882L489.764 424.012Z" fill="#231F20"/>
<path d="M371.334 457.285H304.807C304.756 457.285 304.756 457.285 304.756 457.235C304.858 454.801 305.518 452.316 306.586 450.085C306.586 450.085 306.586 450.034 306.637 450.034L341.446 447.143L373.21 450.034C373.261 450.034 373.261 450.085 373.261 450.085C372.244 454.597 371.487 456.98 371.334 457.285C371.385 457.285 371.385 457.285 371.334 457.285Z" fill="#BDBDBD"/>
<path d="M333.938 414.677C333.887 414.677 333.887 414.677 333.938 414.677C333.938 419.545 333.48 423.605 332.367 426.649C331.91 427.965 331.198 429.185 330.288 430.247C322.369 438.977 310.952 440.75 306.591 450.034H373.266C374.938 442.27 376.361 434.612 377.226 426.802C377.327 425.836 377.48 424.667 377.576 423.555C377.576 423.555 377.576 423.504 377.531 423.504L356.776 415.287L333.938 414.677Z" fill="#231F20"/>
<path d="M318.561 75.412C317.647 77.4446 320.844 80.1327 321.149 80.3868V80.4376C319.319 86.2203 318.307 93.2175 320.844 97.2268C323.889 102.247 330.232 103.67 337.588 102.705C337.638 102.705 337.638 102.705 337.638 102.755L337.079 106.053L364.889 111.023C364.94 111.023 364.94 111.023 364.94 110.972C365.296 109.504 369.708 106.968 369.962 105.342C370.216 104.026 370.368 102.603 370.623 101.185C372.041 93.2175 371.888 84.2385 372.905 78.2526C374.781 66.9412 376.56 58.572 363.466 50.1011C355.704 45.0806 346.264 44.3184 337.638 46.5492C337.638 46.5492 325.968 48.8308 325.459 62.8353C325.459 62.8861 323.075 72.6223 322.872 73.232C322.872 73.232 322.872 73.2829 322.821 73.2829C322.567 73.3845 319.217 73.791 318.561 75.412Z" fill="#D08058"/>
<path opacity="0.15" d="M337.181 106.053C337.893 105.901 343.677 104.529 347.942 99.4067C347.993 99.3559 347.942 99.3051 347.891 99.3051C343.525 101.587 338.147 102.603 337.74 102.705C337.74 102.705 337.69 102.705 337.69 102.755L337.13 106.002C337.08 106.002 337.13 106.053 337.181 106.053Z" fill="black"/>
<path d="M396.399 133.595C390.818 119.951 380.972 111.48 369.505 109.148C369.454 109.148 369.454 109.097 369.454 109.097L370.013 105.393C370.013 105.342 370.013 105.342 369.962 105.342L337.283 105.443C337.232 105.443 337.181 105.494 337.181 105.545L336.571 108.741C336.571 108.792 336.571 108.792 336.52 108.792C335.915 108.843 329.063 109.249 320.082 111.277C306.433 114.321 287.758 139.078 273.043 156.731H272.992L250.667 146.634H250.616L239.453 160.837L234.985 181.279V181.33C246.402 189.095 261.016 197.007 273.5 196.753C294.508 196.244 313.179 175.395 314.449 173.977C314.5 173.927 314.551 173.977 314.551 174.028L319.319 199.796C319.319 199.796 319.319 199.949 319.37 199.949L377.272 200.762L390.106 211.819C390.106 211.819 390.106 211.819 390.157 211.819C390.615 211.819 398.631 211.565 403.048 200.762C405.94 192.947 402.133 147.752 396.399 133.595Z" fill="#BDBDBD"/>
<path opacity="0.2" d="M329.673 157.64L327.945 199.796C327.945 199.847 327.945 199.847 327.894 199.847H319.319C319.319 199.847 319.268 199.847 319.268 199.796L314.5 173.927V173.876L329.571 157.539C329.622 157.539 329.673 157.59 329.673 157.64Z" fill="black"/>
<path d="M325.51 62.8863C331.701 70.4425 342.106 77.8462 342.711 78.3035H342.762C343.372 77.7954 354.636 68.7706 360.522 74.2993C368.34 81.2965 357.325 91.7491 353.929 93.5225C353.879 93.5225 353.879 93.5734 353.929 93.6242C360.929 100.881 369.962 101.185 370.622 101.185C370.622 101.185 370.673 101.185 370.673 101.135C372.091 93.6242 373.921 83.883 374.78 78.7608C376.661 67.4495 377.322 55.325 364.279 46.8542C356.517 41.8337 345.654 41.6304 337.079 43.8612H337.028C336.672 43.4039 331.142 36.6099 323.329 40.8174C316.528 45.284 319.115 55.071 325.51 62.8863Z" fill="#231F20"/>
<path d="M328.661 76.7331C329.5 76.7331 330.186 76.0522 330.186 75.2086C330.186 74.3702 329.5 73.6893 328.661 73.6893C327.818 73.6893 327.142 74.3702 327.142 75.2086C327.142 76.0522 327.818 76.7331 328.661 76.7331Z" fill="#231F20"/>
<path d="M194.747 128.168C194.798 128.168 194.849 128.117 194.798 128.066C192.007 126.445 191.245 120.561 194.747 121.628C206.723 125.226 220.574 132.482 231.178 137.756L231.228 137.807L227.02 155.054L217.784 167.178C217.784 167.178 217.784 167.178 217.733 167.178C211.694 167.382 202.255 164.998 195.454 159.775C195.454 159.775 195.454 159.775 195.408 159.775C185.308 158.962 175.004 157.59 174.552 155.105C173.993 152.112 186.07 151.807 189.72 151.756C189.771 151.756 189.771 151.654 189.72 151.654C185.918 150.287 164.655 148.356 170.999 139.886V139.835C168.208 135.577 172.112 133.397 173.383 133.295C173.434 133.295 173.434 133.244 173.434 133.244C173.179 132.736 171.558 129.591 173.789 127.563C175.309 126.242 191.346 127.665 194.747 128.168Z" fill="#D08058"/>
<path d="M231.177 137.807L217.783 167.178V167.229C223.517 172.351 228.539 176.97 234.934 181.229C234.984 181.229 234.984 181.229 234.984 181.229L250.615 146.634C250.615 146.583 250.615 146.583 250.615 146.583L231.279 137.757C231.177 137.757 231.177 137.757 231.177 137.807Z" fill="#EBEBEB"/>
<path opacity="0.2" d="M377.22 199.796L383.762 170.324C383.762 170.273 383.863 170.273 383.863 170.324L384.931 208.064C384.931 208.115 384.88 208.115 384.829 208.115L377.22 199.796Z" fill="black"/>
<path d="M476.727 378.05C474.292 371.205 471.75 365.016 469.112 359.335C458.255 335.746 446.787 321.742 439.783 311.803C425.88 292.219 419.943 262.04 407.967 237.74C396.246 213.745 377.774 200.203 377.22 199.796C377.22 199.796 377.22 199.796 377.169 199.796H360.471L319.369 199.847C319.318 199.847 319.318 199.847 319.318 199.898C319.166 201.672 313.839 260.718 321.504 332.906C323.176 348.679 327.136 367.145 330.13 383.934C332.209 395.5 333.729 406.156 333.881 414.626C333.881 414.626 333.881 414.677 333.932 414.677L360.522 420.104L377.525 423.453C377.571 423.453 377.571 423.453 377.571 423.402C378.231 417.264 378.841 410.465 379.299 402.553C379.553 395.957 379.604 389.768 379.502 383.934C378.841 357.201 373.565 339.344 370.825 327.174C368.238 315.558 369.758 302.214 371.735 288.418C371.837 288.418 371.735 288.418 371.837 288.418C379.35 303.987 387.671 320.273 396.449 336.153C403.505 348.984 413.244 363.187 422.124 376.531C428.671 386.47 434.506 395.754 438.364 403.818L438.415 403.869L482.664 395.957C482.714 395.957 482.714 395.906 482.714 395.906C481.037 390.581 479.111 384.747 476.727 378.05Z" fill="white"/>
<path opacity="0.2" d="M385.084 314.897C385.134 314.948 385.185 314.948 385.185 314.846L381.835 278.981C381.175 271.826 379.756 264.677 377.571 257.827L375.746 252.044C375.746 251.993 375.644 251.993 375.644 252.044C375.593 263.915 373.514 276.242 371.735 288.265C371.735 288.265 371.735 288.265 371.735 288.316C376 297.041 380.468 305.969 385.084 314.897Z" fill="#7F7F7F"/>
<path d="M328.809 84.2384C328.301 85.6612 325.968 86.7741 324.55 86.271" stroke="black" stroke-width="1.77107" stroke-linecap="round" stroke-linejoin="round"/>
<path d="M347.891 99.3051C344.796 100.88 339.214 102.45 337.639 102.755" stroke="black" stroke-width="1.77107" stroke-linecap="round" stroke-linejoin="round"/>
<path d="M353.981 81.9062L349.36 85.6107" stroke="black" stroke-width="1.77107" stroke-linecap="round" stroke-linejoin="round"/>
<path d="M314.454 173.977L329.576 157.59" stroke="black" stroke-width="1.77107" stroke-linecap="round" stroke-linejoin="round"/>
<path d="M173.434 133.346C173.434 133.346 189.872 134.713 200.532 137.045" stroke="black" stroke-width="1.77107" stroke-linecap="round" stroke-linejoin="round"/>
<path d="M194.747 128.066L202.865 129.438" stroke="black" stroke-width="1.77107" stroke-linecap="round" stroke-linejoin="round"/>
<path d="M171.049 139.987C171.049 139.987 188.555 143.489 197.639 145.216" stroke="black" stroke-width="1.77107" stroke-linecap="round" stroke-linejoin="round"/>
<path d="M371.838 288.468C373.871 274.718 375.442 265.693 375.747 252.095" stroke="#969696" stroke-width="1.77107" stroke-linecap="round" stroke-linejoin="round"/>
<path d="M453.69 416.501L442.827 416.451" stroke="#BDBDBD" stroke-width="1.77107" stroke-linecap="round" stroke-linejoin="round"/>
<path d="M452.674 424.972L442.167 423.097" stroke="#BDBDBD" stroke-width="1.77107" stroke-linecap="round" stroke-linejoin="round"/>
<path d="M341.954 430.806L332.362 426.649" stroke="#BDBDBD" stroke-width="1.77107" stroke-linecap="round" stroke-linejoin="round"/>
<path d="M337.638 438.214L328.504 432.076" stroke="#BDBDBD" stroke-width="1.77107" stroke-linecap="round" stroke-linejoin="round"/>
<path d="M332.977 199.898C332.977 199.898 333.231 275.582 339.824 323.114C346.421 370.646 353.273 405.8 351.952 418.178" stroke="#7F7F7F" stroke-width="1.77107" stroke-linecap="round" stroke-linejoin="round"/>
<path d="M377.22 199.796L383.762 170.324" stroke="black" stroke-width="1.77107" stroke-linecap="round" stroke-linejoin="round"/>
</svg>
