<svg width="534" height="372" viewBox="0 0 534 372" fill="none" xmlns="http://www.w3.org/2000/svg">
<g clip-path="url(#clip0_1087_438)">
<path d="M106.396 372C165.157 372 212.792 368.378 212.792 363.909C212.792 359.441 165.157 355.818 106.396 355.818C47.6351 355.818 0 359.441 0 363.909C0 368.378 47.6351 372 106.396 372Z" fill="#39A798"/>
<path d="M81.3271 82.54C99.8433 74.6546 122.905 79.6507 145.428 83.1183C145.638 78.9191 148.178 73.8085 145.517 70.8789C142.284 67.3197 142.581 63.58 144.527 59.8188C149.502 50.2007 142.374 39.9666 135.177 31.457C133.555 29.5434 131.505 28.0397 129.194 27.0683C126.882 26.0969 124.375 25.6851 121.874 25.8664L108.543 26.8198C105.299 27.0518 102.203 28.2703 99.6692 30.3122C97.1356 32.3541 95.2853 35.122 94.3659 38.2456C91.1826 42.5804 89.4788 46.9032 90.5515 51.2035C85.7834 54.4661 84.9824 58.4043 87.1249 62.8439C88.9418 65.6393 88.9224 68.3603 87.0423 71.006C84.5731 74.3791 82.682 78.1402 81.4463 82.1351L81.3271 82.54Z" fill="#F2F2F2"/>
<path d="M521.346 321.588H143.965C140.609 321.588 137.391 320.253 135.018 317.877C132.645 315.501 131.312 312.278 131.312 308.918C268.112 292.999 402.342 292.999 534 308.918C534 312.278 532.667 315.501 530.294 317.877C527.921 320.253 524.702 321.588 521.346 321.588Z" fill="#F2F2F2"/>
<path d="M534 309.664L131.312 308.918L177.982 230.291L178.205 229.919V56.6337C178.205 54.5304 178.618 52.4477 179.422 50.5044C180.226 48.5612 181.404 46.7955 182.89 45.3083C184.375 43.821 186.139 42.6413 188.079 41.8365C190.02 41.0316 192.1 40.6175 194.201 40.6177H468.878C470.978 40.6175 473.058 41.0316 474.999 41.8365C476.94 42.6413 478.703 43.821 480.189 45.3083C481.674 46.7955 482.852 48.5612 483.656 50.5044C484.46 52.4477 484.874 54.5304 484.874 56.6337V231.111L534 309.664Z" fill="#828282"/>
<path d="M193.836 51.7969C192.455 51.7984 191.131 52.3486 190.154 53.3266C189.177 54.3046 188.628 55.6307 188.626 57.0138V215.013C188.628 216.396 189.177 217.722 190.154 218.7C191.131 219.678 192.455 220.228 193.836 220.23H471.476C472.857 220.228 474.181 219.678 475.158 218.7C476.135 217.722 476.684 216.396 476.686 215.013V57.0138C476.684 55.6307 476.135 54.3047 475.158 53.3267C474.181 52.3487 472.857 51.7985 471.476 51.7969H193.836Z" fill="white"/>
<path d="M195 241.098C194.573 241.098 194.155 241.221 193.795 241.452C193.436 241.682 193.15 242.011 192.971 242.399L178.59 273.701C178.434 274.041 178.365 274.416 178.391 274.79C178.417 275.164 178.536 275.526 178.738 275.841C178.94 276.157 179.219 276.417 179.547 276.597C179.876 276.777 180.244 276.871 180.619 276.871H483.034C483.414 276.871 483.789 276.774 484.121 276.588C484.454 276.402 484.733 276.135 484.933 275.811C485.133 275.486 485.247 275.116 485.264 274.736C485.281 274.355 485.201 273.976 485.03 273.635L469.399 242.334C469.215 241.961 468.93 241.648 468.577 241.43C468.224 241.212 467.817 241.096 467.403 241.098H195Z" fill="#F2F2F2"/>
<path d="M331.539 49.1885C333.389 49.1885 334.889 47.6869 334.889 45.8347C334.889 43.9825 333.389 42.481 331.539 42.481C329.689 42.481 328.189 43.9825 328.189 45.8347C328.189 47.6869 329.689 49.1885 331.539 49.1885Z" fill="white"/>
<path d="M301.815 282.833C301.324 282.834 300.847 282.996 300.457 283.295C300.068 283.594 299.787 284.013 299.659 284.488L296.052 297.903C295.962 298.234 295.951 298.582 296.017 298.918C296.084 299.255 296.227 299.572 296.435 299.844C296.644 300.117 296.912 300.337 297.219 300.489C297.527 300.641 297.865 300.72 298.208 300.72H366.809C367.165 300.72 367.515 300.635 367.832 300.472C368.148 300.308 368.421 300.072 368.627 299.781C368.834 299.491 368.968 299.155 369.019 298.802C369.069 298.449 369.035 298.09 368.918 297.753L364.281 284.338C364.128 283.899 363.844 283.518 363.465 283.248C363.087 282.979 362.635 282.834 362.17 282.833H301.815Z" fill="#F2F2F2"/>
<path d="M484.873 227.31V230.291H177.981L178.212 229.919V227.31H484.873Z" fill="#F2F2F2"/>
<path d="M476.314 104.339C505.09 104.339 528.418 80.982 528.418 52.1696C528.418 23.3571 505.09 0 476.314 0C447.538 0 424.21 23.3571 424.21 52.1696C424.21 80.982 447.538 104.339 476.314 104.339Z" fill="#39A798"/>
<path d="M497.899 74.9005H454.727C453.938 74.8998 453.181 74.5854 452.623 74.0265C452.065 73.4676 451.751 72.7098 451.75 71.9194V45.8346C451.751 45.0442 452.065 44.2865 452.623 43.7276C453.181 43.1687 453.938 42.8544 454.727 42.8535H497.899C498.689 42.8544 499.445 43.1687 500.004 43.7276C500.562 44.2865 500.876 45.0442 500.877 45.8346V71.9194C500.876 72.7098 500.562 73.4676 500.004 74.0265C499.445 74.5854 498.689 74.8998 497.899 74.9005ZM454.727 45.8346V71.9194H497.901L497.899 45.8346L454.727 45.8346Z" fill="white"/>
<path d="M489.711 45.8345H462.915V33.91C462.915 25.2731 468.55 19.0044 476.313 19.0044C484.076 19.0044 489.711 25.2731 489.711 33.91L489.711 45.8345ZM465.892 42.8533H486.734V33.91C486.734 26.8891 482.449 21.9855 476.313 21.9855C470.178 21.9855 465.892 26.8892 465.892 33.91L465.892 42.8533Z" fill="white"/>
<path d="M476.313 61.1131C477.958 61.1131 479.291 59.7784 479.291 58.132C479.291 56.4856 477.958 55.1509 476.313 55.1509C474.669 55.1509 473.336 56.4856 473.336 58.132C473.336 59.7784 474.669 61.1131 476.313 61.1131Z" fill="white"/>
<path d="M439.941 166.638H225.371C224.317 166.637 223.308 166.218 222.563 165.472C221.818 164.726 221.399 163.715 221.397 162.66V109.367C221.399 108.312 221.818 107.301 222.563 106.555C223.308 105.809 224.317 105.39 225.371 105.389H439.941C440.994 105.39 442.004 105.809 442.749 106.555C443.494 107.301 443.913 108.312 443.914 109.367V162.66C443.913 163.715 443.494 164.726 442.749 165.472C442.004 166.218 440.994 166.637 439.941 166.638ZM225.371 106.98C224.739 106.981 224.133 107.233 223.686 107.68C223.239 108.128 222.988 108.734 222.987 109.367V162.66C222.988 163.293 223.239 163.9 223.686 164.347C224.133 164.795 224.739 165.046 225.371 165.047H439.941C440.573 165.046 441.179 164.795 441.626 164.347C442.073 163.9 442.324 163.293 442.325 162.66V109.367C442.324 108.734 442.073 108.128 441.626 107.68C441.179 107.232 440.573 106.981 439.941 106.98L225.371 106.98Z" fill="#39A798"/>
<path d="M258.71 150.175C267.65 150.175 274.896 142.919 274.896 133.969C274.896 125.018 267.65 117.762 258.71 117.762C249.771 117.762 242.524 125.018 242.524 133.969C242.524 142.919 249.771 150.175 258.71 150.175Z" fill="#39A798"/>
<path d="M296.093 123.165C295.738 123.164 295.387 123.233 295.059 123.369C294.731 123.504 294.433 123.703 294.182 123.954C293.931 124.205 293.732 124.503 293.596 124.831C293.461 125.159 293.391 125.511 293.391 125.866C293.391 126.221 293.461 126.572 293.596 126.9C293.732 127.228 293.931 127.526 294.182 127.777C294.433 128.028 294.731 128.227 295.059 128.362C295.387 128.498 295.738 128.567 296.093 128.567H423.268C423.983 128.567 424.669 128.282 425.175 127.776C425.681 127.269 425.966 126.582 425.966 125.866C425.966 125.149 425.681 124.462 425.175 123.956C424.669 123.449 423.983 123.165 423.268 123.165H296.093Z" fill="#39A798"/>
<path d="M296.092 139.371C295.377 139.371 294.691 139.655 294.185 140.162C293.679 140.668 293.395 141.355 293.395 142.072C293.395 142.788 293.679 143.475 294.185 143.982C294.691 144.488 295.377 144.773 296.092 144.773H350.816C351.532 144.773 352.218 144.488 352.724 143.982C353.229 143.475 353.514 142.788 353.514 142.072C353.514 141.355 353.229 140.668 352.724 140.162C352.218 139.655 351.532 139.371 350.816 139.371H296.092Z" fill="#39A798"/>
<path d="M177.454 140.463L137.789 161.578L137.287 143.982C150.233 141.818 162.551 138.051 173.939 131.917L178.088 121.655C178.54 120.537 179.275 119.556 180.22 118.808C181.165 118.059 182.288 117.57 183.479 117.388C184.67 117.206 185.888 117.337 187.013 117.769C188.138 118.2 189.132 118.917 189.897 119.85C191.016 121.213 191.575 122.952 191.461 124.713C191.348 126.475 190.57 128.127 189.285 129.335L177.454 140.463Z" fill="#FFB8B8"/>
<path d="M80.5362 262.369C80.2468 261.307 80.1854 260.195 80.3559 259.107C80.5265 258.019 80.9251 256.979 81.5256 256.056L90.2389 242.667C92.2997 239.501 95.462 237.213 99.1121 236.249C102.762 235.285 106.64 235.713 109.993 237.449C106.331 243.69 106.841 249.165 111.257 253.923C104.402 257.274 98.0659 261.599 92.4456 266.764C91.4195 267.465 90.2412 267.909 89.0087 268.062C87.7762 268.214 86.5253 268.069 85.3601 267.639C84.195 267.209 83.1493 266.506 82.3102 265.59C81.4711 264.673 80.8629 263.569 80.5362 262.369Z" fill="#F2F2F2"/>
<path d="M179.26 244.863C177.942 247.063 176.08 248.887 173.855 250.16C171.63 251.433 169.115 252.111 166.553 252.131L108.668 252.57L106.157 237.991L131.764 230.45L110.174 213.86L133.772 186.211L176.633 226.21C179.138 228.548 180.766 231.676 181.244 235.071C181.722 238.466 181.022 241.923 179.26 244.863Z" fill="#F2F2F2"/>
<path d="M99.6298 344.567H86.0734C73.9018 261.031 61.5123 177.26 98.1235 145.993L141.303 153.031L135.78 189.73L111.68 217.379L99.6298 344.567Z" fill="#F2F2F2"/>
<path d="M111.547 363.491C110.486 363.781 109.375 363.843 108.288 363.672C107.202 363.501 106.163 363.102 105.242 362.501L90.5223 360.52C87.3593 358.457 85.0746 355.29 84.1114 351.636C83.1482 347.981 83.5752 344.099 85.3095 340.741C91.543 344.408 97.0111 343.896 101.763 339.474C105.12 346.262 110.652 345.848 115.935 351.567C116.635 352.594 117.079 353.774 117.231 355.008C117.383 356.242 117.238 357.494 116.809 358.661C116.38 359.828 115.678 360.875 114.763 361.715C113.847 362.555 112.745 363.164 111.547 363.491Z" fill="#F2F2F2"/>
<path d="M131.764 90.1916L106.659 84.1589C110.829 75.6137 111.172 66.1053 109.17 56.0066L126.241 55.5039C126.775 68.0619 128.394 79.7943 131.764 90.1916Z" fill="#FFB8B8"/>
<path d="M138.663 168.168C120.388 180.637 107.476 168.595 97.6219 150.015C98.9912 138.646 96.7741 125.041 92.6679 110.258C90.8418 103.737 91.5236 96.7682 94.5787 90.7265C97.6337 84.6847 102.84 80.0094 109.17 77.6235L130.76 86.6725C149.092 101.634 152.7 117.841 145.822 134.934L138.663 168.168Z" fill="#39A798"/>
<path d="M86.074 102.759L65.9905 113.317L101.639 134.431L106.599 146.681C106.93 147.499 107.091 148.376 107.073 149.258C107.055 150.14 106.857 151.009 106.492 151.812C106.127 152.615 105.603 153.336 104.951 153.929C104.299 154.523 103.533 154.977 102.7 155.265C101.753 155.592 100.744 155.695 99.7504 155.566C98.7571 155.437 97.807 155.08 96.9747 154.522C96.1423 153.964 95.4503 153.22 94.9528 152.35C94.4552 151.479 94.1657 150.505 94.1069 149.504L93.6053 140.966L48.2969 125.996C46.7703 125.491 45.3785 124.646 44.2266 123.523C43.0748 122.4 42.1932 121.029 41.6487 119.515C40.855 117.308 40.8146 114.899 41.5339 112.666C42.2531 110.433 43.6913 108.502 45.6235 107.175L82.0573 82.1479L86.074 102.759Z" fill="#FFB8B8"/>
<path d="M106.158 104.77C97.7815 101.095 90.165 105.087 80.5512 108.289L79.0449 81.645C88.591 76.5506 97.6926 75.1771 106.158 79.1314L106.158 104.77Z" fill="#39A798"/>
<path d="M116.177 68.7017C125.029 68.7017 132.205 61.5166 132.205 52.6533C132.205 43.7901 125.029 36.605 116.177 36.605C107.324 36.605 100.148 43.7901 100.148 52.6533C100.148 61.5166 107.324 68.7017 116.177 68.7017Z" fill="#FFB8B8"/>
<path d="M135.352 50.6283C119.483 52.1845 107.39 49.5859 99.6621 42.1868V36.228H134.005L135.352 50.6283Z" fill="#F2F2F2"/>
</g>
<defs>
<clipPath id="clip0_1087_438">
<rect width="534" height="372" fill="white"/>
</clipPath>
</defs>
</svg>
