<svg width="142" height="128" viewBox="0 0 142 128" fill="none" xmlns="http://www.w3.org/2000/svg">
<g id="mail icon" clip-path="url(#clip0_1011_1124)">
<path id="Vector" d="M140.107 49.1396C140.056 49.1396 140.007 49.1242 139.966 49.0953L71.7081 1.52161C71.5003 1.3775 71.2535 1.30049 71.0008 1.30092C70.748 1.30136 70.5014 1.37921 70.2942 1.52402L2.52802 49.0949C2.47442 49.1325 2.40808 49.1473 2.3436 49.1359C2.27911 49.1246 2.22176 49.0881 2.18416 49.0345C2.14657 48.9808 2.1318 48.9144 2.14312 48.8499C2.15444 48.7854 2.19091 48.728 2.24451 48.6903L70.0108 1.1195C70.3009 0.916798 70.6461 0.807835 71 0.807253C71.3538 0.806671 71.6994 0.914497 71.9902 1.11625L140.248 48.6899C140.291 48.7199 140.324 48.763 140.341 48.8128C140.358 48.8625 140.358 48.9164 140.342 48.9666C140.327 49.0168 140.295 49.0606 140.253 49.0917C140.211 49.1229 140.159 49.1396 140.107 49.1396L140.107 49.1396Z" fill="black"/>
<path id="Vector_2" d="M43.6669 113.574H11.7196C11.5234 113.575 11.3291 113.536 11.1478 113.461C10.9665 113.386 10.8017 113.276 10.6629 113.138C10.5241 112.999 10.414 112.834 10.3389 112.653C10.2638 112.471 10.2251 112.277 10.2251 112.081C10.2251 111.884 10.2638 111.69 10.3389 111.509C10.414 111.327 10.5241 111.163 10.6629 111.024C10.8017 110.885 10.9665 110.775 11.1478 110.7C11.3291 110.625 11.5234 110.587 11.7196 110.587H43.6669C43.8631 110.587 44.0574 110.625 44.2387 110.7C44.42 110.775 44.5848 110.885 44.7236 111.024C44.8624 111.163 44.9725 111.327 45.0476 111.509C45.1227 111.69 45.1614 111.884 45.1614 112.081C45.1614 112.277 45.1227 112.471 45.0476 112.653C44.9725 112.834 44.8624 112.999 44.7236 113.138C44.5848 113.276 44.42 113.386 44.2387 113.461C44.0574 113.536 43.8631 113.575 43.6669 113.574Z" fill="#E0E0E0"/>
<path id="Vector_3" d="M23.1816 107.152H11.7196C11.5234 107.153 11.3291 107.114 11.1478 107.039C10.9665 106.964 10.8017 106.854 10.6629 106.716C10.5241 106.577 10.414 106.412 10.3389 106.231C10.2638 106.049 10.2251 105.855 10.2251 105.659C10.2251 105.462 10.2638 105.268 10.3389 105.087C10.414 104.905 10.5241 104.74 10.6629 104.602C10.8017 104.463 10.9665 104.353 11.1478 104.278C11.3291 104.203 11.5234 104.165 11.7196 104.165H23.1816C23.3777 104.165 23.572 104.203 23.7533 104.278C23.9346 104.353 24.0994 104.463 24.2382 104.602C24.377 104.74 24.4871 104.905 24.5623 105.087C24.6374 105.268 24.676 105.462 24.676 105.659C24.676 105.855 24.6374 106.049 24.5623 106.231C24.4871 106.412 24.377 106.577 24.2382 106.716C24.0994 106.854 23.9346 106.964 23.7533 107.039C23.572 107.114 23.3777 107.153 23.1816 107.152Z" fill="#E0E0E0"/>
<path id="Vector_4" d="M71.9773 77.5412C71.7345 77.5415 71.4939 77.4943 71.2692 77.4024L31.3867 60.8411V9.00149C31.3873 8.54308 31.5694 8.10361 31.8933 7.77947C32.2172 7.45533 32.6564 7.273 33.1144 7.27246H109.626C110.084 7.273 110.523 7.45533 110.847 7.77947C111.171 8.10361 111.353 8.54308 111.354 9.00149V60.8773L111.279 60.9094L72.7069 77.3943C72.4759 77.4914 72.2278 77.5414 71.9773 77.5412Z" fill="black"/>
<path id="Vector_5" d="M71.9774 77.6646C71.7185 77.6648 71.462 77.6146 71.2223 77.5167L31.2634 60.9236V9.00145C31.264 8.5103 31.4592 8.03943 31.8062 7.69213C32.1532 7.34484 32.6237 7.14948 33.1145 7.14893H109.626C110.117 7.14948 110.587 7.34484 110.934 7.69213C111.281 8.03943 111.477 8.5103 111.477 9.00145V60.9588L72.7554 77.5078C72.5092 77.6115 72.2446 77.6648 71.9774 77.6646ZM31.757 60.5936L71.4105 77.06C71.7804 77.2101 72.1946 77.2077 72.5626 77.0531L110.983 60.6327V9.00145C110.983 8.64128 110.84 8.29599 110.585 8.04131C110.331 7.78663 109.986 7.64336 109.626 7.64293H33.1145C32.7546 7.64336 32.4096 7.78663 32.1551 8.04131C31.9006 8.29599 31.7575 8.64128 31.7571 9.00145L31.757 60.5936Z" fill="#3F3D56"/>
<path id="Vector_6" d="M139.613 48.6456H139.564L111.23 60.7537L72.4636 77.3203C72.3121 77.384 72.1495 77.4173 71.9852 77.4181C71.8209 77.419 71.658 77.3874 71.5058 77.3252L31.5101 60.7192L2.48013 48.6654L2.43578 48.6456H2.38637C1.92832 48.6461 1.48917 48.8285 1.16528 49.1526C0.841384 49.4768 0.6592 49.9162 0.658691 50.3747V125.464C0.6592 125.922 0.841384 126.362 1.16528 126.686C1.48917 127.01 1.92832 127.192 2.38637 127.193H139.613C140.072 127.192 140.511 127.01 140.835 126.686C141.158 126.362 141.341 125.922 141.341 125.464V50.3747C141.341 49.9162 141.158 49.4768 140.835 49.1526C140.511 48.8285 140.072 48.6461 139.613 48.6456ZM140.848 125.464C140.847 125.791 140.717 126.105 140.486 126.337C140.255 126.568 139.941 126.699 139.613 126.699H2.38637C2.05912 126.699 1.74531 126.568 1.51391 126.337C1.2825 126.105 1.15244 125.791 1.15231 125.464V50.3747C1.15276 50.0553 1.27655 49.7484 1.4978 49.5183C1.71904 49.2881 2.02062 49.1524 2.33949 49.1396L31.5101 61.2527L71.3159 77.7822C71.7468 77.9576 72.2296 77.955 72.6585 77.7747L111.23 61.2897L139.663 49.1396C139.981 49.1534 140.282 49.2894 140.503 49.5195C140.723 49.7495 140.847 50.0558 140.848 50.3747V125.464Z" fill="black"/>
<path id="Vector_7" d="M71.5788 62.8414C70.1064 62.8441 68.6731 62.3677 67.495 61.4838L67.422 61.4289L52.043 49.645C51.3307 49.0989 50.733 48.4177 50.2838 47.6403C49.8346 46.863 49.5428 46.0047 49.4251 45.1145C49.3073 44.2243 49.3659 43.3196 49.5975 42.4521C49.8292 41.5846 50.2292 40.7712 50.775 40.0584C51.3207 39.3456 52.0013 38.7474 52.7781 38.2979C53.5548 37.8483 54.4124 37.5563 55.3019 37.4385C56.1914 37.3206 57.0954 37.3793 57.9623 37.6111C58.8291 37.8429 59.6419 38.2433 60.3541 38.7894L70.3155 46.4336L93.8559 15.7097C94.4018 14.997 95.0827 14.399 95.8596 13.9498C96.6365 13.5005 97.4942 13.2088 98.3837 13.0913C99.2733 12.9738 100.177 13.0327 101.044 13.2649C101.911 13.497 102.723 13.8977 103.435 14.4441L103.289 14.643L103.439 14.447C104.875 15.5518 105.815 17.1816 106.052 18.9789C106.289 20.7762 105.804 22.5942 104.704 24.0341L77.0146 60.1728C76.3742 61.0056 75.5508 61.6795 74.608 62.1423C73.6653 62.6051 72.6288 62.8443 71.5788 62.8414Z" fill="white"/>
</g>
<defs>
<clipPath id="clip0_1011_1124">
<rect width="140.682" height="126.385" fill="white" transform="translate(0.658691 0.807251)"/>
</clipPath>
</defs>
</svg>
