<svg width="191" height="155" viewBox="0 0 191 155" fill="none" xmlns="http://www.w3.org/2000/svg">
<g clip-path="url(#clip0_821_772)">
<path d="M152.601 28.7454C151.613 39.5948 148.8 51.0348 144.387 62.0728C138.93 75.7229 131.475 87.7458 122.827 96.8417L122.347 96.4245C130.953 87.3723 138.375 75.4025 143.809 61.8089C148.72 49.5246 151.641 36.741 152.26 24.8456L152.873 24.948C152.808 26.2043 152.717 27.4701 152.601 28.7454Z" fill="#F2F2F2"/>
<path d="M156.535 91.7563C144.388 111.024 129.651 124.79 115.039 130.52L114.743 129.98C129.254 124.29 143.905 110.593 155.997 91.4141L156.535 91.7563Z" fill="#F2F2F2"/>
<path d="M152.306 42.2534C151.319 53.1027 148.505 64.5427 144.092 75.5808C138.635 89.2308 131.18 101.254 122.532 110.35L122.052 109.932C130.658 100.88 138.08 88.9104 143.514 75.3168C148.425 63.0325 151.346 50.2489 151.965 38.3536L152.578 38.4559C152.513 39.7122 152.422 40.978 152.306 42.2534Z" fill="#F2F2F2"/>
<path d="M15.9409 70.1064H7.97099C7.80071 70.1068 7.63256 70.0687 7.47915 69.995C7.32575 69.9213 7.19106 69.814 7.08521 69.681C6.98063 69.5514 6.90685 69.3999 6.86941 69.2378C6.83196 69.0757 6.83182 68.9073 6.86899 68.7452C7.62805 65.4059 7.58036 61.9345 6.72987 58.6172C6.67607 58.3988 6.68908 58.1693 6.76721 57.9583C6.84535 57.7473 6.98503 57.5645 7.16829 57.4334C11.2664 54.4947 14.4938 54.58 16.761 57.6872C16.8632 57.8289 16.9311 57.9922 16.9593 58.1644C17.5651 61.7952 17.5986 65.498 17.0587 69.1391C17.0211 69.4078 16.8872 69.6539 16.6817 69.8317C16.4762 70.0096 16.213 70.1072 15.9409 70.1064Z" fill="#E6E6E6"/>
<path d="M13.4695 62.1492H10.7279C10.5763 62.1492 10.4309 62.0892 10.3237 61.9823C10.2165 61.8754 10.1562 61.7304 10.1562 61.5793C10.1562 61.4281 10.2165 61.2832 10.3237 61.1763C10.4309 61.0694 10.5763 61.0093 10.7279 61.0093H13.4695C13.6209 61.0097 13.766 61.0698 13.873 61.1767C13.9799 61.2835 14.04 61.4283 14.04 61.5793C14.04 61.7302 13.9799 61.875 13.873 61.9819C13.766 62.0887 13.6209 62.1489 13.4695 62.1492Z" fill="white"/>
<path d="M13.4695 64.1483H10.7279C10.5763 64.1483 10.4309 64.0882 10.3237 63.9813C10.2165 63.8745 10.1562 63.7295 10.1562 63.5783C10.1562 63.4272 10.2165 63.2822 10.3237 63.1753C10.4309 63.0685 10.5763 63.0084 10.7279 63.0084H13.4695C13.6209 63.0087 13.766 63.0689 13.873 63.1758C13.9799 63.2826 14.04 63.4274 14.04 63.5783C14.04 63.7293 13.9799 63.8741 13.873 63.9809C13.766 64.0878 13.6209 64.148 13.4695 64.1483Z" fill="white"/>
<path d="M13.4695 66.1471H10.7279C10.5763 66.1471 10.4309 66.087 10.3237 65.9802C10.2165 65.8733 10.1562 65.7283 10.1562 65.5772C10.1562 65.426 10.2165 65.281 10.3237 65.1742C10.4309 65.0673 10.5763 65.0072 10.7279 65.0072H13.4695C13.6209 65.0075 13.766 65.0677 13.873 65.1746C13.9799 65.2814 14.04 65.4262 14.04 65.5772C14.04 65.7281 13.9799 65.8729 13.873 65.9797C13.766 66.0866 13.6209 66.1468 13.4695 66.1471Z" fill="white"/>
<path d="M160.786 105.585H152.816C152.645 105.586 152.477 105.548 152.324 105.474C152.17 105.4 152.036 105.293 151.93 105.16C151.825 105.03 151.752 104.879 151.714 104.717C151.677 104.555 151.677 104.386 151.714 104.224C152.473 100.885 152.425 97.4134 151.575 94.0961C151.521 93.8777 151.534 93.6482 151.612 93.4372C151.69 93.2262 151.83 93.0434 152.013 92.9122C156.111 89.9736 159.339 90.0588 161.606 93.1661C161.708 93.3077 161.776 93.471 161.804 93.6432C162.41 97.274 162.443 100.977 161.903 104.618C161.866 104.887 161.732 105.133 161.526 105.311C161.321 105.488 161.058 105.586 160.786 105.585Z" fill="#E6E6E6"/>
<path d="M158.316 97.6281H155.574C155.423 97.6278 155.278 97.5676 155.171 97.4607C155.064 97.3539 155.004 97.2091 155.004 97.0581C155.004 96.9072 155.064 96.7624 155.171 96.6555C155.278 96.5487 155.423 96.4885 155.574 96.4882H158.316C158.468 96.4882 158.613 96.5482 158.72 96.6551C158.827 96.762 158.888 96.907 158.888 97.0581C158.888 97.2093 158.827 97.3542 158.72 97.4611C158.613 97.568 158.468 97.6281 158.316 97.6281Z" fill="white"/>
<path d="M158.316 99.627H155.574C155.423 99.6267 155.278 99.5665 155.171 99.4597C155.064 99.3528 155.004 99.208 155.004 99.0571C155.004 98.9061 155.064 98.7614 155.171 98.6545C155.278 98.5477 155.423 98.4875 155.574 98.4872H158.316C158.468 98.4872 158.613 98.5472 158.72 98.6541C158.827 98.761 158.888 98.9059 158.888 99.0571C158.888 99.2082 158.827 99.3532 158.72 99.4601C158.613 99.567 158.468 99.627 158.316 99.627Z" fill="white"/>
<path d="M158.316 101.626H155.574C155.423 101.625 155.278 101.565 155.171 101.458C155.064 101.351 155.004 101.207 155.004 101.056C155.004 100.905 155.064 100.76 155.171 100.653C155.278 100.546 155.423 100.486 155.574 100.486H158.316C158.468 100.486 158.613 100.546 158.72 100.653C158.827 100.76 158.888 100.905 158.888 101.056C158.888 101.207 158.827 101.352 158.72 101.459C158.613 101.566 158.468 101.626 158.316 101.626Z" fill="white"/>
<path d="M190.944 154.183C190.945 154.222 190.937 154.261 190.922 154.297C190.907 154.333 190.885 154.366 190.857 154.394C190.83 154.421 190.797 154.443 190.76 154.458C190.724 154.473 190.685 154.481 190.646 154.48H1.12243C1.04334 154.48 0.967491 154.449 0.911566 154.393C0.855641 154.338 0.824219 154.262 0.824219 154.183C0.824219 154.104 0.855641 154.029 0.911566 153.973C0.967491 153.917 1.04334 153.886 1.12243 153.886H190.646C190.685 153.886 190.724 153.893 190.76 153.908C190.797 153.923 190.83 153.945 190.857 153.973C190.885 154 190.907 154.033 190.922 154.069C190.937 154.105 190.945 154.144 190.944 154.183Z" fill="#CCCCCC"/>
<path d="M50.8181 135.979L50.321 129.086C47.0649 127.463 43.4607 126.658 39.8213 126.739C44.9414 130.685 44.5313 138.571 48.0772 143.968C49.1961 145.643 50.6787 147.046 52.4151 148.072C54.1515 149.098 56.0972 149.721 58.108 149.895L62.3692 152.339C62.8566 149.127 62.6399 145.848 61.7338 142.727C60.8277 139.607 59.2538 136.719 57.1206 134.264C55.9102 132.898 54.5321 131.689 53.0189 130.667C52.0875 133.333 50.8181 135.979 50.8181 135.979Z" fill="#F2F2F2"/>
<path d="M140.948 136.979L141.445 130.086C144.702 128.463 148.306 127.657 151.945 127.738C146.825 131.684 147.235 139.571 143.689 144.968C142.57 146.643 141.088 148.045 139.351 149.071C137.615 150.097 135.669 150.72 133.658 150.895L129.397 153.339C128.91 150.127 129.127 146.847 130.033 143.727C130.939 140.606 132.513 137.719 134.646 135.263C135.856 133.897 137.234 132.689 138.748 131.667C139.679 134.333 140.948 136.979 140.948 136.979Z" fill="#F2F2F2"/>
<path d="M93.6275 59.192C96.2572 59.192 98.3889 57.0667 98.3889 54.4449C98.3889 51.8231 96.2572 49.6977 93.6275 49.6977C90.9979 49.6977 88.8662 51.8231 88.8662 54.4449C88.8662 57.0667 90.9979 59.192 93.6275 59.192Z" fill="#BDBDBD"/>
<path d="M96.0731 52.4664C96.0015 52.3982 95.9063 52.3602 95.8073 52.3602C95.7084 52.3602 95.6132 52.3982 95.5415 52.4664C94.5312 53.2697 93.6238 54.1938 92.8397 55.2179C92.6471 54.8465 92.4546 54.4752 92.2621 54.1038C92.0399 53.6751 91.391 54.0538 91.613 54.4821C91.8946 55.0253 92.1761 55.5685 92.4577 56.1117C92.4917 56.1671 92.5394 56.213 92.5962 56.2448C92.653 56.2766 92.7171 56.2933 92.7823 56.2933C92.8475 56.2933 92.9115 56.2766 92.9684 56.2448C93.0252 56.213 93.0729 56.1671 93.1069 56.1117C93.9425 54.9383 94.9413 53.8894 96.0731 52.9964C96.1431 52.9258 96.1823 52.8306 96.1823 52.7314C96.1823 52.6322 96.1431 52.5369 96.0731 52.4664Z" fill="white"/>
<path d="M72.3235 67.906L65.1436 56.6639L73.4578 52.2245L75.64 60.8017L91.0154 69.0855C91.6225 68.8676 92.28 68.8306 92.9077 68.9789C93.5355 69.1272 94.1064 69.4545 94.5509 69.9207C94.9953 70.3869 95.2941 70.972 95.4108 71.6046C95.5275 72.2372 95.4571 72.89 95.2082 73.4834C94.9592 74.0767 94.5424 74.5851 94.0087 74.9464C93.475 75.3077 92.8473 75.5064 92.2023 75.5182C91.5572 75.53 90.9227 75.3545 90.376 75.013C89.8293 74.6714 89.3941 74.1787 89.1234 73.5948L72.3235 67.906Z" fill="#A0616A"/>
<path d="M59.8983 43.18C57.6423 46.4824 65.6595 58.4865 65.6595 58.4865C66.05 57.6471 69.7835 67.0728 70.4089 66.516C72.1861 64.9336 74.9682 60.5255 76.5147 60.329C77.3991 60.2167 74.4636 53.9633 74.4636 53.9633C74.4636 53.9633 73.122 50.2706 71.3015 45.5536C70.8116 44.2106 69.9889 43.0129 68.9099 42.0721C67.8309 41.1313 66.5307 40.478 65.1303 40.173C65.1303 40.173 62.1543 39.8776 59.8983 43.18Z" fill="#3F3D56"/>
<path d="M60.0076 150.774L63.4175 150.774L65.0396 137.66L60.0068 137.661L60.0076 150.774Z" fill="#A0616A"/>
<path d="M59.1377 149.664L60.0975 149.664L63.8447 148.145L65.8531 149.664H65.8533C66.9883 149.664 68.0768 150.114 68.8793 150.914C69.6819 151.714 70.1328 152.799 70.1329 153.931V154.069L59.1379 154.07L59.1377 149.664Z" fill="#E0E0E0"/>
<path d="M75.8501 150.774L79.26 150.774L80.8823 137.66L75.8496 137.661L75.8501 150.774Z" fill="#A0616A"/>
<path d="M74.9805 149.664L75.9403 149.664L79.6875 148.145L81.6958 149.664H81.6961C82.8311 149.664 83.9196 150.114 84.7221 150.914C85.5247 151.714 85.9756 152.799 85.9757 153.931V154.069L74.9807 154.07L74.9805 149.664Z" fill="#E0E0E0"/>
<path d="M77.326 79.0825L55.1464 79.6353C50.934 81.9165 50.8701 86.8537 52.2503 92.7155C52.2503 92.7155 51.7843 96.1997 52.7162 97.1288C53.6481 98.0578 54.114 98.0579 53.6481 99.6838C53.1821 101.31 55.6439 103.965 55.3449 104.263C55.0459 104.562 54.347 106.187 54.347 106.187L56.6767 119.427C56.6767 119.427 58.3074 142.422 58.7734 142.887C59.2393 143.351 59.7053 142.887 59.2393 144.048C58.7734 145.21 58.3074 144.745 58.7734 145.21C59.1861 145.653 59.5749 146.118 59.9382 146.603H65.5708C65.5708 146.603 65.9954 144.28 65.9954 144.048C65.9954 143.816 66.4614 142.422 66.4614 142.19C66.4614 141.958 66.0495 141.547 66.0495 141.547C65.9072 141.075 65.8111 140.59 65.7624 140.1C65.7624 139.635 64.3646 121.75 64.3646 121.75L67.1603 98.5224L73.9163 121.285C73.9163 121.285 73.9163 141.261 74.3823 141.725C74.8482 142.19 74.8482 141.958 74.6152 142.887C74.3823 143.816 73.4504 143.584 74.1493 144.28C74.8482 144.977 75.0812 143.816 74.8482 144.977L74.6153 146.139L81.6043 146.238C81.6043 146.238 82.5362 144.28 82.0702 143.584C81.6043 142.887 81.6323 143.077 82.2007 141.937C82.7692 140.796 83.0021 140.564 82.7692 140.332C82.5362 140.1 82.5362 138.864 82.5362 138.864L81.3713 116.64C81.3713 116.64 81.1384 93.1801 81.1384 92.4833C81.1208 92.1247 81.1871 91.767 81.3319 91.4383V90.4925L80.4395 87.141L77.326 79.0825Z" fill="#E0E0E0"/>
<path d="M64.0027 33.1009C67.8086 33.1009 70.894 30.0248 70.894 26.2301C70.894 22.4355 67.8086 19.3593 64.0027 19.3593C60.1967 19.3593 57.1113 22.4355 57.1113 26.2301C57.1113 30.0248 60.1967 33.1009 64.0027 33.1009Z" fill="#A0616A"/>
<path d="M67.4485 37.6419C68.9331 38.5219 69.8213 40.1388 70.3311 41.7841C71.2749 44.8302 71.8431 47.9796 72.0229 51.1627L72.5614 60.6923L79.2305 80.9836C73.4506 85.8596 51.7251 82.0918 51.7251 82.0918C51.7251 82.0918 51.0582 81.8702 51.7251 81.2052C52.392 80.5403 53.0412 81.1294 52.3743 80.4645C51.7075 79.7996 52.1672 80.5403 52.3895 79.8754C52.6118 79.2105 52.3895 79.6538 52.1672 79.4321C51.9449 79.2105 53.8881 77.2157 53.8881 77.2157L52.1097 65.5684L49.8867 42.0747C52.5543 38.7501 57.9193 36.7903 57.9193 36.7903L59.3055 34.3025L66.2366 34.8554L67.4485 37.6419Z" fill="#3F3D56"/>
<path d="M69.6839 22.5796C70.2195 22.9779 70.6164 23.5336 70.8185 24.1686C70.8962 23.1309 70.9011 22.0891 70.8333 21.0508C70.7521 20.3211 70.2368 20.157 69.6402 19.9668C69.1014 19.795 68.4921 19.6009 68.3282 18.8926C66.1619 16.7915 62.391 16.8975 59.8102 17.6304C58.3901 18.0337 57.573 18.5518 57.4999 18.8554L57.4848 18.9178L57.4271 18.9466C56.3324 19.4923 56.1194 21.2154 56.1334 22.5649C56.1601 25.1073 57.0406 27.9949 57.5366 28.2294C57.5629 28.2419 57.5695 28.237 57.5809 28.2276C58.3277 27.6325 59.2389 28.2728 59.6394 28.6209C59.8755 27.0407 60.636 25.585 61.7993 24.4863C62.9626 23.3876 64.4617 22.7093 66.057 22.5596C66.578 22.5094 67.0949 22.423 67.6038 22.301C67.8619 22.2344 68.1273 22.1997 68.394 22.1976C68.853 22.1907 69.3031 22.324 69.6839 22.5796Z" fill="#E0E0E0"/>
<path d="M112.464 84.557L125.72 71.1355L129.213 60.4012L123.593 58.1346C120.808 60.9347 117.942 69.5065 117.942 69.5065L108.894 81.6138C108.822 81.6406 108.75 81.6689 108.679 81.7024C108.263 81.8985 107.904 82.1984 107.637 82.5731C107.371 82.9479 107.206 83.3848 107.159 83.8416C107.111 84.2985 107.183 84.7598 107.366 85.1811C107.55 85.6023 107.84 85.9692 108.207 86.2463C108.574 86.5234 109.007 86.7013 109.464 86.7629C109.92 86.8244 110.385 86.7675 110.813 86.5977C111.241 86.4279 111.618 86.1508 111.907 85.7933C112.196 85.4359 112.388 85.01 112.464 84.557Z" fill="#FFB8B8"/>
<path d="M122.059 59.3628L129.166 61.4127L129.193 61.4077C131.805 60.9019 133.872 56.573 135.146 53.0306C135.565 51.8621 135.523 50.5787 135.029 49.4397C134.535 48.3007 133.626 47.3911 132.486 46.8948C131.642 46.5344 130.714 46.4165 129.806 46.5545C128.898 46.6925 128.047 47.0809 127.35 47.6757L123.806 50.7182L122.059 59.3628Z" fill="#39A798"/>
<path d="M115.978 150.375L112.155 150.375L110.337 135.675L115.978 135.675L115.978 150.375Z" fill="#FFB8B8"/>
<path d="M116.953 149.131L115.877 149.131L111.676 147.428L109.425 149.131H109.424C108.152 149.131 106.932 149.635 106.032 150.532C105.133 151.429 104.627 152.645 104.627 153.914V154.069L116.952 154.07L116.953 149.131Z" fill="#E0E0E0"/>
<path d="M132.94 150.375L129.117 150.375L127.299 135.675L132.941 135.675L132.94 150.375Z" fill="#FFB8B8"/>
<path d="M133.915 149.131L132.84 149.131L128.639 147.428L126.388 149.131H126.387C125.115 149.131 123.895 149.635 122.995 150.532C122.095 151.429 121.59 152.645 121.59 153.914V154.069L133.915 154.07L133.915 149.131Z" fill="#E0E0E0"/>
<path d="M138.768 87.0569C138.768 87.0569 139.214 92.3971 138.098 97.5148C136.982 102.633 136.982 117.046 136.982 117.046L134.527 145.132L127.163 144.464L125.154 97.5148L118.013 113.313L118.682 115.538L117.79 116.094C117.79 116.094 118.459 120.433 118.013 120.433C117.566 120.433 116.45 121.101 116.45 121.101L117.343 144.019L109.755 143.797L107.077 111.533L109.978 93.0647L110.202 89.5045L111.206 89.5457L111.717 88.0582L112.656 85.4994L138.768 87.0569Z" fill="#E0E0E0"/>
<path d="M139.154 88.1788L139.194 88.1232C141.318 85.158 138.123 78.0328 137.641 76.9999L139.671 76.3432L139.214 72.4698L138.997 70.743L140.548 69.1964L140.553 69.1579L141.446 61.3701L142.743 56.1975C143.233 54.2421 143.191 52.1921 142.623 50.2581C142.055 48.324 140.98 46.5756 139.511 45.1922L136.51 42.3718L132.864 36.9928H126.984L124.968 40.7896C123.014 41.24 121.279 42.3598 120.068 43.9539C118.856 45.5481 118.244 47.5155 118.337 49.5135L118.794 59.4713L117.006 71.8696L117.004 74.1134L114.991 76.3439L115.431 78.5352L113.899 79.1898L113.223 82.337C112.943 82.7054 111.095 85.1618 111.095 85.8334C111.095 85.9342 111.169 86.0317 111.33 86.1398C112.589 86.99 119.549 88.7232 122.63 87.4942C125.911 86.1861 138.955 88.1485 139.086 88.1684L139.154 88.1788Z" fill="#39A798"/>
<path d="M129.166 35.2564C133.467 35.2564 136.953 31.7803 136.953 27.4924C136.953 23.2045 133.467 19.7285 129.166 19.7285C124.865 19.7285 121.379 23.2045 121.379 27.4924C121.379 31.7803 124.865 35.2564 129.166 35.2564Z" fill="#FFB8B8"/>
<path d="M128.419 35.382C129.625 35.3697 130.828 35.2547 132.014 35.0383C133.189 34.7686 135.78 32.7708 136.486 31.5905C137.011 30.7137 137.326 29.3573 137.498 28.3739C137.73 27.0725 137.685 25.737 137.367 24.454C137.048 23.1709 136.463 21.9688 135.649 20.9256C135.335 20.4885 134.908 20.1442 134.414 19.929C134.371 19.9132 134.326 19.8994 134.28 19.8878C133.564 19.7195 132.915 19.3417 132.416 18.8028C132.319 18.6937 132.214 18.5917 132.103 18.4976C131.543 18.0506 130.885 17.7421 130.182 17.5973C129.047 17.3256 127.424 17.6661 125.357 18.6102C124.319 19.0846 123.167 18.9522 122.279 18.7839C122.229 18.7757 122.178 18.7805 122.13 18.7981C122.083 18.8156 122.041 18.8452 122.009 18.8839C121.642 19.2453 121.152 19.4549 120.636 19.4707C120.321 19.4926 120.001 19.937 119.616 20.5156C119.528 20.647 119.426 20.8003 119.352 20.8938L119.337 20.7182L119.164 20.919C118.891 21.2348 118.703 21.6142 118.617 22.0219C118.53 22.4296 118.549 22.8525 118.671 23.251C118.793 23.6496 119.014 24.0108 119.314 24.3012C119.614 24.5916 119.982 24.8017 120.385 24.9118C120.705 24.9879 121.032 25.0312 121.36 25.0411C121.56 25.0538 121.766 25.067 121.964 25.096C122.599 25.2088 123.195 25.484 123.692 25.8948C124.189 26.3055 124.571 26.8378 124.8 27.4396C124.854 27.5787 124.94 27.7035 125.05 27.8044C125.16 27.9053 125.292 27.9796 125.435 28.0216C125.579 28.0636 125.73 28.0722 125.878 28.0466C126.025 28.021 126.165 27.962 126.286 27.8742C126.487 27.7095 126.725 27.5959 126.979 27.5428C127.234 27.4898 127.498 27.4989 127.748 27.5695C127.966 27.683 128.138 27.8677 128.235 28.0925C128.353 28.3428 128.543 28.5525 128.781 28.6948C129.592 29.0855 129.694 30.9061 129.446 32.4323C129.207 33.9035 128.687 34.9767 128.181 35.0421C127.792 35.0924 127.748 35.1212 127.721 35.1908L127.698 35.253L127.743 35.3095C127.961 35.3819 128.191 35.4066 128.419 35.382Z" fill="#E0E0E0"/>
<path d="M121.957 60.1932L118.214 55.4381C114.401 56.4849 107.636 62.497 107.636 62.497L93.7423 68.5083C93.2786 68.4306 92.8025 68.4761 92.362 68.6401C91.9216 68.8042 91.5322 69.0811 91.2331 69.4429C90.9341 69.8046 90.7359 70.2386 90.6585 70.701C90.5812 71.1634 90.6274 71.638 90.7925 72.077C90.9575 72.516 91.2357 72.9038 91.5989 73.2016C91.9621 73.4993 92.3976 73.6964 92.8615 73.7729C93.3254 73.8495 93.8014 73.8029 94.2415 73.6378C94.6816 73.4727 95.0702 73.1949 95.3684 72.8324L113.569 67.77L121.957 60.1932Z" fill="#FFB8B8"/>
<path d="M121.06 61.2802L126.967 54.716L127.294 50.0648C127.356 49.1515 127.159 48.2393 126.727 47.4314C126.296 46.6235 125.646 45.9521 124.852 45.493C123.771 44.8779 122.496 44.695 121.285 44.9812C120.074 45.2674 119.017 46.0014 118.328 47.0348C116.241 50.1706 113.996 54.4103 115.152 56.8007L115.163 56.8249L121.06 61.2802Z" fill="#39A798"/>
<path d="M66.6252 85.9526L51.275 78.1145C50.1832 77.557 49.8215 76.0782 50.4688 74.818L60.4774 55.3338C61.1247 54.0736 62.5397 53.502 63.6315 54.0595L78.9817 61.8976C80.0735 62.4552 80.4352 63.934 79.7879 65.1941L69.7793 84.6783C69.132 85.9385 67.717 86.5101 66.6252 85.9526Z" fill="#E6E6E6"/>
<path d="M64.0027 82.3496L53.5737 77.0243C52.5511 76.5022 52.2123 75.1172 52.8185 73.937L61.1335 57.7499C61.7398 56.5697 63.0649 56.0344 64.0875 56.5565L76.6837 62.9884C77.7063 63.5106 78.045 64.8955 77.4388 66.0757L72.9216 74.8694C70.2213 80.1263 68.5577 84.6755 64.0027 82.3496Z" fill="white"/>
<path d="M69.1585 73.5099L59.9212 68.7931C59.8082 68.7128 59.728 68.5948 59.6952 68.4604C59.6623 68.3261 59.679 68.1845 59.7422 68.0614C59.8054 67.9383 59.911 67.842 60.0395 67.7901C60.168 67.7382 60.311 67.7341 60.4423 67.7786L69.6797 72.4954C69.7926 72.5756 69.8728 72.6937 69.9057 72.828C69.9386 72.9623 69.9219 73.104 69.8586 73.2271C69.7954 73.3501 69.6899 73.4464 69.5614 73.4983C69.4328 73.5503 69.2899 73.5544 69.1585 73.5099Z" fill="#39A798"/>
<path d="M60.9999 71.8736L58.8919 70.7972C58.7789 70.7169 58.6987 70.5989 58.6659 70.4645C58.633 70.3302 58.6497 70.1885 58.7129 70.0655C58.7762 69.9424 58.8817 69.8461 59.0102 69.7942C59.1387 69.7422 59.2817 69.7382 59.413 69.7826L61.5211 70.8591C61.634 70.9393 61.7143 71.0574 61.7471 71.1917C61.78 71.326 61.7633 71.4677 61.7001 71.5908C61.6368 71.7138 61.5313 71.8101 61.4028 71.8621C61.2742 71.914 61.1313 71.9181 60.9999 71.8736Z" fill="#39A798"/>
<path d="M63.7043 75.7847L57.8626 72.8018C57.7496 72.7216 57.6694 72.6035 57.6366 72.4692C57.6037 72.3348 57.6204 72.1932 57.6836 72.0701C57.7469 71.9471 57.8524 71.8508 57.9809 71.7988C58.1094 71.7469 58.2524 71.7428 58.3837 71.7873L64.2254 74.7702C64.3384 74.8504 64.4186 74.9685 64.4515 75.1028C64.4843 75.2372 64.4676 75.3788 64.4044 75.5019C64.3412 75.625 64.2356 75.7213 64.1071 75.7732C63.9786 75.8251 63.8356 75.8292 63.7043 75.7847V75.7847Z" fill="#39A798"/>
<path d="M72.8138 66.3935L63.5765 61.6767C63.4635 61.5965 63.3833 61.4784 63.3504 61.3441C63.3176 61.2098 63.3343 61.0681 63.3975 60.945C63.4607 60.822 63.5662 60.7257 63.6948 60.6738C63.8233 60.6218 63.9663 60.6177 64.0976 60.6622L73.3349 65.379C73.4479 65.4592 73.5281 65.5773 73.561 65.7117C73.5938 65.846 73.5771 65.9876 73.5139 66.1107C73.4507 66.2338 73.3452 66.3301 73.2167 66.382C73.0881 66.4339 72.9451 66.438 72.8138 66.3935Z" fill="#39A798"/>
<path d="M64.6562 64.7576L62.5481 63.6812C62.4352 63.601 62.355 63.4829 62.3221 63.3485C62.2893 63.2142 62.306 63.0726 62.3692 62.9495C62.4324 62.8264 62.5379 62.7301 62.6665 62.6782C62.795 62.6263 62.938 62.6222 63.0693 62.6667L65.1774 63.7431C65.2903 63.8233 65.3705 63.9414 65.4034 64.0757C65.4362 64.2101 65.4195 64.3517 65.3563 64.4748C65.2931 64.5978 65.1876 64.6941 65.059 64.7461C64.9305 64.798 64.7875 64.8021 64.6562 64.7576Z" fill="#39A798"/>
<path d="M67.3595 68.6686L61.5179 65.6857C61.4049 65.6055 61.3247 65.4874 61.2918 65.3531C61.259 65.2187 61.2757 65.0771 61.3389 64.954C61.4021 64.8309 61.5076 64.7347 61.6362 64.6827C61.7647 64.6308 61.9077 64.6267 62.039 64.6712L67.8807 67.6541C67.9936 67.7343 68.0739 67.8524 68.1067 67.9867C68.1396 68.1211 68.1229 68.2627 68.0597 68.3858C67.9964 68.5089 67.8909 68.6051 67.7624 68.6571C67.6338 68.709 67.4909 68.7131 67.3595 68.6686L67.3595 68.6686Z" fill="#39A798"/>
<path d="M53.9063 68.99L50.4385 56.1184L59.7054 54.3694L59.2071 63.2043L71.383 75.7042C72.0276 75.6779 72.6659 75.8392 73.2202 76.1684C73.7744 76.4976 74.2206 76.9805 74.5044 77.5581C74.7882 78.1358 74.8972 78.7833 74.8183 79.4217C74.7393 80.06 74.4758 80.6617 74.0598 81.1534C73.6438 81.645 73.0933 82.0053 72.4754 82.1904C71.8576 82.3755 71.1991 82.3774 70.5802 82.1958C69.9613 82.0142 69.4088 81.6569 68.99 81.1677C68.5712 80.6784 68.3042 80.0782 68.2216 79.4403L53.9063 68.99Z" fill="#A0616A"/>
<path d="M49.4882 41.6866C46.3427 44.1625 50.38 58.0112 50.38 58.0112C51.005 57.3273 51.7314 67.4355 52.4955 67.0913C54.6669 66.1131 58.6469 62.7398 60.1813 63.0148C61.0587 63.172 60.1394 56.3287 60.1394 56.3287C60.1394 56.3287 59.9703 52.4049 59.6525 47.3607C59.5892 45.933 59.1646 44.5444 58.4183 43.3243C57.6719 42.1042 56.6281 41.0922 55.3839 40.3825C55.3839 40.3825 52.6337 39.2108 49.4882 41.6866Z" fill="#3F3D56"/>
<path d="M101.829 97.5592L93.4522 93.6156C93.273 93.5317 93.1153 93.4085 92.9907 93.2551C92.8661 93.1018 92.778 92.9223 92.733 92.7302C92.6876 92.5422 92.6854 92.3465 92.7268 92.1576C92.7681 91.9687 92.8518 91.7916 92.9716 91.6396C95.398 88.5477 97.0641 84.9321 97.8363 81.0825C97.8947 80.7877 98.0538 80.5223 98.2865 80.3314C98.5192 80.1404 98.8111 80.0359 99.1125 80.0356C103.385 80.05 106.577 81.6053 108.602 84.6576C108.709 84.8164 108.78 84.9964 108.809 85.1852C108.839 85.3741 108.827 85.5671 108.775 85.7509C107.602 89.7794 105.818 93.6053 103.485 97.0957C103.312 97.3595 103.049 97.5519 102.744 97.6371C102.439 97.7223 102.114 97.6947 101.829 97.5592Z" fill="#E6E6E6"/>
<path d="M104.292 92.0282L97.8875 89.0128C97.7282 88.9378 97.6053 88.8027 97.5458 88.6373C97.4863 88.4719 97.4952 88.2898 97.5705 88.1309C97.6457 87.9721 97.7811 87.8495 97.947 87.7902C98.1129 87.7309 98.2956 87.7397 98.4549 87.8148L104.86 90.8302C104.939 90.8673 105.009 90.9196 105.068 90.984C105.127 91.0484 105.172 91.1237 105.201 91.2056C105.231 91.2875 105.244 91.3744 105.24 91.4613C105.235 91.5481 105.214 91.6334 105.177 91.712C105.14 91.7907 105.087 91.8613 105.023 91.9197C104.958 91.9782 104.882 92.0234 104.8 92.0527C104.718 92.0821 104.631 92.095 104.544 92.0908C104.457 92.0866 104.371 92.0653 104.292 92.0282H104.292Z" fill="white"/>
<path d="M105.286 89.9274L98.8817 86.9121C98.7223 86.8371 98.5994 86.702 98.54 86.5366C98.4805 86.3712 98.4894 86.1891 98.5646 86.0302C98.6398 85.8713 98.7753 85.7488 98.9412 85.6895C99.107 85.6302 99.2897 85.639 99.4491 85.7141L105.854 88.7294C106.013 88.8045 106.136 88.9395 106.196 89.1049C106.255 89.2703 106.246 89.4524 106.171 89.6113C106.096 89.7702 105.96 89.8927 105.794 89.952C105.629 90.0113 105.446 90.0025 105.286 89.9275V89.9274Z" fill="white"/>
<path d="M96.7295 23.9813L96.1333 24.0464C93.4751 13.6316 88.3226 6.41632 81.2324 3.18048C72.219 -0.932855 61.0736 1.82932 49.8492 10.9583C38.5677 20.1339 28.5806 34.6273 21.7279 51.7695L21.1494 51.5055C28.0322 34.2885 38.0706 19.725 49.4152 10.4984C60.8168 1.22522 72.1897 -1.55722 81.4389 2.66382C88.7325 5.99238 94.0198 13.3639 96.7295 23.9813Z" fill="#F2F2F2"/>
<path d="M30.9529 37.5454C29.3937 40.8201 27.9108 44.2126 26.5451 47.6288C18.6862 67.2876 14.7037 87.3644 15.0292 105.69L14.4149 105.624C14.0892 87.2309 18.0831 67.0849 25.9666 47.3649C27.3362 43.9391 28.8234 40.5369 30.387 37.253L30.9529 37.5454Z" fill="#F2F2F2"/>
<path d="M30.6589 51.0531C29.0998 54.3277 27.6168 57.7203 26.2511 61.1365C18.3923 80.7952 14.4098 100.872 14.7352 119.197L14.121 119.132C13.7952 100.739 17.7892 80.5926 25.6726 60.8725C27.0422 57.4467 28.5294 54.0446 30.0931 50.7606L30.6589 51.0531Z" fill="#F2F2F2"/>
<path d="M14.1504 55.9656C14.8294 54.9481 14.4275 53.4916 13.2528 52.7124C12.0781 51.9332 10.5754 52.1263 9.89639 53.1438C9.21741 54.1614 9.61929 55.6179 10.794 56.3971C11.9687 57.1763 13.4714 56.9831 14.1504 55.9656Z" fill="#CCCCCC"/>
<path d="M158.731 92.7109C159.41 91.6934 159.009 90.2368 157.834 89.4576C156.659 88.6784 155.156 88.8716 154.477 89.8891C153.798 90.9066 154.2 92.3631 155.375 93.1423C156.55 93.9215 158.052 93.7284 158.731 92.7109Z" fill="#CCCCCC"/>
</g>
<defs>
<clipPath id="clip0_821_772">
<rect width="190.12" height="153.739" fill="white" transform="translate(0.824219 0.741516)"/>
</clipPath>
</defs>
</svg>
