<svg width="213" height="152" viewBox="0 0 213 152" fill="none" xmlns="http://www.w3.org/2000/svg">
<g clip-path="url(#clip0_821_830)">
<path d="M171.836 96.4428C172.025 96.4603 172.214 96.4193 172.379 96.3255C172.544 96.2316 172.676 96.0893 172.757 95.9179C172.838 95.7465 172.865 95.5544 172.833 95.3674C172.802 95.1804 172.713 95.0077 172.58 94.8726C172.561 94.7789 172.547 94.7116 172.528 94.6179C172.538 94.5982 172.547 94.5784 172.556 94.5587C172.768 94.1173 173.105 93.7482 173.526 93.4979C173.947 93.2476 174.432 93.1271 174.921 93.1517C175.41 93.1763 175.881 93.3448 176.274 93.6361C176.668 93.9273 176.966 94.3283 177.133 94.7888C177.797 96.6265 178.666 98.4768 178.812 100.394C178.876 101.241 178.793 102.093 178.566 102.912C180.502 99.159 181.609 95.0332 181.812 90.8145C181.861 89.7559 181.852 88.6953 181.783 87.6377C181.726 86.7706 181.631 85.9079 181.498 85.0497C180.77 80.3925 178.948 75.9743 176.181 72.158C174.796 71.316 173.701 70.0693 173.046 68.5861C172.808 68.0529 172.649 67.488 172.573 66.9091C172.732 66.9377 172.895 66.9584 173.055 66.9764C173.104 66.9813 173.157 66.9864 173.207 66.9914L173.226 66.9931C173.401 67.0092 173.578 66.9741 173.735 66.8921C173.891 66.81 174.021 66.6845 174.107 66.5306C174.194 66.3768 174.235 66.2011 174.224 66.0247C174.213 65.8484 174.152 65.6789 174.047 65.5368C173.981 65.4483 173.916 65.3599 173.851 65.2715C173.752 65.1351 173.65 65.0012 173.551 64.8649C173.539 64.8518 173.528 64.8381 173.518 64.8238C173.404 64.6683 173.29 64.5154 173.176 64.3599C173.413 64.0275 173.724 63.7542 174.083 63.5615C175.329 62.9079 176.978 63.4775 177.803 64.6148C178.63 65.7522 178.724 67.2983 178.355 68.6541C178.001 69.8059 177.453 70.889 176.736 71.857C176.798 71.9442 176.862 72.0289 176.924 72.1161C178.054 73.7174 179.024 75.4255 179.821 77.2159C179.698 75.2459 180.045 73.2751 180.834 71.4654C181.625 69.7815 183.027 68.3976 184.271 66.9679C185.765 65.2507 188.622 66.1635 188.766 68.4352C188.767 68.4572 188.768 68.4792 188.77 68.5012C188.591 68.5915 188.415 68.688 188.243 68.7908C188.026 68.9213 187.854 69.1141 187.749 69.344C187.644 69.574 187.611 69.8303 187.654 70.0793C187.697 70.3284 187.815 70.5586 187.991 70.7399C188.167 70.9211 188.394 71.0448 188.642 71.0949L188.667 71.1001C188.576 71.7261 188.437 72.3442 188.252 72.9492C187.718 74.6372 186.842 76.1968 185.677 77.5303C184.513 78.8637 183.085 79.9422 181.484 80.6982C181.379 80.746 181.277 80.7939 181.172 80.8391C181.938 83.3802 182.37 86.01 182.457 88.6625C182.504 90.2272 182.424 91.7931 182.218 93.3449L182.229 93.29C182.646 91.5732 183.643 90.0531 185.051 88.9862C187.142 87.4259 190.015 86.9493 192.249 85.7209C192.487 85.5834 192.759 85.5168 193.034 85.5289C193.308 85.541 193.573 85.6313 193.798 85.7892C194.023 85.9471 194.198 86.1659 194.302 86.4199C194.407 86.6739 194.436 86.9525 194.387 87.2228C194.384 87.242 194.38 87.2612 194.376 87.2804C194.046 87.3972 193.724 87.5345 193.411 87.6914C193.232 87.7817 193.056 87.8783 192.884 87.981C192.667 88.1115 192.495 88.3043 192.39 88.5343C192.285 88.7642 192.252 89.0205 192.295 89.2696C192.338 89.5186 192.456 89.7489 192.632 89.9301C192.808 90.1113 193.035 90.2351 193.283 90.2852L193.308 90.2903C193.326 90.2938 193.342 90.2972 193.36 90.3007C192.746 91.596 191.912 92.7758 190.897 93.7884C189.645 95.0131 188.155 95.969 186.52 96.5976C184.884 97.2261 183.138 97.514 181.387 97.4436L181.385 97.4435C180.813 99.4856 180.032 101.463 179.052 103.343L171.715 103.002C171.692 102.919 171.672 102.834 171.653 102.751C172.33 102.826 173.013 102.817 173.688 102.725C173.175 102.032 172.662 101.333 172.149 100.64C172.137 100.627 172.126 100.613 172.116 100.599C171.856 100.244 171.593 99.8918 171.333 99.5371L171.333 99.5367C171.367 98.4882 171.536 97.4484 171.836 96.4429L171.836 96.4428Z" fill="#F2F2F2"/>
<path d="M24.0043 33.0014C23.8169 33.0305 23.6251 33.0014 23.4548 32.9179C23.2845 32.8343 23.1441 32.7005 23.0524 32.5345C22.9608 32.3684 22.9224 32.1782 22.9424 31.9897C22.9625 31.8011 23.04 31.6232 23.1645 31.4802C23.1777 31.3855 23.1871 31.3175 23.2003 31.2228C23.1898 31.2037 23.1793 31.1845 23.1687 31.1654C22.9302 30.7379 22.5707 30.3904 22.1354 30.1666C21.7 29.9427 21.2082 29.8525 20.7217 29.9072C20.2352 29.9619 19.7758 30.1592 19.4011 30.4742C19.0264 30.7892 18.7531 31.208 18.6156 31.6778C18.0657 33.553 17.3127 35.4535 17.2855 37.376C17.2739 38.2257 17.4098 39.071 17.6871 39.8743C15.5221 36.2479 14.1623 32.1983 13.6997 28.0002C13.5847 26.9467 13.5287 25.8875 13.532 24.8276C13.5355 23.9587 13.5771 23.0918 13.6569 22.227C14.0954 17.5337 15.6409 13.0115 18.1666 9.03149C19.4978 8.10542 20.5131 6.79356 21.0758 5.27269C21.28 4.72577 21.404 4.15216 21.444 3.56971C21.2866 3.60801 21.1258 3.63874 20.9673 3.66656C20.9178 3.67457 20.8658 3.6829 20.8163 3.69093L20.7976 3.69381C20.623 3.72077 20.4444 3.69668 20.2832 3.62446C20.1219 3.55224 19.985 3.43496 19.8889 3.28673C19.7928 3.13851 19.7416 2.96566 19.7414 2.789C19.7412 2.61234 19.7921 2.4394 19.888 2.291C19.9477 2.19868 20.0074 2.10639 20.0672 2.01415C20.1577 1.8719 20.251 1.73199 20.3415 1.58977C20.3522 1.57603 20.3621 1.56168 20.3712 1.54679C20.4754 1.38452 20.5798 1.22489 20.684 1.06262C20.4272 0.745459 20.1005 0.491913 19.7296 0.321748C18.4462 -0.253618 16.8349 0.416794 16.0821 1.60288C15.3267 2.78923 15.3284 4.33815 15.7803 5.66858C16.205 6.79629 16.8186 7.84349 17.5948 8.7653C17.5384 8.85618 17.4792 8.9447 17.4229 9.03557C16.3941 10.7035 15.5313 12.4683 14.8468 14.3046C14.8472 12.3308 14.3789 10.3851 13.4805 8.62761C12.5863 6.99587 11.102 5.70114 9.77211 4.35107C8.17468 2.72943 5.37902 3.81705 5.37626 6.09328C5.37624 6.11532 5.37627 6.13734 5.37635 6.15936C5.56068 6.23844 5.74199 6.32394 5.92029 6.41585C6.14443 6.53273 6.32804 6.71458 6.44705 6.93759C6.56607 7.1606 6.61494 7.41435 6.58727 7.66561C6.5596 7.91686 6.45668 8.1539 6.29198 8.34567C6.12729 8.53743 5.9085 8.67498 5.66429 8.74028L5.63929 8.74697C5.76924 9.36613 5.94606 9.97451 6.16825 10.5669C6.80503 12.2187 7.77622 13.7212 9.02093 14.9802C10.2656 16.2391 11.757 17.2274 13.4015 17.8829C13.5093 17.9242 13.6145 17.9657 13.7219 18.0043C13.1146 20.5879 12.8458 23.2394 12.9222 25.8923C12.9723 27.4568 13.1489 29.0148 13.4502 30.5509L13.4363 30.4968C12.9138 28.8091 11.8248 27.3534 10.3532 26.3756C8.17018 24.9474 5.27304 24.6492 2.9672 23.5612C2.7214 23.4387 2.44568 23.389 2.17257 23.418C1.89946 23.447 1.64034 23.5536 1.42579 23.725C1.21124 23.8965 1.05019 24.1257 0.96165 24.3857C0.873108 24.6457 0.86076 24.9255 0.926065 25.1923C0.931057 25.2112 0.936101 25.2302 0.941194 25.2491C1.27775 25.3453 1.60798 25.4624 1.92997 25.5997C2.1143 25.6788 2.29561 25.7643 2.4739 25.8562C2.69805 25.973 2.88166 26.1549 3.00067 26.3779C3.11969 26.6009 3.16856 26.8547 3.14089 27.1059C3.11322 27.3572 3.01029 27.5942 2.8456 27.786C2.6809 27.9777 2.46212 28.1153 2.21791 28.1806L2.19289 28.1873C2.17486 28.1919 2.15943 28.1962 2.14143 28.2008C2.8351 29.4557 3.73959 30.5818 4.8153 31.5298C6.14132 32.6747 7.68723 33.5368 9.35826 34.0631C11.0293 34.5894 12.7902 34.7688 14.533 34.5904L14.5357 34.5902C15.2319 36.5931 16.1344 38.5183 17.2287 40.3346L24.5304 39.5405C24.5478 39.4565 24.5622 39.3702 24.577 39.2865C23.9057 39.4025 23.2228 39.4359 22.5435 39.3859C23.0129 38.6622 23.4818 37.9333 23.9512 37.2097C23.9619 37.1959 23.9719 37.1816 23.981 37.1667C24.2188 36.7966 24.4594 36.4289 24.6972 36.0588L24.6973 36.0583C24.5985 35.0139 24.3657 33.9865 24.0045 33.0016L24.0043 33.0014Z" fill="#F2F2F2"/>
<path d="M124.883 30.2959C125.245 30.3954 125.58 30.5728 125.865 30.8158C126.151 31.0588 126.379 31.3614 126.535 31.7024C126.691 32.0433 126.77 32.4142 126.767 32.789C126.764 33.1638 126.679 33.5334 126.517 33.8717L130.436 38.2279L128.369 41.2546L122.922 35.0252C122.372 34.7164 121.954 34.2165 121.747 33.6202C121.541 33.0238 121.56 32.3725 121.802 31.7895C122.044 31.2066 122.491 30.7326 123.059 30.4573C123.627 30.182 124.276 30.1246 124.883 30.2959Z" fill="#A0616A"/>
<path d="M161.567 40.9925C161.213 40.4175 160.75 39.918 160.204 39.5225C159.657 39.127 159.037 38.8433 158.381 38.6878C157.724 38.5322 157.043 38.5077 156.377 38.6158C155.711 38.724 155.073 38.9625 154.499 39.3178L141.613 47.2986L127.712 35.4831L124.254 38.703L139.61 58.6259L159.569 48.2217C159.103 48.4645 162.13 41.9085 161.567 40.9925Z" fill="#39A798"/>
<path d="M136.04 67.5288C136.041 73.8929 134.788 80.1949 132.353 86.0748C129.918 91.9548 126.349 97.2974 121.849 101.797C117.348 106.298 112.005 109.867 106.125 112.302C100.245 114.737 93.9428 115.989 87.5784 115.988C60.8144 115.988 39.1172 94.2917 39.1172 67.5288C39.1126 62.323 39.9471 57.1505 41.5887 52.2103C44.8117 42.5621 50.9862 34.1711 59.2392 28.224C67.4921 22.2768 77.4058 19.0744 87.5784 19.0695C96.3517 19.0665 104.961 21.4458 112.488 25.9536C120.014 30.4613 126.175 36.9283 130.313 44.6641C131.339 46.5727 132.234 48.5488 132.992 50.5788C133.097 50.8615 133.199 51.1441 133.299 51.4295V51.4322C133.743 52.6868 134.134 53.9646 134.473 55.2659C135.516 59.2699 136.043 63.391 136.04 67.5288Z" fill="#39A798"/>
<path d="M82.2769 34.8341C80.099 33.6564 77.681 32.9916 75.2072 32.8904C72.7334 32.7892 70.2692 33.2542 68.0024 34.2501C66.0066 35.1186 63.9051 36.6767 63.2393 39.4903C65.932 37.9012 69.4178 40.412 70.1107 44.4398L69.949 44.4844C69.583 47.2743 70.4 50.3117 71.9817 52.0416C72.1894 50.2447 73.3709 49.0218 74.5331 48.2578C75.6952 47.4939 76.9809 46.939 77.8679 45.6259C78.9195 44.0691 79.1865 41.794 79.6043 39.7186C80.022 37.6431 80.8146 35.4124 82.2769 34.8341Z" fill="white"/>
<path d="M67.2023 58.5749C66.4566 59.6948 65.4604 60.3975 64.5666 61.2724C63.6755 62.1501 62.8273 63.3346 62.6497 64.8557C62.5366 65.8303 62.7116 66.821 62.6873 67.8064C62.6631 68.7917 62.3347 69.9009 61.6643 70.1459C60.6062 70.5281 59.7985 68.5629 58.7109 68.4256C57.8466 68.3179 57.0686 69.6774 57.3189 70.8566C57.5693 72.0358 58.7459 72.558 59.4216 71.7881C60.0328 72.8138 59.602 74.6741 58.6839 74.9891C58.587 75.6352 58.4901 76.2787 58.3958 76.9248C56.0751 75.3014 53.7301 73.6511 51.7567 71.2739C49.5619 68.6524 48.2005 65.4349 47.8475 62.0343C47.5917 59.3018 47.9713 56.1761 46.7167 54.0736C45.7125 52.391 43.9894 52.0194 42.4386 52.1244C42.156 52.1433 41.8706 52.1756 41.5879 52.2106C42.5024 49.4639 43.664 46.8057 45.0582 44.2686C45.3738 44.1332 45.6669 43.9508 45.9278 43.7275C47.3709 42.5026 48.0117 40.0231 49.1828 38.3081C49.2582 38.1977 49.3363 38.0901 49.4171 37.9851C50.6151 36.4209 52.2197 35.6159 53.7705 34.8675C57.2032 33.2011 60.7354 31.5131 64.3593 31.7446L63.3281 31.8442C62.1247 35.2148 60.9203 38.5854 59.7151 41.956C59.532 42.4729 59.3471 42.9907 59.1605 43.5094C58.4766 45.4262 57.7713 47.4669 57.8763 49.6126C57.9382 50.8833 58.3797 52.2402 59.2197 52.6763C60.0031 53.0801 60.8593 52.5848 61.6158 52.0948C61.9362 51.8902 62.2539 51.6856 62.5743 51.4783C63.7239 50.7379 64.9973 49.9787 66.2116 50.4741C67.3235 50.9264 68.1446 52.4367 68.3008 54.0655C68.444 55.6488 68.0576 57.2348 67.2023 58.5749Z" fill="white"/>
<path d="M74.0404 81.5866C70.6828 79.5195 67.3253 77.4523 63.9677 75.3851L64.0247 75.2383C61.9371 76.0334 61.0704 79.744 61.4154 82.7785C61.7604 85.813 62.9303 88.5256 63.5212 91.4823C64.3181 95.5285 64.0173 99.7143 62.6502 103.605C67.0652 98.6513 70.9724 93.2675 74.3132 87.5344C74.7799 86.8118 75.1355 86.0233 75.3682 85.1952C75.5815 84.3141 75.5487 83.255 75.1215 82.5485C74.8467 82.143 74.4751 81.8124 74.0404 81.5866Z" fill="white"/>
<path d="M60.7874 43.978C60.4308 44.7795 60.2937 45.8484 60.6172 46.6778C60.9476 47.5248 61.6461 47.9076 62.2893 48.2263L64.1445 49.1459C64.7617 49.4518 65.4269 49.7608 66.0561 49.5091C66.815 49.2055 67.3411 48.0159 67.205 46.9114C67.0601 45.7362 66.3193 44.9278 65.6341 44.2393C64.6753 43.2759 63.7165 42.3125 62.7576 41.3491L62.2173 42.011C61.6328 42.581 61.1493 43.2461 60.7874 43.978Z" fill="white"/>
<path d="M126.093 56.5422C126.927 56.7387 127.762 56.9352 128.597 57.1318C128.451 59.9505 127.054 62.5592 125.18 63.5041C124.399 63.8972 123.53 64.0426 122.884 64.7776C122.299 65.4452 122.003 66.4844 121.731 67.4778C121.255 69.2116 120.778 70.9453 120.302 72.6791C119.79 74.5475 119.133 76.6232 117.803 77.2962C116.662 77.875 115.356 77.167 114.478 75.9797C113.601 74.7925 113.065 73.196 112.545 71.6399C112.578 73.336 111.789 74.9998 110.671 75.5894C109.551 76.1789 108.189 75.6459 107.441 74.3294C106.902 73.3845 106.679 72.138 106.151 71.1796C105.623 70.2212 104.517 69.6719 103.941 70.5711C103.561 71.1688 103.609 72.0841 103.421 72.8433C103.128 74.0225 102.239 74.7628 101.359 74.8275C100.481 74.8921 99.6249 74.386 98.8899 73.6994C97.3742 72.278 96.2569 70.0219 95.8234 67.5155C95.6323 66.3982 95.5784 65.1814 95.9096 64.1341C96.2407 63.0869 97.0403 62.2792 97.8345 62.4784C98.3569 61.3746 97.3257 59.9101 96.3968 60.0393C95.4653 60.1685 94.7357 61.1673 93.9711 61.9346C93.2092 62.7019 92.1431 63.2592 91.3757 62.4973C91.3811 63.2053 90.805 63.6738 90.3069 63.6145C89.8115 63.558 89.37 63.1596 88.915 62.8769C87.1569 61.7811 84.925 62.508 83.6758 64.581C84.4566 61.2589 85.6008 57.4467 87.9996 56.666C88.9796 56.3456 90.0484 56.6095 90.9746 56.0549C92.6142 55.0722 92.9453 51.3597 91.5292 49.8279C91.7096 51.2762 91.6746 52.9669 90.91 53.9577C90.1454 54.9484 88.5407 54.3022 88.6377 52.8377C88.4169 53.8473 87.3185 54.0007 86.8123 53.2254C86.3035 52.4501 86.3465 51.182 86.7073 50.2559C87.0681 49.3298 87.6819 48.6648 88.2769 48.0268C89.5557 46.6565 90.8534 45.27 92.3342 44.4085C93.8176 43.547 95.5299 43.2562 97.0161 44.1124C97.7996 44.5646 98.4888 45.3185 99.2884 45.7169C100.088 46.118 101.103 46.0669 101.633 45.13C102.228 44.0854 101.948 42.5347 102.169 41.229C102.565 38.9218 104.872 37.8423 106.151 39.366C105.195 39.121 104.207 40.2518 104.089 41.6221C103.968 42.9924 104.66 44.3762 105.586 44.7908C107.142 45.48 108.666 43.7462 109.842 42.1417C111.07 40.4618 112.299 38.7827 113.531 37.1046C113.727 36.8189 113.948 36.5505 114.19 36.3024C114.576 35.9265 115.09 35.7113 115.628 35.7003C116.167 35.6893 116.689 35.8833 117.09 36.2431C118.334 37.2581 118.918 39.3391 119.938 40.7714C121.419 42.8524 123.635 43.3585 125.697 43.7624C127.234 44.0612 128.773 44.3618 130.312 44.6643C131.338 46.5729 132.233 48.549 132.99 50.579C130.384 51.6855 127.98 53.7558 126.093 56.5422Z" fill="white"/>
<path d="M131.063 88.9344C129.909 91.2764 128.568 93.521 127.051 95.646C126.082 95.2314 125.04 95.9718 124.133 96.6664C123.185 97.3932 122.046 98.1013 121.074 97.439C120.081 96.7606 119.761 94.8626 120.076 93.3577C120.391 91.8554 121.177 90.6601 121.939 89.524C122.746 88.3179 123.61 87.066 124.733 86.5976C125.859 86.1291 127.304 86.7914 127.633 88.3906L128.43 88.3636C127.983 87.7499 128.217 86.4791 128.817 86.2557C129.509 85.9945 130.11 86.9449 130.519 87.7849C130.702 88.1644 130.888 88.5467 131.063 88.9344Z" fill="white"/>
<path d="M100.541 77.5629C98.8285 77.6707 97.4717 75.562 96.5701 73.4876C95.6684 71.4132 94.8458 69.041 93.3002 67.9852C92.4171 67.3818 91.4102 67.299 90.4523 67.0067C89.4944 66.7143 88.4918 66.1094 88.0339 64.8774L86.9473 64.4385C85.5123 65.2454 84.0583 66.0669 82.8218 67.38C81.435 68.853 80.5712 70.7414 80.3636 72.7539C80.1561 74.9287 80.9225 77.3538 82.3547 78.1708C83.4863 78.8163 84.8039 78.4094 85.9502 79.0004C87.3823 79.7388 88.2326 81.8837 88.5544 84.0015C88.8763 86.1193 88.7947 88.3201 89.025 90.462C89.2553 92.6038 89.8899 94.8325 91.2033 95.9301C92.8469 97.3036 95.2585 96.1623 95.9959 93.662C96.3577 92.4355 96.3452 91.0516 96.6157 89.7786C97.0921 87.5366 98.3777 85.8732 99.3973 84.0341C100.417 82.1951 101.22 79.6972 100.541 77.5629Z" fill="white"/>
<path d="M83.6157 55.5325C83.7755 55.6795 83.9245 55.8378 84.0618 56.006C84.2038 56.2509 84.2764 56.53 84.2715 56.813C84.2667 57.0961 84.1847 57.3725 84.0344 57.6125C84.2407 57.6007 84.4424 57.5463 84.6266 57.4527C84.8108 57.3591 84.9737 57.2282 85.1048 57.0685C85.4174 56.7125 85.6924 56.3251 85.9254 55.9125C86.1001 55.6276 86.286 55.2425 86.1674 54.9041C86.0865 54.6732 85.8951 54.5747 85.761 54.401C85.5483 54.1258 85.4956 53.6885 85.3856 53.3107C85.1479 52.4947 84.5785 51.8947 83.9605 51.8089L84.0463 51.8253C83.7881 51.9137 83.6078 52.3237 83.6649 52.6926C83.7169 53.0286 83.9328 53.3075 83.9113 53.6501C83.8804 54.1428 83.388 54.374 83.3576 54.8668C83.3528 55.114 83.4455 55.3531 83.6157 55.5325Z" fill="white"/>
<path d="M80.6816 47.163C80.6842 47.1623 80.6869 47.1622 80.6895 47.1615C80.7433 47.1124 80.7933 47.0592 80.8388 47.0024L80.6816 47.163Z" fill="#E6E6E6"/>
<path d="M81.1943 49.4724C81.573 49.2289 81.7845 48.5554 81.6593 47.9917C81.5349 47.4314 81.0945 47.0548 80.6882 47.1582C80.5704 47.2777 80.4241 47.3653 80.2631 47.4126C80.1021 47.46 79.9317 47.4657 79.7679 47.4292C79.5168 47.3645 79.241 47.198 79.0232 47.3872C78.8986 47.5285 78.8114 47.6988 78.7696 47.8825C78.6889 48.13 78.6083 48.3775 78.5277 48.6249C78.4894 48.7135 78.4794 48.8118 78.4991 48.9063C78.5145 48.9441 78.5395 48.9774 78.5715 49.0028C78.6035 49.0283 78.6415 49.045 78.6819 49.0516C79.1656 49.1942 79.6494 49.3368 80.1331 49.4794C80.4856 49.5833 80.8662 49.6834 81.1943 49.4724Z" fill="white"/>
<path d="M117.714 81.4014C117.49 81.0353 117.267 80.6692 117.043 80.3031C116.823 79.8792 116.523 79.5022 116.159 79.1932C116.079 79.1262 115.986 79.0758 115.887 79.0451C115.787 79.0144 115.682 79.0039 115.578 79.0143C115.474 79.0247 115.373 79.0558 115.282 79.1057C115.19 79.1556 115.109 79.2234 115.044 79.3049L115.071 79.5141C115.581 80.1535 116.12 80.8638 116.249 81.8128C116.3 82.1869 116.283 82.5741 116.327 82.9499C116.372 83.3256 116.499 83.7153 116.742 83.8773C117.094 84.1125 117.507 83.7657 117.758 83.3425C117.982 82.995 118.082 82.5821 118.043 82.1704C117.987 81.8942 117.875 81.6324 117.714 81.4014Z" fill="white"/>
<path d="M127.665 67.4202C127.73 66.9961 127.794 66.5721 127.859 66.148C127.964 65.6822 127.977 65.2004 127.898 64.7296C127.88 64.6268 127.841 64.5286 127.785 64.4408C127.728 64.3531 127.654 64.2775 127.568 64.2186C127.482 64.1596 127.385 64.1185 127.283 64.0976C127.18 64.0768 127.075 64.0766 126.973 64.097L126.859 64.2745C126.837 65.0919 126.792 65.9826 126.28 66.7919C126.078 67.111 125.815 67.3958 125.607 67.712C125.399 68.0283 125.246 68.4082 125.327 68.6884C125.445 69.095 125.984 69.0959 126.449 68.9335C126.844 68.8119 127.187 68.5607 127.422 68.2205C127.557 67.9733 127.64 67.7008 127.665 67.4202Z" fill="#E6E6E6"/>
<path d="M121.221 81.8778C121.33 81.5636 121.172 81.2031 121.139 80.8557C121.123 80.4071 121.242 79.964 121.481 79.5837C121.717 79.2249 121.897 78.8314 122.013 78.4173C122.061 78.2287 122.052 78.0297 121.987 77.8462C121.913 77.6799 121.734 77.6041 121.631 77.7357L121.851 77.8774C121.554 77.8244 121.249 77.8392 120.958 77.9207C120.792 77.9841 120.644 78.0866 120.526 78.2194C120.408 78.3522 120.324 78.5115 120.281 78.6836C120.245 78.9521 120.185 79.217 120.104 79.4752C119.972 79.745 119.718 79.8348 119.559 80.0716C119.45 80.2816 119.395 80.5153 119.399 80.7518C119.403 80.9882 119.465 81.22 119.581 81.4262C119.782 81.7635 120.1 82.0142 120.475 82.1296C120.744 82.226 121.098 82.2311 121.221 81.8778Z" fill="white"/>
<path d="M127.468 83.7623C127.566 84.0152 127.696 84.254 127.856 84.4727C128.155 84.7739 128.561 84.5888 128.924 84.5156C129.253 84.4636 129.59 84.5017 129.9 84.6258C130.209 84.7498 130.479 84.9553 130.681 85.2204C130.54 84.5187 130.233 83.861 129.786 83.3026C129.338 82.7442 128.763 82.3014 128.109 82.0113C127.253 81.6626 126.353 81.629 125.463 81.5976L125.31 81.637C125.701 82.7765 126.93 82.751 127.468 83.7623Z" fill="white"/>
<path d="M101.012 86.0937L101.014 86.0987C101.029 86.0698 101.044 86.0409 101.059 86.012L101.012 86.0937Z" fill="#E6E6E6"/>
<path d="M100.064 87.9273C99.8573 88.3025 99.6795 88.6929 99.5323 89.0952C99.3373 89.7467 99.2082 90.4162 99.147 91.0935C99.0988 91.4786 99.084 91.9704 99.3253 92.1581C99.3945 92.2041 99.4782 92.2233 99.5606 92.2121C99.643 92.2009 99.7185 92.1601 99.773 92.0973C99.907 91.9555 100.017 91.7924 100.098 91.6148C100.572 90.7981 100.94 89.9242 101.193 89.0144C101.424 88.056 101.422 86.9278 101.014 86.0981C100.697 86.7079 100.381 87.3176 100.064 87.9273Z" fill="white"/>
<path d="M90.9207 39.0601C91.0712 39.2072 91.2615 39.3071 91.4681 39.3474C91.6747 39.3877 91.8886 39.3667 92.0834 39.287C92.4869 39.1106 92.8569 38.8662 93.1775 38.5643C93.4429 38.368 93.6681 38.1223 93.8407 37.8409C93.9358 37.6727 93.9967 37.4874 94.02 37.2956C94.0433 37.1037 94.0284 36.9092 93.9763 36.7232C93.8265 36.285 93.4463 36.1381 93.111 36.0387C92.574 35.8794 92.0371 35.7202 91.5002 35.561L91.8886 35.211C91.489 34.9965 91.0469 35.3945 90.7971 35.8873C90.6369 36.209 90.5252 36.5527 90.4657 36.9072C90.3321 37.6806 90.4628 38.6017 90.9207 39.0601Z" fill="#E6E6E6"/>
<path d="M100.4 35.8778C100.551 36.0447 100.76 36.1477 100.985 36.1659C101.209 36.1842 101.432 36.1164 101.609 35.9762C101.761 35.8622 101.887 35.7175 101.979 35.5516C102.071 35.3857 102.127 35.2022 102.143 35.0132C102.181 34.5908 101.973 34.1214 101.674 34.085L101.743 33.6896C101.168 33.5858 100.461 33.565 100.153 34.2627C100.049 34.53 100.017 34.8198 100.061 35.1032C100.104 35.3867 100.221 35.6538 100.4 35.8778Z" fill="#E6E6E6"/>
<path d="M99.1338 14.8504C95.7655 14.4704 92.3843 15.444 89.7339 17.557C87.0835 19.67 85.3811 22.7492 85.0012 26.1173C84.21 33.1311 87.9052 48.3616 94.6423 54.6664C97.8145 42.5869 108.93 35.4221 110.401 28.9824C111.973 22.1013 106.148 15.6415 99.1338 14.8504Z" fill="#BDBDBD"/>
<path d="M96.8049 30.4428C99.1069 30.4428 100.973 28.5767 100.973 26.2748C100.973 23.9729 99.1069 22.1068 96.8049 22.1068C94.5029 22.1068 92.6367 23.9729 92.6367 26.2748C92.6367 28.5767 94.5029 30.4428 96.8049 30.4428Z" fill="white"/>
<path d="M92.4224 60.6762C93.9302 60.6762 95.1525 59.454 95.1525 57.9463C95.1525 56.4386 93.9302 55.2163 92.4224 55.2163C90.9147 55.2163 89.6924 56.4386 89.6924 57.9463C89.6924 59.454 90.9147 60.6762 92.4224 60.6762Z" fill="#BDBDBD"/>
<path opacity="0.2" d="M100.254 23.2888C100.723 23.5707 101.132 23.9423 101.457 24.3823C101.783 24.8223 102.019 25.3221 102.151 25.8532C102.283 26.3842 102.31 26.9362 102.229 27.4775C102.148 28.0188 101.961 28.5389 101.679 29.0081C101.398 29.4772 101.026 29.8863 100.586 30.2118C100.146 30.5374 99.6461 30.7731 99.115 30.9055C98.0424 31.1729 96.9075 31.0033 95.96 30.4339C96.9261 30.6488 97.9371 30.5129 98.8122 30.0505C99.6872 29.5881 100.369 28.8294 100.736 27.9101C101.103 26.9909 101.13 25.9712 100.814 25.0335C100.497 24.0957 99.8574 23.3013 99.0086 22.7922C99.4477 22.8895 99.8681 23.0572 100.254 23.2888Z" fill="#BDBDBD"/>
<path opacity="0.2" d="M110.418 28.9961C108.947 35.4357 97.8312 42.6006 94.659 54.6801C94.0254 54.0815 93.4369 53.4368 92.8984 52.7514C96.4631 41.397 106.887 34.4977 108.308 28.2758C109.58 22.7071 106.007 17.4148 100.881 15.1791C107.086 16.7391 111.858 22.6903 110.418 28.9961Z" fill="#BDBDBD"/>
<path d="M60.0752 31.1132C57.5458 30.8278 55.0066 31.559 53.0163 33.1458C51.0259 34.7325 49.7475 37.0449 49.4622 39.5743C48.868 44.8413 51.643 56.279 56.7023 61.0136C59.0845 51.9424 67.4322 46.5618 68.5367 41.7258C69.7169 36.5584 65.3425 31.7073 60.0752 31.1132Z" fill="#BDBDBD"/>
<path d="M58.3255 42.8224C60.0542 42.8224 61.4556 41.4211 61.4556 39.6924C61.4556 37.9637 60.0542 36.5624 58.3255 36.5624C56.5967 36.5624 55.1953 37.9637 55.1953 39.6924C55.1953 41.4211 56.5967 42.8224 58.3255 42.8224Z" fill="white"/>
<path d="M55.0326 65.5268C56.1649 65.5268 57.0828 64.6089 57.0828 63.4767C57.0828 62.3445 56.1649 61.4266 55.0326 61.4266C53.9003 61.4266 52.9824 62.3445 52.9824 63.4767C52.9824 64.6089 53.9003 65.5268 55.0326 65.5268Z" fill="#BDBDBD"/>
<path opacity="0.2" d="M60.9148 37.45C61.2671 37.6617 61.5743 37.9408 61.8188 38.2712C62.0633 38.6016 62.2403 38.9769 62.3397 39.3758C62.4392 39.7746 62.4591 40.1891 62.3983 40.5956C62.3375 41.0021 62.1973 41.3927 61.9856 41.745C61.7739 42.0973 61.4948 42.4045 61.1644 42.649C60.834 42.8935 60.4586 43.0705 60.0598 43.1699C59.6609 43.2693 59.2464 43.2892 58.8399 43.2285C58.4333 43.1677 58.0428 43.0275 57.6904 42.8157C58.4159 42.9771 59.1752 42.8751 59.8323 42.5278C60.4894 42.1805 61.0015 41.6108 61.2769 40.9205C61.5523 40.2302 61.573 39.4644 61.3354 38.7602C61.0977 38.056 60.6172 37.4594 59.9799 37.0771C60.3096 37.1501 60.6253 37.2761 60.9148 37.45Z" fill="#BDBDBD"/>
<path opacity="0.2" d="M68.5471 41.736C67.4426 46.572 59.0949 51.9526 56.7128 61.0239C56.2369 60.5743 55.795 60.0902 55.3906 59.5754C58.0675 51.0487 65.8956 45.8675 66.9628 41.1951C67.918 37.0132 65.2349 33.0389 61.385 31.36C66.0453 32.5314 69.6287 37.0006 68.5471 41.736Z" fill="#BDBDBD"/>
<path d="M158.072 144.5H154.635L153 131.244L158.072 131.244L158.072 144.5Z" fill="#A0616A"/>
<path d="M159.922 151.025H157.483L157.048 148.723L155.933 151.025H149.465C149.155 151.025 148.853 150.926 148.603 150.742C148.353 150.559 148.169 150.3 148.077 150.004C147.984 149.708 147.989 149.39 148.09 149.097C148.191 148.804 148.383 148.551 148.639 148.375L153.804 144.808V142.48L159.237 142.804L159.922 151.025Z" fill="#E0E0E0"/>
<path d="M144.761 144.5H141.324L139.689 131.244L144.762 131.244L144.761 144.5Z" fill="#A0616A"/>
<path d="M146.609 151.025H144.17L143.735 148.723L142.62 151.025H136.152C135.842 151.025 135.54 150.926 135.291 150.742C135.041 150.559 134.856 150.3 134.764 150.004C134.672 149.708 134.677 149.39 134.778 149.097C134.879 148.804 135.071 148.551 135.326 148.375L140.491 144.808V142.48L145.924 142.804L146.609 151.025Z" fill="#E0E0E0"/>
<path d="M131.704 109.502C132.362 110.488 139.517 137.607 139.517 137.607L145.861 138.33L145.108 131.507L143.957 119.432L142.175 111.373C142.175 111.373 148.469 97.049 148.867 95.9079L149.15 95.0891L151.116 112.935C151.35 113.572 151.451 114.25 151.415 114.927C151.356 116.042 152.474 132.812 152.474 132.812L153.012 138.827L158.447 139.582L160.652 129.176C162.494 125.795 161.438 113.783 160.685 112.665C159.932 111.547 160.232 103.76 160.232 103.76C161.193 103.422 166.927 83.869 164.059 83.9845C164.243 82.9421 164.388 82.0115 164.388 82.0115L159.409 77.9965L146.95 74.7576L143.806 73.2483C143.806 73.2483 138.192 83.6294 138.248 84.1457C138.325 84.7995 138.175 85.4601 137.823 86.0167L132.155 104.987C132.155 104.987 131.04 108.505 131.704 109.502Z" fill="#E0E0E0"/>
<path d="M163.009 41.6194L161.026 37.411L154.28 37.6703L152.079 42.0485C152.079 42.0485 145.79 49.5596 145.587 52.002C145.331 55.0737 147.459 70.1286 145.331 69.1527C145.331 69.1527 140.315 75.0403 143.283 75.0403C146.251 75.0403 159.677 83.4682 160.558 84.4159C161.439 85.3637 165.372 85.9783 165.042 83.9996C164.712 82.0209 163.009 71.3199 163.009 71.3199L167.621 54.4935C168.949 50.8607 169.362 46.7858 166.361 44.3455L163.009 41.6194Z" fill="#39A798"/>
<path d="M138.018 29.2331C137.116 28.8749 136.152 28.6979 135.181 28.7123C134.21 28.7267 133.252 28.9322 132.36 29.317C131.469 29.7017 130.662 30.2583 129.986 30.9549C129.31 31.6515 128.777 32.4745 128.419 33.3768C126.913 37.1717 126.663 46.2343 129.466 50.7763C133.071 44.5152 140.364 42.2033 142.162 38.8319C144.084 35.2296 141.813 30.7395 138.018 29.2331Z" fill="#BDBDBD"/>
<path d="M134.983 37.6673C136.315 37.6673 137.395 36.5878 137.395 35.2563C137.395 33.9247 136.315 32.8452 134.983 32.8452C133.652 32.8452 132.572 33.9247 132.572 35.2563C132.572 36.5878 133.652 37.6673 134.983 37.6673Z" fill="white"/>
<path d="M127.729 53.8491C128.601 53.8491 129.308 53.142 129.308 52.2699C129.308 51.3977 128.601 50.6907 127.729 50.6907C126.856 50.6907 126.149 51.3977 126.149 52.2699C126.149 53.142 126.856 53.8491 127.729 53.8491Z" fill="#BDBDBD"/>
<path opacity="0.2" d="M137.36 34.113C137.802 34.5748 138.042 35.193 138.028 35.8319C138.015 36.4708 137.748 37.078 137.286 37.5202C136.825 37.9623 136.207 38.2032 135.568 38.19C134.929 38.1768 134.322 37.9104 133.879 37.4495C134.386 37.7161 134.971 37.7937 135.529 37.6685C136.088 37.5432 136.584 37.2232 136.928 36.7658C137.272 36.3083 137.442 35.7433 137.408 35.1719C137.374 34.6004 137.137 34.0598 136.741 33.6468C136.971 33.7677 137.18 33.9252 137.36 34.113Z" fill="#BDBDBD"/>
<path opacity="0.2" d="M142.169 38.8419C140.37 42.2132 133.078 44.5251 129.473 50.7863C129.21 50.3559 128.98 49.9067 128.783 49.4424C132.497 43.6456 139.363 41.3769 141.101 38.1196C142.656 35.2042 141.465 31.7077 138.943 29.6816C142.17 31.4944 143.93 35.5407 142.169 38.8419Z" fill="#BDBDBD"/>
<path d="M127.016 51.7261C127.383 51.6504 127.763 51.6562 128.127 51.7429C128.492 51.8297 128.833 51.9953 129.127 52.2282C129.421 52.4611 129.66 52.7555 129.827 53.0908C129.995 53.4261 130.087 53.794 130.097 54.1687L135.567 56.2683L135.102 59.9035L127.419 56.83C126.788 56.8051 126.188 56.5497 125.734 56.1124C125.279 55.675 125 55.0859 124.95 54.4568C124.901 53.8276 125.084 53.2022 125.464 52.6989C125.845 52.1956 126.397 51.8495 127.016 51.7261L127.016 51.7261Z" fill="#A0616A"/>
<path d="M165.238 44.2348C164.662 43.8832 164.023 43.6488 163.356 43.5449C162.689 43.4411 162.009 43.4699 161.353 43.6297C160.697 43.7895 160.08 44.0771 159.536 44.4761C158.991 44.8751 158.531 45.3776 158.182 45.9548L150.33 58.92L132.578 54.7122L130.961 59.1521L153.694 69.9202L165.208 51.5824C166.932 49.16 167.776 45.784 165.238 44.2348Z" fill="#39A798"/>
<path d="M165.531 28.3456C165.531 29.5952 165.225 30.8258 164.638 31.9294C164.052 33.033 163.204 33.9758 162.168 34.6751C161.133 35.3744 159.941 35.8088 158.699 35.9402C157.456 36.0715 156.2 35.8958 155.041 35.4285C153.882 34.9611 152.855 34.2164 152.051 33.2598C151.247 32.3031 150.691 31.1637 150.43 29.9416C150.169 28.7195 150.212 27.4521 150.556 26.2506C150.899 25.0491 151.532 23.9502 152.399 23.0505L152.436 23.0139C152.497 22.9498 152.558 22.8857 152.622 22.8246C152.623 22.8246 152.623 22.8245 152.623 22.8243C152.624 22.8242 152.624 22.824 152.624 22.8237C152.625 22.8234 152.625 22.8231 152.625 22.8227C152.625 22.8223 152.625 22.8219 152.625 22.8215C152.705 22.7482 152.784 22.6749 152.867 22.6047C153.97 21.6376 155.328 21.0089 156.78 20.7939C158.231 20.5789 159.713 20.7867 161.049 21.3924C162.386 21.9981 163.519 22.9761 164.314 24.2093C165.108 25.4424 165.531 26.8785 165.531 28.3456V28.3456Z" fill="#E0E0E0"/>
<path d="M156.016 36.5134C159.552 36.5134 162.418 33.6474 162.418 30.1119C162.418 26.5765 159.552 23.7104 156.016 23.7104C152.48 23.7104 149.614 26.5765 149.614 30.1119C149.614 33.6474 152.48 36.5134 156.016 36.5134Z" fill="#9E616A"/>
<path d="M162.814 31.9373L161.753 31.7499C161.16 31.6422 160.615 31.3561 160.189 30.9299C159.763 30.5037 159.478 29.9576 159.371 29.3649L158.336 31.0993L158.291 31.1144C155.825 31.933 153.259 31.6882 150.449 30.3668C149.645 29.9857 148.866 29.5559 148.115 29.0799L148.059 29.0452L148.055 28.9801C147.911 26.8977 148.379 25.1579 149.371 24.0814C149.752 23.6763 150.214 23.3564 150.727 23.1424C151.24 22.9285 151.793 22.8254 152.349 22.84C152.389 22.8296 152.425 22.8096 152.455 22.7816C152.469 22.7711 152.483 22.7607 152.497 22.7509V22.7401L152.571 22.7055C152.729 22.6312 152.89 22.5601 153.051 22.4951C154.318 22.0048 155.697 21.8818 157.031 22.1402C158.364 22.3987 159.598 23.0282 160.589 23.9563C162.561 25.8387 163.466 28.9979 162.84 31.8177L162.814 31.9373Z" fill="#E0E0E0"/>
<path d="M176.316 37.3914C174.137 36.267 176.939 32.1862 176.376 29.8002C175.813 27.4143 171.759 26.6469 171.5 24.209C171.242 21.7712 170.634 19.2568 169.026 17.407C167.998 16.2249 166.483 15.3523 164.923 15.5004C164.396 15.5504 163.885 15.7137 163.426 15.9789C162.967 16.2442 162.571 16.6052 162.264 17.0374C161.957 17.4696 161.747 17.9629 161.648 18.4836C161.549 19.0043 161.564 19.5402 161.691 20.0548C161.247 19.4256 160.098 19.562 159.813 20.2776C159.56 20.9138 160.119 21.6844 160.776 21.7407C161.637 22.803 162.622 23.9304 163.969 24.1447C164.184 24.194 164.407 24.1939 164.622 24.1444C164.837 24.0948 165.037 23.9971 165.209 23.8587C165.526 23.5542 165.55 22.9455 165.174 22.718C166.868 23.3907 167.861 25.2219 168.112 27.0268C168.363 28.8317 168.016 30.658 167.787 32.4658C167.557 34.2737 167.459 36.1755 168.168 37.8544C169.005 39.8379 170.934 41.2596 173.038 41.7155C175.142 42.1714 177.384 41.7258 179.288 40.7219C181.193 39.7179 182.782 38.1853 184.079 36.467C181.844 38.0542 178.752 38.6487 176.316 37.3914Z" fill="#E0E0E0"/>
<path d="M162.542 31.7594C162.542 31.7594 160.646 24.6811 152.516 23.0474C152.507 23.0444 152.477 23.0322 152.437 23.0139C152.413 22.9986 152.382 22.9833 152.352 22.9681C152.443 22.9161 152.532 22.8704 152.623 22.8245C152.624 22.8245 152.624 22.8244 152.625 22.8243C152.625 22.8241 152.625 22.8239 152.626 22.8236C152.626 22.8233 152.626 22.823 152.626 22.8226C152.626 22.8223 152.626 22.8219 152.626 22.8214C152.706 22.7482 152.785 22.6749 152.868 22.6047L153.1 22.6138C153.1 22.6138 161.256 21.3221 162.542 31.7594Z" fill="#FD6584"/>
<path opacity="0.2" d="M158.297 54.4721L153.705 59.7911L146.119 57.551L154.389 61.3621L158.297 54.4721Z" fill="black"/>
<path d="M185.854 151.426L115.264 151.505C115.183 151.504 115.106 151.472 115.049 151.415C114.992 151.358 114.96 151.281 114.96 151.2C114.96 151.119 114.992 151.042 115.049 150.985C115.106 150.928 115.183 150.895 115.264 150.895L185.854 150.816C185.934 150.816 186.012 150.849 186.069 150.906C186.126 150.963 186.158 151.04 186.158 151.121C186.158 151.202 186.126 151.28 186.069 151.337C186.012 151.394 185.934 151.426 185.854 151.426Z" fill="#CACACA"/>
<path d="M188.952 104.059C185.647 104.059 182.024 103.934 178.083 103.684C157.703 102.39 131.304 97.8909 103.75 91.0154C76.1953 84.1399 50.7773 75.7093 32.1781 67.2772C23.1179 63.1695 16.1643 59.2812 11.5106 55.7203C6.58349 51.9504 4.42832 48.6644 5.10467 45.9539C6.42251 40.6732 18.0914 39.518 27.6483 39.4787L27.6515 40.2467C14.5274 40.3005 6.78475 42.3935 5.8499 46.1399C4.65907 50.9114 14.371 58.3606 32.4953 66.5777C51.0535 74.9913 76.4248 83.4057 103.936 90.2705C131.446 97.1349 157.797 101.627 178.132 102.918C197.992 104.179 210.065 102.166 211.256 97.3944C212.245 93.4327 205.727 87.5966 192.904 80.9609L193.257 80.2789C202.574 85.1006 213.39 92.0161 212.001 97.5804C211.325 100.291 207.878 102.179 201.758 103.192C198.269 103.77 193.983 104.059 188.952 104.059Z" fill="#BDBDBD"/>
</g>
<defs>
<clipPath id="clip0_821_830">
<rect width="211.245" height="151.392" fill="white" transform="translate(0.876953 0.11264)"/>
</clipPath>
</defs>
</svg>
