<svg width="233" height="153" viewBox="0 0 233 153" fill="none" xmlns="http://www.w3.org/2000/svg">
<g clip-path="url(#clip0_821_886)">
<path d="M118.209 25.3164L120.003 18.0938L115.581 17.0052L113.825 24.0319C112.669 23.7434 111.48 23.4876 110.297 23.2046L112.064 16.1289L107.663 15.0404L105.858 22.2521C104.898 22.0344 103.962 21.8149 103.05 21.5935L96.9805 20.0804L95.8081 24.7721C95.8081 24.7721 99.0036 25.5015 99.0036 25.5668C100.787 26.0131 101.108 27.1996 101.054 28.1195L98.9982 36.3436C99.1544 36.381 99.3075 36.4301 99.4562 36.4905L98.9927 36.3762L96.1136 47.8932C96.0512 48.0938 95.9496 48.28 95.8148 48.4413C95.68 48.6025 95.5146 48.7355 95.328 48.8326C95.1415 48.9297 94.9376 48.9891 94.728 49.0072C94.5183 49.0253 94.3072 49.0019 94.1067 48.9382H94.0958C94.1395 49.0035 90.8951 48.1436 90.8951 48.1436L88.7139 53.1728L94.4396 54.5988C95.5302 54.8655 96.5497 55.1431 97.5751 55.4043L95.7536 62.7031L100.149 63.7917L101.954 56.5691C103.121 56.8848 104.293 57.1841 105.46 57.478L103.661 64.668L108.061 65.7566L109.883 58.4686C117.386 59.8837 123.035 59.3123 125.407 52.5414C127.321 47.0986 125.315 43.9417 121.361 41.8898C124.235 41.2258 126.405 39.3426 126.983 35.4401L127.032 35.4183C127.828 30.0898 123.76 27.2268 118.209 25.3164ZM116.977 49.4934C115.619 54.9363 106.414 51.9971 103.432 51.2624L105.847 41.5904C108.819 42.3361 118.389 43.8057 116.966 49.4934H116.977ZM118.34 35.3421C117.097 40.306 109.441 37.7805 106.954 37.1654L109.135 28.3971C111.617 29.0121 119.622 30.166 118.307 35.3421H118.34Z" fill="#E0E0E0"/>
<path d="M108.814 81.4917C100.773 81.4917 92.9121 79.1116 86.2259 74.6525C79.5397 70.1933 74.3285 63.8553 71.2512 56.4399C68.1739 49.0246 67.3687 40.865 68.9375 32.9929C70.5063 25.1208 74.3786 17.8899 80.0648 12.2144C85.7509 6.53898 92.9955 2.67394 100.882 1.10809C108.769 -0.457762 116.944 0.345893 124.374 3.41742C131.803 6.48896 138.153 11.6904 142.62 18.364C147.088 25.0377 149.472 32.8837 149.472 40.91C149.46 51.6692 145.173 61.9843 137.551 69.5922C129.928 77.2001 119.594 81.4796 108.814 81.4917ZM108.814 1.41689C100.989 1.41689 93.3387 3.73312 86.8319 8.07268C80.325 12.4122 75.2535 18.5802 72.2588 25.7966C69.264 33.0131 68.4804 40.9538 70.0072 48.6147C71.5339 56.2757 75.3023 63.3127 80.8359 68.8359C86.3695 74.3591 93.4198 78.1204 101.095 79.6443C108.77 81.1681 116.726 80.386 123.956 77.3969C131.186 74.4078 137.366 69.3458 141.714 62.8512C146.061 56.3566 148.382 48.721 148.382 40.91C148.37 30.4394 144.198 20.4011 136.78 12.9972C129.362 5.5934 119.305 1.42872 108.814 1.41689ZM107.45 66.2032L101.991 64.8526L103.791 57.6615C102.975 57.4564 102.154 57.2438 101.34 57.0264L99.5379 64.2384L94.0844 62.8878L95.907 55.5841C95.6941 55.5288 95.4807 55.4732 95.2667 55.4172C94.6267 55.25 93.9778 55.0805 93.3015 54.9149L86.9497 53.3328L89.5729 47.2848L90.0268 47.4052C90.6547 47.5716 91.3179 47.7443 91.8708 47.8849L91.7941 47.7701L93.2444 48.2044C93.3776 48.2482 93.5181 48.2651 93.6579 48.2542C93.7976 48.2434 93.9339 48.2049 94.0586 48.141C94.1833 48.0771 94.2941 47.9892 94.3845 47.8822C94.4749 47.7752 94.5431 47.6514 94.5852 47.5179L97.3318 36.5273L97.3291 36.5265L99.504 27.8265C99.547 26.8054 99.0098 26.1692 97.8629 25.8824L96.6387 25.576L96.6689 25.5566C96.0902 25.4166 95.3635 25.2465 94.6786 25.0905L94.1364 24.9669L95.5753 19.2081L102.174 20.8531C102.914 21.0344 103.673 21.2134 104.45 21.3902L106.258 14.1689L111.717 15.5193L109.951 22.5894C110.262 22.6617 110.572 22.7332 110.882 22.8038C111.398 22.9221 111.911 23.0396 112.419 23.1618L114.175 16.1345L119.656 17.4835L117.85 24.7546C122.179 26.3037 127.49 29.0884 126.564 35.2862L126.519 35.582L126.467 35.6051C125.926 38.7432 124.331 40.8324 121.715 41.8327C125.534 44.2692 126.579 47.7738 124.914 52.5092C122.284 60.0167 115.599 60.0154 109.28 58.8843L107.45 66.2032ZM103.314 64.0585L106.656 64.885L108.47 57.6262L108.976 57.7216C117.608 59.3494 121.928 57.7349 123.885 52.1494C125.513 47.5187 124.311 44.345 120.101 42.1601L118.79 41.4795L120.23 41.1471C123.238 40.4521 124.941 38.49 125.436 35.148L125.48 34.852L125.524 34.8323C126.013 30.6545 123.376 27.8047 117.024 25.6186L116.552 25.4565L118.335 18.2793L114.97 17.4514L113.214 24.4798L112.685 24.3477C112.011 24.1795 111.327 24.0227 110.638 23.8651C110.147 23.7524 109.654 23.6395 109.162 23.5217L108.627 23.3936L110.395 16.3139L107.052 15.4872L105.25 22.6888L104.729 22.5705C103.766 22.3518 102.825 22.1336 101.912 21.9098L96.3695 20.5279L95.4637 24.1529C96.369 24.3316 97.2643 24.5579 98.1457 24.8309C99.792 25.2494 100.683 26.3813 100.59 27.9392L100.575 28.0389L98.6425 35.7694L98.6489 35.772L98.5191 36.2629L98.4936 36.2565L98.4835 36.2879L98.5137 36.2956L95.6345 47.8127C95.5534 48.0852 95.4188 48.339 95.2386 48.5591C95.0583 48.7793 94.836 48.9614 94.5845 49.0949C94.333 49.2285 94.0574 49.3107 93.7738 49.3369C93.4901 49.3631 93.2041 49.3327 92.9323 49.2475L92.9338 49.2425C92.5168 49.1864 91.7439 48.986 90.2007 48.5775L88.4615 52.5876L93.5634 53.8582C94.2431 54.0246 94.8976 54.1955 95.5429 54.3643C95.9311 54.4655 96.316 54.5662 96.7017 54.6646L97.227 54.7982L95.4064 62.0937L98.7434 62.9202L100.551 55.6862L101.088 55.8313C102.246 56.1446 103.422 56.4494 104.583 56.7373L105.113 56.8688L103.314 64.0585ZM110.542 53.0461C107.904 53.0461 105.01 52.287 103.148 51.7988C102.826 51.7143 102.538 51.6389 102.293 51.5783L101.762 51.4475L104.442 40.7171L104.972 40.8502C105.271 40.9254 105.639 41.0078 106.056 41.1016C109.09 41.7838 114.168 42.9256 115.99 45.8769C116.523 46.7295 116.743 47.7403 116.612 48.7367H116.656L116.498 49.4125C116.369 49.9855 116.124 50.5259 115.777 51.0001C115.43 51.4743 114.989 51.8722 114.481 52.169C113.393 52.8122 112.007 53.0461 110.542 53.0461ZM103.084 50.6566C103.193 50.685 103.307 50.7148 103.425 50.7459C105.971 51.4143 111.269 52.8026 113.925 51.2325C114.611 50.837 115.123 50.1969 115.356 49.4407L115.429 49.1492C115.56 48.6983 115.596 48.2249 115.532 47.7596C115.469 47.2943 115.309 46.8474 115.062 46.4477C113.481 43.8868 108.495 42.7659 105.816 42.1636C105.611 42.1174 105.417 42.0738 105.238 42.0326L103.084 50.6566ZM112.526 38.6845C110.358 38.6845 108.042 38.0693 106.544 37.6714C106.269 37.5984 106.024 37.533 105.815 37.4814L105.285 37.3504L107.73 27.5254L108.259 27.6564C108.504 27.7173 108.804 27.7835 109.145 27.8584C111.634 28.407 115.801 29.3254 117.38 31.8807C117.88 32.6883 118.084 33.6444 117.956 34.5854H117.998L117.861 35.2618C117.74 35.8116 117.507 36.3307 117.176 36.7867C116.846 37.2427 116.424 37.6258 115.939 37.9122C114.889 38.4661 113.712 38.7326 112.526 38.6845ZM106.605 36.5613C106.676 36.5799 106.749 36.5993 106.825 36.6195C109.032 37.2053 113.138 38.2965 115.385 36.9746C115.962 36.6406 116.407 36.1182 116.644 35.4954L116.771 34.996C116.899 34.5734 116.937 34.1285 116.882 33.6902C116.827 33.252 116.68 32.8302 116.451 32.4524C115.115 30.2888 111.078 29.3993 108.91 28.9215C108.776 28.892 108.648 28.8638 108.527 28.8367L106.605 36.5613Z" fill="#BDBDBD"/>
<path d="M129.74 72.7945C130.031 72.3868 130.413 72.0524 130.856 71.8182C131.298 71.584 131.79 71.4563 132.291 71.4454C132.792 71.4345 133.289 71.5406 133.741 71.7553C134.194 71.9701 134.59 72.2874 134.898 72.6821L145.709 69.0143L144.211 74.7448L134.174 77.3492C133.546 77.7742 132.787 77.9648 132.032 77.8875C131.277 77.8102 130.573 77.47 130.044 76.9266C129.515 76.3833 129.195 75.6713 129.14 74.9157C129.084 74.1601 129.297 73.4091 129.74 72.7945Z" fill="#FFB8B8"/>
<path d="M214.656 152.436C215.453 143.872 217.654 135.496 221.17 127.643C222.15 125.458 223.229 123.321 224.406 121.232C224.709 120.695 223.881 120.212 223.578 120.749C219.297 128.358 216.297 136.617 214.7 145.197C214.255 147.593 213.921 150.006 213.698 152.436C213.641 153.049 214.6 153.045 214.656 152.436Z" fill="#E6E6E6"/>
<path d="M226.728 122.767C230.081 122.767 232.8 120.053 232.8 116.707C232.8 113.36 230.081 110.647 226.728 110.647C223.375 110.647 220.657 113.36 220.657 116.707C220.657 120.053 223.375 122.767 226.728 122.767Z" fill="#E6E6E6"/>
<path d="M215.28 152.597C215.797 147.041 217.224 141.607 219.505 136.513C220.141 135.095 220.841 133.709 221.605 132.353C221.643 132.283 221.652 132.2 221.631 132.122C221.609 132.044 221.558 131.978 221.488 131.938C221.418 131.897 221.336 131.885 221.257 131.904C221.179 131.923 221.111 131.972 221.068 132.04C218.29 136.976 216.344 142.335 215.308 147.901C215.02 149.455 214.803 151.02 214.658 152.597C214.621 152.994 215.243 152.992 215.28 152.597H215.28Z" fill="#E6E6E6"/>
<path d="M223.109 133.349C225.284 133.349 227.047 131.589 227.047 129.418C227.047 127.246 225.284 125.486 223.109 125.486C220.933 125.486 219.17 127.246 219.17 129.418C219.17 131.589 220.933 133.349 223.109 133.349Z" fill="#E6E6E6"/>
<path d="M214.494 152.226C211.478 147.527 209.255 142.367 207.914 136.95C207.542 135.441 207.24 133.919 207.007 132.381C206.993 132.302 206.949 132.231 206.884 132.183C206.819 132.135 206.738 132.114 206.658 132.125C206.578 132.136 206.506 132.177 206.456 132.24C206.406 132.304 206.382 132.384 206.39 132.464C207.242 138.061 209.009 143.481 211.622 148.506C212.353 149.908 213.146 151.275 214.003 152.607C214.219 152.944 214.708 152.56 214.494 152.226V152.226Z" fill="#E6E6E6"/>
<path d="M206.384 133.073C208.559 133.073 210.323 131.313 210.323 129.142C210.323 126.97 208.559 125.21 206.384 125.21C204.209 125.21 202.445 126.97 202.445 129.142C202.445 131.313 204.209 133.073 206.384 133.073Z" fill="#E6E6E6"/>
<path d="M182.985 95.5387C183.243 95.1473 183.413 94.704 183.481 94.2402C183.55 93.7763 183.516 93.3031 183.381 92.8539C183.246 92.4047 183.015 91.9904 182.702 91.6402C182.39 91.29 182.005 91.0124 181.573 90.827L182.401 79.4599L177.224 82.3534L177.231 92.7042C176.967 93.4483 176.986 94.2632 177.284 94.9945C177.581 95.7258 178.137 96.3227 178.847 96.6721C179.556 97.0215 180.369 97.0991 181.131 96.8902C181.894 96.6813 182.554 96.2004 182.985 95.5386V95.5387Z" fill="#FFB8B8"/>
<path d="M181.696 51.3512L183.112 87.5242L177.36 87.2053L176.082 49.2521L177.295 48.6823C177.756 48.4656 178.265 48.3662 178.774 48.3932C179.283 48.4202 179.778 48.5727 180.214 48.837C180.65 49.1013 181.013 49.4693 181.272 49.908C181.53 50.3467 181.676 50.8426 181.696 51.3512Z" fill="#E0E0E0"/>
<path d="M163.909 149.027L159.991 149.027L158.128 133.945L163.91 133.945L163.909 149.027Z" fill="#FFB8B8"/>
<path d="M157.193 147.909H164.748V152.657H152.437C152.437 152.034 152.56 151.417 152.799 150.84C153.038 150.264 153.388 149.741 153.83 149.3C154.272 148.859 154.796 148.51 155.373 148.271C155.95 148.032 156.569 147.909 157.193 147.909Z" fill="#E0E0E0"/>
<path d="M196.503 144.354L192.948 145.997L184.908 133.092L190.155 130.668L196.503 144.354Z" fill="#FFB8B8"/>
<path d="M189.938 146.156L196.794 142.988L198.792 147.297L187.619 152.46C187.089 151.317 187.036 150.011 187.471 148.829C187.906 147.647 188.793 146.685 189.938 146.156Z" fill="#E0E0E0"/>
<path d="M154.607 99.8069L158.648 145.826L164.08 145.188L168.094 103.152L190.282 143.274L196.033 141.679C196.033 141.679 177.521 86.4081 176.083 81.7835C174.506 76.7139 162.023 74.767 162.023 74.767L161.544 74.2886C156.18 81.4957 154.031 90.8472 154.607 99.8069Z" fill="#E0E0E0"/>
<path d="M176.13 44.6897C180.465 44.6897 183.978 41.1826 183.978 36.8564C183.978 32.5301 180.465 29.023 176.13 29.023C171.796 29.023 168.282 32.5301 168.282 36.8564C168.282 41.1826 171.796 44.6897 176.13 44.6897Z" fill="#FFB8B8"/>
<path d="M181.057 51.9712L175.603 80.3468C175.603 80.3468 167.314 78.6948 164.361 76.7046C163.192 75.9136 162.131 75.0972 161.236 74.3572C161.06 74.2137 160.894 74.0702 160.731 73.9331C159.255 72.6733 158.348 71.7356 158.348 71.7356C158.348 71.7356 158.82 69.4233 159.399 66.6869C160.044 63.6219 160.827 60.0211 161.227 58.5508C162.105 55.3264 165.122 51.5693 167.473 49.0115C168.325 48.0839 169.413 47.4051 170.622 47.0477C171.83 46.6904 173.114 46.668 174.334 46.9831L178.59 48.0802C179.42 48.2939 180.137 48.8152 180.595 49.5381C181.054 50.261 181.219 51.1311 181.057 51.9712Z" fill="#E0E0E0"/>
<path opacity="0.2" d="M167.866 64.3648C167.866 64.3648 164.933 70.4501 160.731 73.9329C159.255 72.6731 158.348 71.7354 158.348 71.7354C158.348 71.7354 158.82 69.4231 159.399 66.6867C162.92 64.8305 166.55 63.66 167.866 64.3648Z" fill="black"/>
<path d="M173.069 53.2262C172.779 53.0788 172.477 52.9587 172.165 52.8676C171.527 52.6933 170.857 52.6796 170.213 52.8276C169.569 52.9757 168.972 53.281 168.475 53.716L151.234 66.3213L137.521 70.9251L139.999 76.7746L160.442 71.7915L173.999 59.7653C174.466 59.3187 174.819 58.7676 175.03 58.1578C175.242 57.5479 175.304 56.8966 175.213 56.2578C175.122 55.6189 174.881 55.0108 174.508 54.4837C174.135 53.9566 173.642 53.5256 173.069 53.2262Z" fill="#E0E0E0"/>
<path d="M176.594 44.6178C177.711 42.949 178.593 40.6351 177.363 39.0473C176.149 37.48 173.755 37.7109 171.896 37.0174C169.306 36.0514 167.804 33.015 168.273 30.2956C168.741 27.5763 170.928 25.322 173.533 24.3997C176.139 23.4773 179.077 23.7773 181.628 24.8394C184.769 26.147 187.463 28.6763 188.593 31.8803C189.723 35.0843 189.119 38.9314 186.775 41.394C184.262 44.0343 180.319 44.7379 176.671 44.6952" fill="#E0E0E0"/>
<path d="M188.918 35.3816C189.238 37.1648 191.197 38.1775 192.999 38.4001C194.8 38.6227 196.663 38.3373 198.416 38.8049C201.508 39.6291 203.546 42.5964 204.669 45.5872C205.791 48.5779 206.289 51.8058 207.747 54.6486C209.205 57.4914 212.032 59.9976 215.22 59.7317C214.596 61.3013 213.501 62.6404 212.086 63.5662C210.67 64.492 209.003 64.9594 207.312 64.9047C205.621 64.8499 203.988 64.2757 202.636 63.2604C201.283 62.245 200.278 60.8379 199.757 59.2312C198.585 55.6218 199.93 51.3175 197.881 48.1215C196.748 46.353 194.791 45.3128 192.903 44.3859C191.016 43.459 189.035 42.5076 187.77 40.8305C186.504 39.1535 186.251 36.5049 187.811 35.0958" fill="#E0E0E0"/>
<path d="M227.136 152.825H124.791C124.69 152.825 124.593 152.785 124.522 152.714C124.45 152.643 124.41 152.546 124.41 152.446C124.41 152.345 124.45 152.248 124.522 152.177C124.593 152.106 124.69 152.066 124.791 152.066H227.136C227.237 152.066 227.334 152.106 227.405 152.177C227.476 152.248 227.516 152.345 227.516 152.446C227.516 152.546 227.476 152.643 227.405 152.714C227.334 152.785 227.237 152.825 227.136 152.825Z" fill="#3F3D56"/>
<path d="M103.156 152.825H0.811131C0.710226 152.825 0.61345 152.785 0.542099 152.714C0.470748 152.643 0.430664 152.546 0.430664 152.446C0.430664 152.345 0.470748 152.248 0.542099 152.177C0.61345 152.106 0.710226 152.066 0.811131 152.066H103.156C103.257 152.066 103.354 152.106 103.425 152.177C103.497 152.248 103.537 152.345 103.537 152.446C103.537 152.546 103.497 152.643 103.425 152.714C103.354 152.785 103.257 152.825 103.156 152.825Z" fill="#3F3D56"/>
<path d="M66.1917 148.676L69.937 147.529L67.2861 132.565L61.7588 134.258L66.1917 148.676Z" fill="#A0616A"/>
<path d="M78.2266 148.787L66.4564 152.392L65.0608 147.853L72.2834 145.641C73.4895 145.272 74.7932 145.395 75.9078 145.985C77.0223 146.575 77.8564 147.583 78.2266 148.787Z" fill="#E0E0E0"/>
<path d="M32.9596 148.762H36.8771L38.7407 133.68L32.959 133.68L32.9596 148.762Z" fill="#A0616A"/>
<path d="M44.4336 152.392L32.1217 152.393L32.1214 147.645L39.6765 147.644C40.9381 147.644 42.1481 148.145 43.0402 149.035C43.9323 149.925 44.4335 151.133 44.4336 152.392Z" fill="#E0E0E0"/>
<path d="M33.9587 98.6645C33.6368 98.3829 33.3807 98.0342 33.2085 97.6432C33.0362 97.2521 32.952 96.8281 32.9617 96.401C32.9714 95.9739 33.0748 95.5541 33.2646 95.1712C33.4544 94.7883 33.726 94.4516 34.0603 94.1848L37.0976 56.0101L43.2745 57.5504L38.3288 94.7888C38.7406 95.379 38.9212 96.0995 38.8364 96.8137C38.7515 97.528 38.4071 98.1863 37.8684 98.6641C37.3298 99.1418 36.6342 99.4057 35.9136 99.4058C35.193 99.4058 34.4974 99.1421 33.9587 98.6645Z" fill="#A0616A"/>
<path d="M48.5649 41.5227C52.8993 41.5227 56.413 38.0156 56.413 33.6893C56.413 29.3631 52.8993 25.8559 48.5649 25.8559C44.2305 25.8559 40.7168 29.3631 40.7168 33.6893C40.7168 38.0156 44.2305 41.5227 48.5649 41.5227Z" fill="#A0616A"/>
<path d="M37.8441 56.7673C35.9791 54.2117 35.9216 50.6918 37.9306 48.2474C39.2417 46.6521 41.4348 45.3756 45.0963 45.3756C54.8558 45.3756 58.5577 53.1013 58.5577 53.1013C58.5577 53.1013 62.5962 60.4912 60.2404 67.2093C57.8847 73.9273 57.8847 74.5991 57.8847 74.5991L42.404 73.2555C42.404 73.2555 45.0156 66.594 37.8441 56.7673Z" fill="#39A798"/>
<path d="M33.0713 63.4546L36.4062 52.5643C36.6296 51.8351 37.0107 51.1637 37.5226 50.5977C38.0345 50.0317 38.6647 49.5847 39.3686 49.2885C40.0726 48.9923 40.8332 48.854 41.5965 48.8835C42.3599 48.9129 43.1075 49.1093 43.7865 49.4588C44.9645 50.0678 45.8664 51.1011 46.3094 52.3492C46.7523 53.5973 46.7032 54.9669 46.1719 56.1802L41.9321 65.8177L33.0713 63.4546Z" fill="#39A798"/>
<path d="M57.5484 72.9197L70.6733 140.772L63.6061 142.788L46.4427 98.1125L38.7024 143.795L31.2986 144.803C31.2986 144.803 28.0509 84.3589 42.4043 73.2556L57.5484 72.9197Z" fill="#E0E0E0"/>
<path d="M75.1886 65.8769C75.0749 66.0121 74.9721 66.156 74.881 66.3072L59.0528 67.0732L56.005 57.786L50.7129 60.2965L55.6937 74.1291L75.2691 70.308C75.7291 70.8093 76.3311 71.1589 76.995 71.3103C77.6589 71.4618 78.3533 71.4079 78.9858 71.1558C79.6182 70.9038 80.1589 70.4656 80.5357 69.8994C80.9126 69.3332 81.1078 68.6659 81.0955 67.9863C81.0831 67.3067 80.8638 66.6469 80.4666 66.0947C80.0694 65.5425 79.5132 65.1241 78.872 64.8952C78.2308 64.6662 77.5349 64.6375 76.877 64.8128C76.219 64.9882 75.6301 65.3594 75.1886 65.8769V65.8769Z" fill="#A0616A"/>
<path d="M48.3277 54.077C48.2385 53.3197 48.3169 52.552 48.5576 51.8283C48.7982 51.1046 49.1952 50.4425 49.7205 49.8887C50.2457 49.335 50.8864 48.9032 51.5972 48.6238C52.3081 48.3444 53.0718 48.2242 53.8342 48.2718C55.1581 48.3567 56.4002 48.9408 57.3085 49.9059C58.2168 50.871 58.7235 52.1447 58.7257 53.4688V63.9943L49.6607 65.3865L48.3277 54.077Z" fill="#39A798"/>
<path d="M50.2903 41.5938C49.1124 41.5887 48.2037 40.3508 48.2565 39.1763C48.3093 38.0017 49.0996 36.9683 50.0518 36.2762C51.004 35.5841 52.1208 35.1625 53.1826 34.6537C54.2445 34.1448 55.2971 33.5101 55.9528 32.5333C56.3488 31.894 56.5853 31.1691 56.6422 30.4196C56.6991 29.6701 56.5748 28.9179 56.2798 28.2263C55.6696 26.8431 54.622 25.6977 53.2975 24.9655C51.3266 23.8251 49.0008 23.4581 46.7736 23.9359C44.5725 24.4179 41.2922 25.7523 40.0025 27.5968L38.6579 31.2511C37.2878 32.8956 38.3486 35.3377 39.1908 37.3044C40.0331 39.2711 41.8264 40.7507 43.85 41.4542C45.9032 42.1127 48.101 42.1785 50.19 41.6439" fill="#E0E0E0"/>
<path d="M43.1176 29.4231C42.5396 28.4984 41.5377 27.9103 40.5019 27.5652C39.302 27.1653 38.0258 27.0473 36.7727 27.2203C35.5196 27.3933 34.3234 27.8527 33.2773 28.5626C32.2312 29.2726 31.3633 30.2139 30.7413 31.3134C30.1193 32.4129 29.76 33.6408 29.6913 34.9016C29.5815 36.9155 30.2133 38.8848 30.5845 40.8673C30.9557 42.8499 31.0296 45.0395 29.9344 46.7345C29.1003 48.0254 27.7092 48.8383 26.3362 49.5323C25.1918 50.1108 23.954 50.6536 22.6765 50.5384C21.399 50.4231 20.115 49.4131 20.1489 48.1333C19.7212 49.0509 19.4324 50.0269 19.292 51.0293C19.2021 52.0358 19.4507 53.1219 20.179 53.8238C21.2377 54.8439 22.9151 54.7693 24.37 54.5492C27.5196 54.0726 30.709 53.1792 33.1973 51.1939C35.6856 49.2085 37.3368 45.9394 36.6815 42.8278C36.4077 41.528 35.7644 40.3414 35.2446 39.1187C34.7248 37.896 34.3189 36.5586 34.5577 35.2519C34.6991 34.5787 34.9867 33.9447 35.4004 33.3946C35.8141 32.8446 36.3437 32.3918 36.9519 32.0684C38.1818 31.4301 39.5891 31.2171 40.9533 31.4627C41.8477 31.6092 42.9645 31.8367 43.4949 31.1032C43.6355 30.8708 43.7073 30.6034 43.702 30.332C43.6967 30.0606 43.6145 29.7963 43.465 29.5695C43.1589 29.121 42.7692 28.7356 42.317 28.4343" fill="#E0E0E0"/>
</g>
<defs>
<clipPath id="clip0_821_886">
<rect width="232.369" height="152.566" fill="white" transform="translate(0.430664 0.328308)"/>
</clipPath>
</defs>
</svg>
