<svg width="134" height="90" viewBox="0 0 134 90" fill="none" xmlns="http://www.w3.org/2000/svg">
<g id="undraw_digital_currency_qpak 3" clip-path="url(#clip0_1028_400)">
<path id="Vector" d="M86.4225 20.8794C88.9313 20.8794 90.9651 18.8444 90.9651 16.3341C90.9651 13.8238 88.9313 11.7888 86.4225 11.7888C83.9137 11.7888 81.8799 13.8238 81.8799 16.3341C81.8799 18.8444 83.9137 20.8794 86.4225 20.8794Z" fill="#F2F2F2"/>
<path id="Vector_2" d="M96.9983 61.3893C96.2886 59.7558 95.1955 58.3212 93.0094 57.1139C91.8795 56.4747 90.6658 55.9966 89.4037 55.6935C90.2529 55.2987 91.0339 54.7713 91.7176 54.131C92.7226 53.2321 93.4843 52.0937 93.9321 50.8215C94.3443 49.5286 94.5127 48.1704 94.4289 46.816C94.2728 44.4297 93.8043 42.1144 92.5551 40.4526C91.3059 38.7907 89.5456 37.5123 87.2175 36.6175C85.4289 35.9357 83.5977 35.5096 80.7585 35.3533V26.277L75.0803 29.828V35.3675H70.5377V29.5439L64.7174 26.277V35.3675H52.353L56.3278 42.1855C57.5557 42.1869 58.3876 42.3005 58.8121 42.5122C59.2083 42.6818 59.5341 42.9828 59.7348 43.3644C59.9193 43.7195 60.0045 44.5575 60.0045 45.8501V70.4514C60.0045 71.7298 59.9193 72.5536 59.7348 72.9229C59.5502 73.2922 59.4509 73.6189 59.0108 73.8178C58.5707 74.0167 58.5565 74.0024 57.3357 74.0024H57.3215L52.353 80.8204H64.7032V89.9109H70.5235V80.8204H75.0661V89.9109H80.7443V80.7635C84.4352 80.5789 87.0614 80.096 89.1765 79.3005C91.9163 78.2778 94.0173 76.7864 95.522 74.8263C97.0267 72.8661 97.6371 69.8691 97.7649 67.5538C97.8643 65.4942 97.6372 62.8381 96.9983 61.3893ZM70.5235 43.0377H70.5249V42.8488H74.494C76.727 42.8488 84.1683 42.1045 84.2918 48.1852C84.4167 54.266 74.494 54.0174 74.494 54.0174H70.5249V53.5487H70.5235V43.0377ZM70.5235 60.3666H75.0661C75.9888 60.3666 79.1629 60.5072 80.3185 60.5598C80.7896 60.5769 81.2559 60.6601 81.7039 60.8069C81.8672 60.8623 82.0219 60.9248 82.1894 60.9944C82.8896 61.2208 83.5501 61.5553 84.147 61.9858C84.5362 62.243 84.8785 62.5649 85.1592 62.9375C85.2808 63.1057 85.3926 63.2807 85.4942 63.4616C85.7629 63.9167 85.9625 64.4093 86.0861 64.9232C86.2214 65.4196 86.2916 65.9314 86.2948 66.4459C86.2948 67.5524 86.0904 68.4685 85.5865 69.2441C84.9037 70.3889 83.7836 71.2 82.523 71.7724C79.2637 73.2553 75.0661 73.1502 75.0661 73.1502H70.5235V60.3666Z" fill="white"/>
<path id="Vector_3" opacity="0.3" d="M87.6522 16.5253C87.6092 16.4189 87.53 16.331 87.4286 16.2772C87.3655 16.2402 87.2974 16.2124 87.2265 16.1948C87.2743 16.1717 87.3181 16.1411 87.3562 16.1041C87.4129 16.0514 87.4555 15.9854 87.4803 15.912C87.5034 15.8368 87.5129 15.7581 87.5082 15.6795C87.5078 15.5491 87.4714 15.4213 87.4031 15.3102C87.3269 15.2087 87.223 15.1314 87.1039 15.0877C86.9883 15.0428 86.8658 15.018 86.7418 15.0143V14.4875L86.4235 14.6936V15.0151H86.1688V14.6771L85.8426 14.4875V15.0151H85.1494L85.3722 15.4108C85.4195 15.4076 85.4669 15.414 85.5115 15.4298C85.5339 15.4398 85.5522 15.4573 85.5632 15.4792C85.5768 15.526 85.5819 15.5749 85.5784 15.6235V17.0512C85.5818 17.0996 85.5767 17.1481 85.5632 17.1947C85.5529 17.2161 85.5473 17.2351 85.5226 17.2466C85.498 17.2582 85.4972 17.2573 85.4287 17.2573H85.4279L85.1494 17.653H85.8418V18.1806H86.168V17.653H86.4227V18.1806H86.741V17.6497C86.9021 17.6468 87.0617 17.6182 87.2137 17.5648C87.3548 17.5144 87.4784 17.4242 87.5694 17.3051C87.6488 17.1785 87.6923 17.0326 87.6952 16.8831C87.7036 16.7622 87.689 16.6408 87.6522 16.5253ZM86.168 15.4603H86.1681V15.4493H86.3906C86.5158 15.4493 86.933 15.4061 86.9399 15.759C86.9469 16.1119 86.3906 16.0975 86.3906 16.0975H86.1681V16.0703H86.168V15.4603ZM86.168 16.466H86.4227C86.4744 16.466 86.6524 16.4741 86.7171 16.4772C86.7436 16.4782 86.7698 16.483 86.7948 16.4915C86.804 16.4947 86.8126 16.4984 86.822 16.5024C86.8614 16.5156 86.8985 16.5351 86.9318 16.56C86.9537 16.575 86.9729 16.5937 86.9885 16.6152C87.0126 16.6501 87.0302 16.6892 87.0405 16.7304C87.0481 16.7593 87.052 16.789 87.0522 16.8188C87.0548 16.8756 87.041 16.932 87.0125 16.9812C86.9716 17.0466 86.9117 17.0978 86.8407 17.1279C86.7081 17.1823 86.566 17.2094 86.4227 17.2079H86.168V16.466Z" fill="#828282"/>
<path id="Vector_4" d="M114.054 68.1977C114.974 68.1977 115.719 67.4518 115.719 66.5316C115.719 65.6115 114.974 64.8656 114.054 64.8656C113.135 64.8656 112.389 65.6115 112.389 66.5316C112.389 67.4518 113.135 68.1977 114.054 68.1977Z" fill="#FF6584"/>
<path id="Vector_5" d="M127.18 84.6674V65.698" stroke="#B9B9B9" stroke-width="0.633928" stroke-miterlimit="10"/>
<path id="Vector_6" d="M127.18 68.3805C128.661 68.3805 129.861 67.1794 129.861 65.6979C129.861 64.2164 128.661 63.0154 127.18 63.0154C125.7 63.0154 124.5 64.2164 124.5 65.6979C124.5 67.1794 125.7 68.3805 127.18 68.3805Z" fill="white"/>
<path id="Vector_7" d="M121.9 76.3191C118.028 82.2613 119.089 89.819 119.089 89.819C119.089 89.819 126.429 87.7425 130.301 81.8003C134.174 75.8581 133.113 68.3004 133.113 68.3004C133.113 68.3004 125.773 70.3769 121.9 76.3191Z" fill="#F7F7F7"/>
<path id="Vector_8" d="M119.068 89.7499C119.068 89.7499 118.974 89.7348 118.8 89.6997C118.662 89.6716 118.471 89.6315 118.238 89.5763C116.158 89.0856 110.628 87.4268 107.013 83.0656C102.488 77.6046 102.678 69.9751 102.678 69.9751C102.678 69.9751 109.597 71.1 114.157 76.0041C114.354 76.2148 114.546 76.4332 114.733 76.6593C118.671 81.4109 119.038 87.8041 119.067 89.3846C119.071 89.6214 119.068 89.7499 119.068 89.7499Z" fill="#F8F8F8"/>
<path id="Vector_9" d="M116.277 76.3191C120.15 82.2613 119.089 89.819 119.089 89.819C119.089 89.819 111.749 87.7425 107.877 81.8003C104.004 75.8581 105.065 68.3004 105.065 68.3004C105.065 68.3004 112.405 70.3769 116.277 76.3191Z" fill="white" stroke="#B9B9B9" stroke-width="0.633928" stroke-miterlimit="10"/>
<path id="Vector_10" opacity="0.1" d="M119.067 89.3847C118.965 89.5081 118.874 89.6135 118.8 89.6998C118.636 89.8874 118.542 89.9858 118.542 89.9858C118.542 89.9858 118.429 89.8433 118.238 89.5764C117.192 88.1173 113.828 82.9292 114.087 76.9364C114.102 76.6223 114.125 76.3116 114.157 76.0042C114.354 76.2149 114.546 76.4333 114.733 76.6594C118.671 81.411 119.038 87.8042 119.067 89.3847Z" fill="black"/>
<path id="Vector_11" d="M124.809 77.3696C124.503 84.4569 119.245 89.9857 119.245 89.9857C119.245 89.9857 114.483 84.0237 114.789 76.9364C115.095 69.8491 120.353 64.3203 120.353 64.3203C120.353 64.3203 125.115 70.2823 124.809 77.3696Z" fill="#F8F8F8"/>
<path id="Vector_12" d="M119.245 89.7851L120.401 64.6095" stroke="#B9B9B9" stroke-width="0.633928" stroke-miterlimit="10"/>
<path id="Vector_13" d="M8.91284 89.8127H129.011" stroke="#828282" stroke-width="0.633928" stroke-miterlimit="10"/>
<path id="Vector_14" d="M34.42 59.1101C37.7701 59.1101 40.4858 56.3928 40.4858 53.0408C40.4858 49.6888 37.7701 46.9714 34.42 46.9714C31.07 46.9714 28.3542 49.6888 28.3542 53.0408C28.3542 56.3928 31.07 59.1101 34.42 59.1101Z" fill="#39A798"/>
<path id="Vector_15" d="M24.1097 73.3943C27.4597 73.3943 30.1755 70.677 30.1755 67.325C30.1755 63.973 27.4597 61.2556 24.1097 61.2556C20.7597 61.2556 18.0439 63.973 18.0439 67.325C18.0439 70.677 20.7597 73.3943 24.1097 73.3943Z" fill="#39A798"/>
<path id="Vector_16" d="M11.4205 84.8018C14.7705 84.8018 17.4863 82.0844 17.4863 78.7324C17.4863 75.3804 14.7705 72.6631 11.4205 72.6631C8.07047 72.6631 5.35474 75.3804 5.35474 78.7324C5.35474 82.0844 8.07047 84.8018 11.4205 84.8018Z" fill="#39A798"/>
<path id="Vector_17" d="M11.4153 89.7085V78.699" stroke="#F3F3F3" stroke-width="0.633928" stroke-miterlimit="10"/>
<path id="Vector_18" d="M11.4151 80.2559C12.2745 80.2559 12.9711 79.5588 12.9711 78.699C12.9711 77.8391 12.2745 77.1421 11.4151 77.1421C10.5558 77.1421 9.85913 77.8391 9.85913 78.699C9.85913 79.5588 10.5558 80.2559 11.4151 80.2559Z" fill="white"/>
<path id="Vector_19" d="M11.4153 85.4844C11.4153 85.4844 11.1931 80.7007 6.63623 81.2568L11.4153 85.4844Z" fill="white"/>
<path id="Vector_20" d="M34.4241 89.7858V53.0631" stroke="#F3F3F3" stroke-width="0.633928" stroke-miterlimit="10"/>
<path id="Vector_21" d="M34.4239 54.6026C35.2833 54.6026 35.9799 53.9055 35.9799 53.0457C35.9799 52.1858 35.2833 51.4888 34.4239 51.4888C33.5646 51.4888 32.8679 52.1858 32.8679 53.0457C32.8679 53.9055 33.5646 54.6026 34.4239 54.6026Z" fill="white"/>
<path id="Vector_22" d="M29.6449 81.1717C30.5042 81.1717 31.2008 80.4746 31.2008 79.6148C31.2008 78.7549 30.5042 78.0579 29.6449 78.0579C28.7855 78.0579 28.0889 78.7549 28.0889 79.6148C28.0889 80.4746 28.7855 81.1717 29.6449 81.1717Z" fill="white"/>
<path id="Vector_23" d="M34.4241 60.9984C34.4241 60.9984 34.2018 56.2148 29.645 56.7708L34.4241 60.9984Z" fill="#FEFEFE"/>
<path id="Vector_24" d="M34.4241 74.5597C34.4241 74.5597 34.2018 69.776 29.645 70.3321L34.4241 74.5597Z" fill="#FEFEFE"/>
<path id="Vector_25" d="M34.4241 89.3578C34.4241 89.3578 35.4244 80.0596 29.645 79.6147" stroke="#E9E9E9" stroke-width="0.633928" stroke-miterlimit="10"/>
<path id="Vector_26" d="M39.2035 81.1717C40.0628 81.1717 40.7594 80.4746 40.7594 79.6148C40.7594 78.7549 40.0628 78.0579 39.2035 78.0579C38.3441 78.0579 37.6475 78.7549 37.6475 79.6148C37.6475 80.4746 38.3441 81.1717 39.2035 81.1717Z" fill="white"/>
<path id="Vector_27" d="M34.4243 89.3578C34.4243 89.3578 33.424 80.0596 39.2034 79.6147" stroke="#E9E9E9" stroke-width="0.633928" stroke-miterlimit="10"/>
<path id="Vector_28" d="M39.2987 66.5674C40.158 66.5674 40.8547 65.8704 40.8547 65.0105C40.8547 64.1507 40.158 63.4536 39.2987 63.4536C38.4393 63.4536 37.7427 64.1507 37.7427 65.0105C37.7427 65.8704 38.4393 66.5674 39.2987 66.5674Z" fill="white"/>
<path id="Vector_29" d="M34.5198 74.2576C34.5198 74.2576 33.5195 65.4553 39.2989 65.0105" stroke="#F3F3F3" stroke-width="0.633928" stroke-miterlimit="10"/>
<path id="Vector_30" d="M24.1155 89.734V67.3181" stroke="#F3F3F3" stroke-width="0.633928" stroke-miterlimit="10"/>
<path id="Vector_31" d="M24.1153 68.875C24.9747 68.875 25.6713 68.178 25.6713 67.3181C25.6713 66.4583 24.9747 65.7612 24.1153 65.7612C23.256 65.7612 22.5593 66.4583 22.5593 67.3181C22.5593 68.178 23.256 68.875 24.1153 68.875Z" fill="white"/>
<path id="Vector_32" d="M24.1155 73.6588C24.1155 73.6588 23.8932 68.8752 19.3364 69.4312L24.1155 73.6588Z" fill="#FEFEFE"/>
<path id="Vector_33" d="M24.1155 89.3061C24.1155 89.3061 25.1158 80.1071 19.3364 79.6622" stroke="#F3F3F3" stroke-width="0.633928" stroke-miterlimit="10"/>
<path id="Vector_34" d="M19.3363 81.2192C20.1956 81.2192 20.8923 80.5221 20.8923 79.6623C20.8923 78.8024 20.1956 78.1053 19.3363 78.1053C18.4769 78.1053 17.7803 78.8024 17.7803 79.6623C17.7803 80.5221 18.4769 81.2192 19.3363 81.2192Z" fill="white"/>
<path id="Vector_35" d="M109.561 55.6791C110.972 55.6791 112.116 54.5344 112.116 53.1224C112.116 51.7104 110.972 50.5657 109.561 50.5657C108.15 50.5657 107.006 51.7104 107.006 53.1224C107.006 54.5344 108.15 55.6791 109.561 55.6791Z" fill="#F2F2F2"/>
<path id="Vector_36" opacity="0.1" d="M82.523 71.7722C79.2637 73.2551 75.066 73.15 75.066 73.15H70.5234V72.2821C72.3746 71.7651 74.934 71.4455 77.7632 71.4455C79.3556 71.44 80.9463 71.5491 82.523 71.7722Z" fill="black"/>
<path id="Vector_37" opacity="0.1" d="M87.9837 74.2864C87.9837 75.856 83.4071 77.1272 77.7629 77.1272C72.1187 77.1272 67.542 75.856 67.542 74.2864C67.542 73.5038 68.6805 72.795 70.5231 72.2823V73.1501H75.0657C75.0657 73.1501 79.2633 73.2552 82.5227 71.7723C85.7692 72.2468 87.9837 73.1942 87.9837 74.2864Z" fill="black"/>
<path id="Vector_38" d="M79.069 56.5981H74.7202V60.9573H79.069V56.5981Z" fill="#2F2E41"/>
<path id="Vector_39" d="M76.3372 59.6807C76.3372 59.6807 76.6971 60.9413 76.0672 61.0314C75.6763 61.0924 75.3058 61.2468 74.9873 61.4816L76.1572 63.0123H78.317L79.6668 61.6617C79.6668 61.6617 77.867 60.311 78.227 59.5006C78.5869 58.6903 76.3372 59.6807 76.3372 59.6807Z" fill="#FFB9B9"/>
<path id="Vector_40" opacity="0.1" d="M76.3372 59.6807C76.3372 59.6807 76.6971 60.9413 76.0672 61.0314C75.6763 61.0924 75.3058 61.2468 74.9873 61.4816L76.1572 63.0123H78.317L79.6668 61.6617C79.6668 61.6617 77.867 60.311 78.227 59.5006C78.5869 58.6903 76.3372 59.6807 76.3372 59.6807Z" fill="black"/>
<path id="Vector_41" d="M76.877 75.3485L78.9468 76.0688L80.3865 76.1588L80.2965 74.8982L77.327 74.0194L76.877 75.3485Z" fill="#FFB9B9"/>
<path id="Vector_42" d="M79.5317 75.0782C79.5317 75.0782 79.5318 76.3388 79.7117 76.3388C79.8917 76.3388 82.3215 76.0687 83.0414 76.3388C83.7613 76.609 84.8412 75.6185 84.3013 75.0782C83.7613 74.538 82.8806 73.7276 82.331 73.9077C81.7815 74.0878 79.5317 74.538 79.5317 74.538L79.5317 75.0782Z" fill="#2F2E41"/>
<path id="Vector_43" d="M72.9175 73.9076C72.9175 73.9076 71.8376 76.0686 72.5575 76.2487C73.2775 76.4288 74.0874 76.1587 74.1774 76.0686C74.2674 75.9786 75.5272 75.6184 75.7072 75.7985C75.8872 75.9786 75.8872 75.0782 75.8872 75.0782L72.9175 73.9076Z" fill="#2F2E41"/>
<path id="Vector_44" d="M73.8169 70.9363C73.8169 70.9363 72.1071 73.2774 73.3669 73.9077C74.6268 74.538 80.6562 74.538 81.1062 73.9077C81.5561 73.2774 81.7361 71.2965 81.1062 71.1164C80.4762 70.9363 73.8169 70.9363 73.8169 70.9363Z" fill="#2F2E41"/>
<path id="Vector_45" opacity="0.2" d="M73.8169 70.9363C73.8169 70.9363 72.1071 73.2774 73.3669 73.9077C74.6268 74.538 80.6562 74.538 81.1062 73.9077C81.5561 73.2774 81.7361 71.2965 81.1062 71.1164C80.4762 70.9363 73.8169 70.9363 73.8169 70.9363Z" fill="black"/>
<path id="Vector_46" d="M77.0571 60.3112C78.2002 60.3112 79.1269 59.384 79.1269 58.2402C79.1269 57.0964 78.2002 56.1692 77.0571 56.1692C75.914 56.1692 74.9873 57.0964 74.9873 58.2402C74.9873 59.384 75.914 60.3112 77.0571 60.3112Z" fill="#FFB9B9"/>
<path id="Vector_47" d="M73.8174 61.4818L75.6172 61.1216C75.6172 61.1216 76.0672 62.5623 77.507 62.2921C78.9469 62.022 79.3068 61.1216 79.3068 61.1216C79.3068 61.1216 80.3867 61.5718 80.4767 61.5718C80.5667 61.5718 81.7366 62.022 81.7366 62.2921C81.7366 62.5623 80.3867 65.2636 80.3867 65.2636L80.5667 70.126L73.9074 69.9459L74.3573 65.1735L73.8174 61.4818Z" fill="#828282"/>
<path id="Vector_48" d="M72.8272 63.8228C72.8272 63.8228 72.2872 68.5951 72.6472 68.9553C73.0071 69.3154 74.447 70.3059 74.447 70.3059V69.2254L73.7271 67.8747L74.447 64.7232L72.8272 63.8228Z" fill="#FFB9B9"/>
<path id="Vector_49" d="M82.1417 63.6877C82.1417 63.6877 81.8267 68.5951 81.8267 68.7752C81.8267 68.9553 81.0168 69.5856 80.7468 69.5856C80.4769 69.5856 80.2969 69.1354 80.2969 69.1354L80.9268 68.415L80.4769 64.7232L82.1417 63.6877Z" fill="#FFB9B9"/>
<path id="Vector_50" d="M81.2865 70.576C81.2865 70.576 85.336 68.325 85.426 70.576C85.516 72.8271 83.3562 73.7276 83.3562 73.7276C83.3562 73.7276 77.7768 75.4016 77.5518 74.7897C77.3269 74.1778 76.8769 73.1873 77.2369 73.0973C77.5968 73.0072 78.0468 72.8271 78.2268 73.0072C78.4067 73.1873 80.6565 71.6566 80.6565 71.6566L81.2865 70.576Z" fill="#2F2E41"/>
<path id="Vector_51" opacity="0.2" d="M83.1765 70.306C83.1765 70.306 82.3666 70.6662 82.0966 70.9363C81.8266 71.2065 80.6567 71.6567 80.6567 71.6567" stroke="black" stroke-width="0.633928" stroke-miterlimit="10"/>
<path id="Vector_52" d="M74.3573 61.6619L73.8174 61.4818C73.8174 61.4818 71.8376 63.5528 72.4675 64.0931C73.0974 64.6333 73.4574 64.8134 73.6374 64.9935C73.8174 65.1736 74.7173 65.2636 74.7173 65.2636L74.3573 61.6619Z" fill="#828282"/>
<path id="Vector_53" d="M80.9269 62.1119L81.7368 62.292C81.7368 62.292 82.3667 63.6427 82.5467 63.8228C82.7267 64.0029 82.2767 63.9128 82.0067 64.273C81.7368 64.6332 81.4668 65.2635 80.9269 65.2635C80.3869 65.2635 79.667 64.363 79.667 64.363L80.9269 62.1119Z" fill="#828282"/>
<path id="Vector_54" d="M73.9974 71.3865C73.9974 71.3865 70.5778 68.9554 69.4079 70.7562C68.238 72.5571 74.4474 74.9883 75.3473 75.3485C76.2472 75.7086 77.0571 76.0688 77.0571 76.0688C77.0571 76.0688 77.867 74.0878 77.867 73.7277C77.867 73.3675 77.2371 73.3675 77.0571 73.3675C76.8771 73.3675 76.0672 73.1874 75.8872 72.9173C75.7072 72.6471 73.9974 71.3865 73.9974 71.3865Z" fill="#2F2E41"/>
<path id="Vector_55" opacity="0.2" d="M72.1079 70.7562C72.1079 70.7562 73.0078 71.4766 73.8177 71.6567C74.6277 71.8368 74.8976 72.287 74.8976 72.287" stroke="black" stroke-width="0.633928" stroke-miterlimit="10"/>
<path id="Vector_56" d="M73.3765 67.3707L73.4484 71.1832C73.4508 71.3091 73.5028 71.429 73.5932 71.5167C73.6835 71.6044 73.8048 71.6528 73.9307 71.6514L81.0214 71.5717C81.1422 71.5703 81.258 71.5231 81.3454 71.4397C81.4328 71.3562 81.4852 71.2426 81.4922 71.1219L81.7074 67.3892C81.7112 67.3243 81.7016 67.2593 81.6794 67.1983C81.6571 67.1372 81.6227 67.0813 81.5781 67.0341C81.5335 66.9868 81.4797 66.9491 81.4201 66.9234C81.3604 66.8977 81.2962 66.8844 81.2312 66.8844H73.8535C73.7901 66.8844 73.7273 66.897 73.6688 66.9216C73.6104 66.9462 73.5574 66.9821 73.513 67.0274C73.4686 67.0727 73.4337 67.1263 73.4102 67.1853C73.3868 67.2442 73.3754 67.3072 73.3765 67.3707Z" fill="#39A798"/>
<path id="Vector_57" d="M72.5561 61.5043C72.7492 61.0779 73.0087 60.6777 73.1324 60.2262C73.2806 59.6851 73.2229 59.1125 73.2053 58.5517C73.1771 58.0557 73.2194 57.5582 73.3307 57.074C73.4438 56.5876 73.6977 56.1453 74.0607 55.8024C75.0038 54.96 76.7297 54.8995 77.8813 55.2502C78.3353 55.3885 78.8189 55.6517 78.9314 56.113C78.9484 56.1826 78.9561 56.2544 78.975 56.3235C79.0693 56.667 79.4205 56.8843 79.5471 57.2171C79.711 57.6476 79.4583 58.1157 79.4253 58.5752C79.3868 59.1116 79.6503 59.6184 79.9101 60.0892C80.0645 60.3691 80.225 60.6673 80.2097 60.9866C80.1969 61.1613 80.1438 61.3306 80.0547 61.4813C79.8892 61.7545 79.657 61.9811 79.38 62.14C79.103 62.2989 78.7902 62.3848 78.471 62.3896C78.2634 62.4062 78.0559 62.3572 77.8778 62.2495C77.5967 62.0559 77.5144 61.666 77.573 61.3296C77.6315 60.9933 77.8021 60.689 77.9358 60.3749C77.9769 60.2785 78.0139 60.1805 78.048 60.0815C78.4626 59.8499 78.7821 59.4792 78.95 59.0349C79.118 58.5905 79.1236 58.101 78.9659 57.6529C78.8082 57.2048 78.4973 56.8268 78.0881 56.5858C77.679 56.3448 77.1979 56.2562 76.7297 56.3356C76.2616 56.4151 75.8366 56.6575 75.5298 57.02C75.2229 57.3826 75.054 57.842 75.0528 58.3171C75.0516 58.7922 75.2182 59.2524 75.5232 59.6165C75.8282 59.9806 76.252 60.2251 76.7197 60.307C76.8205 60.8151 76.7747 61.3415 76.5876 61.8246C76.4175 62.2177 76.2038 62.5904 75.9507 62.9358C75.8472 63.1129 75.7092 63.2674 75.5449 63.3902C75.4367 63.4543 75.3204 63.504 75.1993 63.5379C74.691 63.7014 74.1557 63.8331 73.6269 63.7595C73.098 63.6859 72.5742 63.3667 72.394 62.8638C72.2361 62.4232 72.363 61.9307 72.5561 61.5043Z" fill="#2F2E41"/>
<path id="Vector_58" d="M76.9568 58.3226C78.17 58.3226 79.1534 57.765 79.1534 57.0771C79.1534 56.3893 78.17 55.8317 76.9568 55.8317C75.7437 55.8317 74.7603 56.3893 74.7603 57.0771C74.7603 57.765 75.7437 58.3226 76.9568 58.3226Z" fill="#2F2E41"/>
<path id="Vector_59" opacity="0.3" d="M110.517 53.271C110.484 53.1883 110.422 53.12 110.343 53.0782C110.294 53.0494 110.241 53.0278 110.186 53.0141C110.223 52.9962 110.257 52.9724 110.287 52.9436C110.331 52.9027 110.364 52.8514 110.384 52.7944C110.401 52.736 110.409 52.6748 110.405 52.6138C110.405 52.5124 110.377 52.4131 110.324 52.3268C110.264 52.2479 110.184 52.1878 110.091 52.1538C110.001 52.119 109.906 52.0997 109.81 52.0968V51.6875L109.562 51.8476V52.0975H109.364V51.8348L109.111 51.6875V52.0975H108.572L108.745 52.4049C108.782 52.4024 108.819 52.4074 108.854 52.4197C108.871 52.4275 108.885 52.441 108.894 52.4581C108.904 52.4945 108.908 52.5324 108.906 52.5702V53.6796C108.908 53.7172 108.904 53.7549 108.894 53.7911C108.886 53.8078 108.881 53.8225 108.862 53.8315C108.843 53.8404 108.843 53.8398 108.789 53.8398H108.789L108.572 54.1473H109.11V54.5572H109.364V54.1473H109.562V54.5572H109.809V54.1447C109.934 54.1425 110.058 54.1202 110.176 54.0787C110.286 54.0395 110.382 53.9695 110.453 53.8769C110.514 53.7785 110.548 53.6651 110.55 53.549C110.557 53.455 110.546 53.3607 110.517 53.271ZM109.364 52.4434H109.364V52.4348H109.537C109.634 52.4348 109.958 52.4013 109.964 52.6755C109.969 52.9497 109.537 52.9385 109.537 52.9385H109.364V52.9174H109.364V52.4434ZM109.364 53.2249H109.562C109.602 53.2249 109.74 53.2312 109.79 53.2336C109.811 53.2343 109.831 53.2381 109.851 53.2447C109.858 53.2472 109.865 53.25 109.872 53.2532C109.903 53.2634 109.931 53.2785 109.957 53.2979C109.974 53.3096 109.989 53.3241 110.001 53.3408C110.02 53.368 110.034 53.3983 110.042 53.4303C110.048 53.4528 110.051 53.4758 110.051 53.499C110.053 53.5432 110.042 53.587 110.02 53.6252C109.988 53.676 109.942 53.7158 109.887 53.7392C109.783 53.7815 109.673 53.8026 109.562 53.8014H109.364V53.2249Z" fill="#828282"/>
<path id="Vector_60" d="M9.90776 64.6276C11.319 64.6276 12.463 63.4829 12.463 62.0709C12.463 60.6588 11.319 59.5142 9.90776 59.5142C8.49655 59.5142 7.35254 60.6588 7.35254 62.0709C7.35254 63.4829 8.49655 64.6276 9.90776 64.6276Z" fill="#F2F2F2"/>
<path id="Vector_61" opacity="0.3" d="M10.8635 62.2195C10.8301 62.1367 10.7685 62.0685 10.6898 62.0267C10.6407 61.9979 10.5878 61.9763 10.5327 61.9626C10.5699 61.9447 10.6039 61.9209 10.6335 61.8921C10.6775 61.8512 10.7107 61.7999 10.73 61.7429C10.7479 61.6844 10.7553 61.6233 10.7516 61.5622C10.7513 61.4609 10.723 61.3616 10.67 61.2753C10.6108 61.1964 10.53 61.1363 10.4375 61.1023C10.3476 61.0674 10.2524 61.0482 10.1561 61.0453V60.636L9.90874 60.7961V61.0459H9.71085V60.7833L9.45732 60.636V61.0459H8.9187L9.09185 61.3534C9.12855 61.3509 9.16538 61.3559 9.20007 61.3681C9.21748 61.376 9.23168 61.3895 9.24026 61.4066C9.25081 61.4429 9.25479 61.4809 9.25201 61.5187V62.6281C9.25471 62.6657 9.25073 62.7034 9.24026 62.7396C9.23222 62.7562 9.2279 62.771 9.20873 62.7799C9.18956 62.7889 9.18894 62.7883 9.13576 62.7883H9.13514L8.91871 63.0957H9.4567V63.5057H9.71024V63.0957H9.90813V63.5057H10.1555V63.0932C10.2807 63.091 10.4047 63.0687 10.5228 63.0272C10.6324 62.988 10.7284 62.9179 10.7992 62.8254C10.8609 62.727 10.8947 62.6136 10.8969 62.4975C10.9034 62.4035 10.8921 62.3092 10.8635 62.2195ZM9.71024 61.3918H9.71031V61.3833H9.88321C9.98048 61.3833 10.3046 61.3498 10.31 61.624C10.3155 61.8982 9.88321 61.887 9.88321 61.887H9.71031V61.8659H9.71024L9.71024 61.3918ZM9.71024 62.1733H9.90813C9.94832 62.1733 10.0866 62.1797 10.1369 62.1821C10.1575 62.1828 10.1778 62.1866 10.1973 62.1932C10.2044 62.1957 10.2111 62.1985 10.2184 62.2017C10.2491 62.2119 10.2778 62.227 10.3037 62.2464C10.3208 62.258 10.3357 62.2726 10.3478 62.2893C10.3665 62.3165 10.3802 62.3468 10.3882 62.3788C10.3941 62.4012 10.3971 62.4243 10.3973 62.4475C10.3993 62.4917 10.3886 62.5355 10.3664 62.5737C10.3347 62.6245 10.2881 62.6643 10.233 62.6877C10.1299 62.7299 10.0195 62.7511 9.90813 62.7498H9.71024L9.71024 62.1733Z" fill="#828282"/>
</g>
<defs>
<clipPath id="clip0_1028_400">
<rect width="132.491" height="89.3839" fill="white" transform="translate(0.754395 0.616089)"/>
</clipPath>
</defs>
</svg>
